<?xml version="1.0" standalone="no"?><!DOCTYPE svg PUBLIC "-//W3C//DTD SVG 1.1//EN" "http://www.w3.org/Graphics/SVG/1.1/DTD/svg11.dtd"><svg t="1647743875913" class="icon" viewBox="0 0 1103 1024" version="1.1" xmlns="http://www.w3.org/2000/svg" p-id="3324" xmlns:xlink="http://www.w3.org/1999/xlink" width="215.4296875" height="200"><defs><style type="text/css">@font-face { font-family: feedback-iconfont; src: url("//at.alicdn.com/t/font_1031158_u69w8yhxdu.woff2?t=1630033759944") format("woff2"), url("//at.alicdn.com/t/font_1031158_u69w8yhxdu.woff?t=1630033759944") format("woff"), url("//at.alicdn.com/t/font_1031158_u69w8yhxdu.ttf?t=1630033759944") format("truetype"); }
</style></defs><path d="M484.496847 235.890933H86.940306c-37.226881 0-67.682496 30.455615-67.682496 67.682496v568.536413c0 37.226881 30.455615 67.682496 67.682496 67.682496h927.258382c37.226881 0 67.682496-30.455615 67.682496-67.682496V303.573429c0-37.226881-30.455615-67.682496-67.682496-67.682496h-86.944616" fill="#9898B3" p-id="3325"></path><path d="M1014.198688 957.032991H86.940306c-46.825615 0-84.923149-38.097534-84.92315-84.923149V303.573429c0-46.825615 38.097534-84.923149 84.92315-84.92315h397.556541a17.240654 17.240654 0 0 1 0 34.481307H86.940306c-27.813484 0-50.441842 22.628358-50.441842 50.441843v568.536413c0 27.813484 22.628358 50.441842 50.441842 50.441842h927.258382c27.813484 0 50.441842-22.628358 50.441843-50.441842V303.573429c0-27.813484-22.628358-50.441842-50.441843-50.441843h-86.944616a17.240654 17.240654 0 0 1 0-34.481307h86.944616c46.825615 0 84.923149 38.097534 84.92315 84.92315v568.536413c0 46.825615-38.097534 84.923149-84.92315 84.923149z" fill="#6E6E96" p-id="3326"></path><path d="M141.088889 184.199143h148.907525v60.915539H141.088889z" fill="#BBBBCC" p-id="3327"></path><path d="M289.992104 262.355336H141.088889a17.240654 17.240654 0 0 1-17.240654-17.240654V184.199143a17.240654 17.240654 0 0 1 17.240654-17.240654h148.907525a17.240654 17.240654 0 0 1 17.240653 17.240654v60.915539a17.249274 17.249274 0 0 1-17.244963 17.240654z m-131.662562-34.481307h114.426218v-26.434232H158.329542v26.434232z" fill="#6E6E96" p-id="3328"></path><path d="M19.25781 872.109842c0 37.226881 30.455615 67.682496 67.682496 67.682496H211.0256c37.226881 0 67.682496-30.455615 67.682496-67.682496V303.573429c0-37.226881-30.455615-67.682496-67.682496-67.682496H86.940306c-37.226881 0-67.682496 30.455615-67.682496 67.682496v568.536413z" fill="#9898B3" p-id="3329"></path><path d="M28.278982 369.928394h54.148583V812.120988H28.278982z" fill="#F0F0FF" opacity=".25" p-id="3330"></path><path d="M211.0256 957.032991H86.940306c-46.825615 0-84.923149-38.097534-84.92315-84.923149V303.573429c0-46.825615 38.097534-84.923149 84.92315-84.92315H211.0256c46.825615 0 84.923149 38.097534 84.923149 84.92315v568.536413c0 46.825615-38.097534 84.923149-84.923149 84.923149zM86.940306 253.131586c-27.813484 0-50.441842 22.628358-50.441842 50.441843v568.536413c0 27.813484 22.628358 50.441842 50.441842 50.441842H211.0256c27.813484 0 50.441842-22.628358 50.441842-50.441842V303.573429c0-27.813484-22.628358-50.441842-50.441842-50.441843H86.940306z" fill="#6E6E96" p-id="3331"></path><path d="M1014.198688 235.890933H86.940306c-37.226881 0-67.682496 30.455615-67.682496 67.682496v51.894367h1062.623374v-51.894367c0-37.226881-30.455615-67.682496-67.682496-67.682496z" fill="#BBBBCC" p-id="3332"></path><path d="M28.783271 322.025238h1043.24488v15.710546H28.783271z" fill="#6E6E96" opacity=".2" p-id="3333"></path><path d="M28.278982 365.618231h1044.57672v19.175917H28.278982z" fill="#6E6E96" opacity=".15" p-id="3334"></path><path d="M95.23306 287.272391h910.345302c36.545875 0 66.449789 28.524661 66.449789 63.393883v-38.037192c0-46.717861-29.903914-63.398193-66.449789-63.398194H95.23306c-36.545875 0-66.449789 28.528972-66.449789 63.398194v38.037192c0-34.864912 29.899603-63.393883 66.449789-63.393883z" fill="#F0F0FF" opacity=".2" p-id="3335"></path><path d="M1081.881184 372.708449H19.25781a17.240654 17.240654 0 0 1-17.240654-17.240653v-51.894367c0-46.825615 38.097534-84.923149 84.92315-84.92315h927.258382c46.825615 0 84.923149 38.097534 84.92315 84.92315v51.894367a17.240654 17.240654 0 0 1-17.240654 17.240653z m-1045.38272-34.481307h1028.142067v-34.653713c0-27.813484-22.628358-50.441842-50.441843-50.441843H86.940306c-27.813484 0-50.441842 22.628358-50.441842 50.441843v34.653713z" fill="#6E6E96" p-id="3336"></path><path d="M19.25781 872.109842c0 37.226881 30.455615 67.682496 67.682496 67.682496h927.258382c37.226881 0 67.682496-30.455615 67.682496-67.682496V820.224095H19.25781v51.885747z" fill="#BBBBCC" p-id="3337"></path><path d="M1014.198688 957.032991H86.940306c-46.825615 0-84.923149-38.097534-84.92315-84.923149V820.224095a17.240654 17.240654 0 0 1 17.240654-17.240654h1062.623374a17.240654 17.240654 0 0 1 17.240654 17.240654v51.885747c0 46.825615-38.097534 84.923149-84.92315 84.923149zM36.498464 837.464748v34.645094c0 27.813484 22.628358 50.441842 50.441842 50.441842h927.258382c27.813484 0 50.441842-22.628358 50.441843-50.441842V837.464748H36.498464z" fill="#6E6E96" p-id="3338"></path><path d="M312.547189 398.328061h22.559395v22.563705h-22.559395zM371.773144 398.328061h22.555085v22.563705h-22.555085zM430.994789 398.328061h22.555085v22.563705h-22.555085zM490.216434 398.328061h22.559395v22.563705h-22.559395zM549.438079 398.328061h22.559396v22.563705h-22.559396zM608.659724 398.328061h22.559396v22.563705h-22.559396zM667.881369 398.328061h22.555086v22.563705h-22.555086zM727.107325 398.328061h22.559395v22.563705h-22.559395zM786.32897 398.328061h22.559395v22.563705h-22.559395zM845.550615 398.328061h22.559395v22.563705h-22.559395zM904.77226 398.328061h22.555085v22.563705h-22.555085zM963.993905 398.328061h22.555085v22.563705h-22.555085zM1023.21986 398.328061h22.559396v22.563705h-22.559396z" fill="#6E6E96" opacity=".37" p-id="3339"></path><path d="M312.547189 459.2436h22.559395v22.563705h-22.559395zM371.773144 459.2436h22.555085v22.563705h-22.555085zM430.994789 459.2436h22.555085v22.563705h-22.555085zM490.216434 459.2436h22.559395v22.563705h-22.559395zM549.438079 459.2436h22.559396v22.563705h-22.559396zM608.659724 459.2436h22.559396v22.563705h-22.559396zM667.881369 459.2436h22.555086v22.563705h-22.555086zM727.107325 459.2436h22.559395v22.563705h-22.559395zM786.32897 459.2436h22.559395v22.563705h-22.559395zM845.550615 459.2436h22.559395v22.563705h-22.559395zM904.77226 459.2436h22.555085v22.563705h-22.555085zM963.993905 459.2436h22.555085v22.563705h-22.555085zM1023.21986 459.2436h22.559396v22.563705h-22.559396z" fill="#6E6E96" opacity=".37" p-id="3340"></path><path d="M312.547189 520.159139h22.559395v22.563706h-22.559395zM371.773144 520.159139h22.555085v22.563706h-22.555085zM430.994789 520.159139h22.555085v22.563706h-22.555085zM490.216434 520.159139h22.559395v22.563706h-22.559395zM549.438079 520.159139h22.559396v22.563706h-22.559396zM608.659724 520.159139h22.559396v22.563706h-22.559396zM667.881369 520.159139h22.555086v22.563706h-22.555086zM727.107325 520.159139h22.559395v22.563706h-22.559395zM786.32897 520.159139h22.559395v22.563706h-22.559395zM845.550615 520.159139h22.559395v22.563706h-22.559395zM904.77226 520.159139h22.555085v22.563706h-22.555085zM963.993905 520.159139h22.555085v22.563706h-22.555085zM1023.21986 520.159139h22.559396v22.563706h-22.559396z" fill="#6E6E96" opacity=".37" p-id="3341"></path><path d="M312.547189 581.070368h22.559395v22.559396h-22.559395zM371.773144 581.070368h22.555085v22.559396h-22.555085zM430.994789 581.070368h22.555085v22.559396h-22.555085zM490.216434 581.070368h22.559395v22.559396h-22.559395zM549.438079 581.070368h22.559396v22.559396h-22.559396zM608.659724 581.070368h22.559396v22.559396h-22.559396zM667.881369 581.070368h22.555086v22.559396h-22.555086zM727.107325 581.070368h22.559395v22.559396h-22.559395zM786.32897 581.070368h22.559395v22.559396h-22.559395zM845.550615 581.070368h22.559395v22.559396h-22.559395zM904.77226 581.070368h22.555085v22.559396h-22.555085zM963.993905 581.070368h22.555085v22.559396h-22.555085zM1023.21986 581.070368h22.559396v22.559396h-22.559396z" fill="#6E6E96" opacity=".37" p-id="3342"></path><path d="M312.547189 641.985908h22.559395v22.559395h-22.559395zM371.773144 641.985908h22.555085v22.559395h-22.555085zM430.994789 641.985908h22.555085v22.559395h-22.555085zM490.216434 641.985908h22.559395v22.559395h-22.559395zM549.438079 641.985908h22.559396v22.559395h-22.559396zM608.659724 641.985908h22.559396v22.559395h-22.559396zM667.881369 641.985908h22.555086v22.559395h-22.555086zM727.107325 641.985908h22.559395v22.559395h-22.559395zM786.32897 641.985908h22.559395v22.559395h-22.559395zM845.550615 641.985908h22.559395v22.559395h-22.559395zM904.77226 641.985908h22.555085v22.559395h-22.555085zM963.993905 641.985908h22.555085v22.559395h-22.555085zM1023.21986 641.985908h22.559396v22.559395h-22.559396z" fill="#6E6E96" opacity=".37" p-id="3343"></path><path d="M312.547189 702.910067h22.559395v22.550775h-22.559395zM371.773144 702.910067h22.555085v22.550775h-22.555085zM430.994789 702.910067h22.555085v22.550775h-22.555085zM490.216434 702.910067h22.559395v22.550775h-22.559395zM549.438079 702.910067h22.559396v22.550775h-22.559396zM608.659724 702.910067h22.559396v22.550775h-22.559396zM667.881369 702.910067h22.555086v22.550775h-22.555086zM727.107325 702.910067h22.559395v22.550775h-22.559395zM786.32897 702.910067h22.559395v22.550775h-22.559395zM845.550615 702.910067h22.559395v22.550775h-22.559395zM904.77226 702.910067h22.555085v22.550775h-22.555085zM963.993905 702.910067h22.555085v22.550775h-22.555085zM1023.21986 702.910067h22.559396v22.550775h-22.559396z" fill="#6E6E96" opacity=".37" p-id="3344"></path><path d="M312.547189 763.825607h22.559395v22.555085h-22.559395zM371.773144 763.825607h22.555085v22.555085h-22.555085zM430.994789 763.825607h22.555085v22.555085h-22.555085zM490.216434 763.825607h22.559395v22.555085h-22.559395zM549.438079 763.825607h22.559396v22.555085h-22.559396zM608.659724 763.825607h22.559396v22.555085h-22.559396zM667.881369 763.825607h22.555086v22.555085h-22.555086zM727.107325 763.825607h22.559395v22.555085h-22.559395zM786.32897 763.825607h22.559395v22.555085h-22.559395zM845.550615 763.825607h22.559395v22.555085h-22.559395zM904.77226 763.825607h22.555085v22.555085h-22.555085zM963.993905 763.825607h22.555085v22.555085h-22.555085zM1023.21986 763.825607h22.559396v22.555085h-22.559396z" fill="#6E6E96" opacity=".37" p-id="3345"></path><path d="M29.408245 831.499482h1014.108175v21.443063H29.408245z" fill="#F0F0FF" opacity=".25" p-id="3346"></path><path d="M894.621825 355.463486l-69.841887-218.008065c-11.271077-35.201104-48.877253-64.010237-83.548208-64.010237h-134.477098c-34.675265 0-71.096145 29.205667-80.931938 64.902441L465.958835 355.459176" fill="#CCCCDE" p-id="3347"></path><path d="M894.621825 372.704139l-428.66299-0.00431a17.227723 17.227723 0 0 1-13.71494-6.797128 17.227723 17.227723 0 0 1-2.90505-15.025229l59.863859-217.111551c9.172028-33.296012 29.266009-77.56139 97.551928-77.56139h134.477098c67.79456 0 89.522094 43.368864 99.96562 75.992491l69.841888 218.008064a17.240654 17.240654 0 0 1-16.417413 22.499053z m-406.026012-34.485617l382.402007 0.00431-62.635295-195.509012c-10.28836-32.123648-25.102392-52.027982-67.126485-52.027982h-134.477098c-41.571526 0-55.424391 19.990538-64.311948 52.24349L488.595813 338.218522z" fill="#6E6E96" p-id="3348"></path><path d="M971.997879 577.036056m-69.798786 0a69.798786 69.798786 0 1 0 139.597572 0 69.798786 69.798786 0 1 0-139.597572 0Z" fill="#BBBBCC" p-id="3349"></path><path d="M971.997879 664.075495c-47.993669 0-87.03944-39.05008-87.03944-87.039439s39.05008-87.03944 87.03944-87.03944 87.03944 39.04577 87.039439 87.03944-39.04577 87.03944-87.039439 87.039439z m0-139.597572c-28.981539 0-52.558132 23.580904-52.558133 52.558133s23.580904 52.558132 52.558133 52.558132 52.558132-23.580904 52.558132-52.558132-23.576594-52.558132-52.558132-52.558133z" fill="#6E6E96" p-id="3350"></path><path d="M472.725791 357.15738l18.046654-77.729487-21.430132 77.729487h3.383478z m355.437625-218.008065c-11.275387-35.201104-48.877253-64.010237-83.548208-64.010236h-40.080209c29.184116 0 60.855197 28.800512 70.350487 64.010236l58.81649 218.008065h64.299017l-69.837577-218.008065z" fill="#6E6E96" opacity=".2" p-id="3351"></path><path d="M673.846636 564.885705m-304.017376 0a304.017375 304.017375 0 1 0 608.034751 0 304.017375 304.017375 0 1 0-608.034751 0Z" fill="#DADAED" p-id="3352"></path><path d="M673.846636 886.143734c-177.143406 0-321.258029-144.118934-321.258029-321.258029s144.118934-321.258029 321.258029-321.258029 321.258029 144.114623 321.258029 321.258029-144.114623 321.258029-321.258029 321.258029z m0-608.034751c-158.131275 0-286.776722 128.645447-286.776722 286.776722s128.649757 286.776722 286.776722 286.776722 286.776722-128.649757 286.776721-286.776722-128.645447-286.776722-286.776721-286.776722z" fill="#6E6E96" p-id="3353"></path><path d="M673.721641 565.0107m-243.834564 0a243.834564 243.834564 0 1 0 487.669128 0 243.834564 243.834564 0 1 0-487.669128 0Z" fill="#A1A1B0" p-id="3354"></path><path d="M673.721641 826.085917c-143.959458 0-261.075217-117.12007-261.075218-261.075217s117.11576-261.075217 261.075218-261.075218c143.955147 0 261.075217 117.11576 261.075217 261.075218s-117.12007 261.075217-261.075217 261.075217z m0-487.669128c-124.943017 0-226.59391 101.646583-226.59391 226.593911s101.650894 226.59391 226.59391 226.59391 226.59391-101.650894 226.59391-226.59391-101.650894-226.59391-226.59391-226.593911z" fill="#6E6E96" p-id="3355"></path><path d="M674.837973 563.631447m-183.246597 0a183.246597 183.246597 0 1 0 366.493194 0 183.246597 183.246597 0 1 0-366.493194 0Z" fill="#C5A6E6" p-id="3356"></path><path d="M674.837973 764.118698c-110.547071 0-200.487251-89.94018-200.48725-200.491561s89.935869-200.487251 200.48725-200.48725 200.491561 89.935869 200.491561 200.48725-89.94449 200.491561-200.491561 200.491561z m0-366.493194c-91.53494 0-166.005943 74.471003-166.005943 166.005943 0 91.53494 74.466693 166.010253 166.005943 166.010254s166.010253-74.471003 166.010254-166.010254c-0.00431-91.53494-74.475313-166.005943-166.010254-166.005943z" fill="#6E6E96" p-id="3357"></path><path d="M672.540656 564.092635m-109.288503 0a109.288503 109.288503 0 1 0 218.577006 0 109.288503 109.288503 0 1 0-218.577006 0Z" fill="#F0F0FF" opacity=".41" p-id="3358"></path><path d="M661.670424 534.012004a17.559606 17.559606 0 1 1-0.00862 35.119212 17.559606 17.559606 0 0 1 0.00862-35.119212z" fill="#F0F0FF" p-id="3359"></path><path d="M233.589305 355.463486h45.127411v455.730817h-45.127411z" fill="#6E6E96" opacity=".2" p-id="3360"></path><path d="M177.466668 365.33376h101.241428v445.860543H177.466668z" fill="#6E6E96" opacity=".38" p-id="3361"></path><path d="M1043.52504 384.789837V892.37623a66.962699 66.962699 0 0 1-29.326352 6.805748H86.940306c-37.226881 0-67.682496-30.455615-67.682496-67.682496v40.61036c0 37.226881 30.455615 67.682496 67.682496 67.682496h927.258382c27.550564 0 51.368527-16.710503 61.906877-40.476745h5.775619V384.789837h-38.356144z" fill="#6E6E96" opacity=".2" p-id="3362"></path><path d="M633.055249 459.622894c12.646019 13.335646-5.736827 27.029035-25.675643 45.933412s-33.899435 35.86918-46.541145 22.537844c-12.65033-13.344266-6.732475-39.476787 13.206341-58.381163 19.947436-18.904377 46.368738-23.421428 59.010447-10.090093z" fill="#F0F0FF" p-id="3363"></path><path d="M379.669363 291.729099m-16.921701 0a16.921702 16.921702 0 1 0 33.843403 0 16.921702 16.921702 0 1 0-33.843403 0Z" fill="#6E6E96" p-id="3364"></path><path d="M220.688986 184.199143h34.481308v47.381626h-34.481308zM172.027242 191.543661h34.481307v40.037108h-34.481307z" fill="#6E6E96" p-id="3365"></path><path d="M387.000951 186.660246h69.945332v44.920523H387.000951z" fill="#CCCCDE" p-id="3366"></path><path d="M456.946283 248.821423H387.000951a17.240654 17.240654 0 0 1-17.240653-17.240654V186.660246a17.240654 17.240654 0 0 1 17.240653-17.240653h69.945332a17.240654 17.240654 0 0 1 17.240654 17.240653v44.920523a17.240654 17.240654 0 0 1-17.240654 17.240654z m-52.704678-34.481307h35.464024v-10.439216h-35.464024v10.439216z" fill="#6E6E96" p-id="3367"></path><path d="M721.900647 177.962337h-103.443921a17.240654 17.240654 0 0 1 0-34.481308h103.443921a17.240654 17.240654 0 0 1 0 34.481308z" fill="#6E6E96" p-id="3368"></path></svg>