<?xml version="1.0" standalone="no"?><!DOCTYPE svg PUBLIC "-//W3C//DTD SVG 1.1//EN" "http://www.w3.org/Graphics/SVG/1.1/DTD/svg11.dtd"><svg t="1647743216863" class="icon" viewBox="0 0 1024 1024" version="1.1" xmlns="http://www.w3.org/2000/svg" p-id="27204" xmlns:xlink="http://www.w3.org/1999/xlink" width="200" height="200"><defs><style type="text/css">@font-face { font-family: feedback-iconfont; src: url("//at.alicdn.com/t/font_1031158_u69w8yhxdu.woff2?t=1630033759944") format("woff2"), url("//at.alicdn.com/t/font_1031158_u69w8yhxdu.woff?t=1630033759944") format("woff"), url("//at.alicdn.com/t/font_1031158_u69w8yhxdu.ttf?t=1630033759944") format("truetype"); }
</style></defs><path d="M232.32 212.906667m21.333333 0l85.333334 0q21.333333 0 21.333333 21.333333l0 64q0 21.333333-21.333333 21.333333l-85.333334 0q-21.333333 0-21.333333-21.333333l0-64q0-21.333333 21.333333-21.333333Z" fill="#FBDEB5" p-id="27205"></path><path d="M149.333333 512h725.333334v256a42.666667 42.666667 0 0 1-42.666667 42.666667H192a42.666667 42.666667 0 0 1-42.666667-42.666667V512z" fill="#F4D5E6" p-id="27206"></path><path d="M192 261.12h640a42.666667 42.666667 0 0 1 42.666667 42.666667v234.666666H149.333333v-234.666666a42.666667 42.666667 0 0 1 42.666667-42.666667z" fill="#D8E1F3" p-id="27207"></path><path d="M528 450.346667l-17.28 17.706666-17.706667-17.28a90.88 90.88 0 0 0-121.6-7.466666 87.893333 87.893333 0 0 0-4.693333 129.706666l21.333333 21.333334 71.253334 69.973333a75.946667 75.946667 0 0 0 106.666666-1.066667l69.973334-71.253333 21.333333-21.333333a87.893333 87.893333 0 0 0-7.04-129.493334 90.88 90.88 0 0 0-122.24 9.173334z" fill="#FBDEB5" p-id="27208"></path><path d="M754.986667 378.88m-42.666667 0a42.666667 42.666667 0 1 0 85.333333 0 42.666667 42.666667 0 1 0-85.333333 0Z" fill="#FBDEB5" p-id="27209"></path><path d="M371.84 261.12h-21.333333V234.666667a10.666667 10.666667 0 0 0-10.666667-10.666667h-85.333333a10.666667 10.666667 0 0 0-10.666667 10.666667v26.88h-21.333333V234.666667a32 32 0 0 1 32-32h85.333333a32 32 0 0 1 32 32zM832 821.76H192A53.333333 53.333333 0 0 1 138.666667 768V527.786667H341.333333v21.333333H160V768A32 32 0 0 0 192 800.426667h640A32 32 0 0 0 864 768V549.12H682.666667v-21.333333h202.666666V768a53.333333 53.333333 0 0 1-53.333333 53.76z" fill="#952D2E" p-id="27210"></path><path d="M885.333333 546.986667h-21.333333v-243.2a32 32 0 0 0-32-32H192a32 32 0 0 0-32 32v243.2h-21.333333v-243.2a53.546667 53.546667 0 0 1 53.333333-53.333334h640a53.546667 53.546667 0 0 1 53.333333 53.333334z" fill="#952D2E" p-id="27211"></path><path d="M513.066667 695.68a85.333333 85.333333 0 0 1-60.586667-24.746667l-92.373333-90.453333a98.56 98.56 0 0 1 5.12-145.28 101.546667 101.546667 0 0 1 136.106666 7.893333l10.24 9.813334 9.813334-10.026667a101.546667 101.546667 0 0 1 135.893333-10.453333 97.493333 97.493333 0 0 1 35.84 71.04 99.2 99.2 0 0 1-27.946667 74.24l-90.453333 92.16a85.333333 85.333333 0 0 1-61.653333 25.813333zM426.666667 433.92a74.026667 74.026667 0 0 0-48.426667 17.493333 77.226667 77.226667 0 0 0-4.053333 113.92l92.373333 90.453334a64 64 0 0 0 46.08 18.56 64 64 0 0 0 46.08-19.413334l90.453333-92.16a77.866667 77.866667 0 0 0 21.333334-58.24A76.16 76.16 0 0 0 643.626667 448a80.213333 80.213333 0 0 0-106.666667 8.96L512 483.2l-25.6-24.96a85.333333 85.333333 0 0 0-59.733333-24.32zM755.84 432.213333a53.333333 53.333333 0 1 1 53.333333-53.333333 53.333333 53.333333 0 0 1-53.333333 53.333333z m0-85.333333a32 32 0 1 0 32 32 32 32 0 0 0-32-32z" fill="#952D2E" p-id="27212"></path></svg>