<?xml version="1.0" standalone="no"?><!DOCTYPE svg PUBLIC "-//W3C//DTD SVG 1.1//EN" "http://www.w3.org/Graphics/SVG/1.1/DTD/svg11.dtd"><svg t="1647744333214" class="icon" viewBox="0 0 1030 1024" version="1.1" xmlns="http://www.w3.org/2000/svg" p-id="1804" xmlns:xlink="http://www.w3.org/1999/xlink" width="201.171875" height="200"><defs><style type="text/css">@font-face { font-family: feedback-iconfont; src: url("//at.alicdn.com/t/font_1031158_u69w8yhxdu.woff2?t=1630033759944") format("woff2"), url("//at.alicdn.com/t/font_1031158_u69w8yhxdu.woff?t=1630033759944") format("woff"), url("//at.alicdn.com/t/font_1031158_u69w8yhxdu.ttf?t=1630033759944") format("truetype"); }
</style></defs><path d="M516.369936 0.306548C234.41121 0.306548 5.498293 229.225987 5.498293 511.184713c0 281.958726 228.912917 510.871643 510.871643 510.871644s510.871643-228.912917 510.871644-510.871644S798.328662 0.306548 516.369936 0.306548z m0 21.745325c269.957707 0 489.132841 219.168611 489.132841 489.13284 0 269.957707-219.175134 489.132841-489.132841 489.132841S27.237096 781.14242 27.237096 511.184713c0-269.964229 219.175134-489.132841 489.13284-489.13284z" fill="#D172F2" p-id="1805"></path><path d="M93.81014 354.082242c32.389707-87.098701 90.90772-161.524586 166.005401-213.735541a10.879185 10.879185 0 0 0-12.411923-17.851516c-78.70451 54.722038-140.027108 132.728662-173.969121 224.008153a10.872662 10.872662 0 0 0 20.375643 7.578904zM307.473936 110.083261a447.905427 447.905427 0 0 1 92.610039-35.592153 10.86614 10.86614 0 1 0-5.504816-21.027872 469.689885 469.689885 0 0 0-97.097376 37.314038 10.872662 10.872662 0 0 0 9.992153 19.305987z" fill="#D172F2" p-id="1806"></path><path d="M498.531465 538.076127c190.77707 0 176.304102-96.725605 309.293656 0 48.949809 35.605197 170.753631-91.214268 170.753631-26.891414 0 255.099924-207.108892 462.208815-462.208816 462.208816-255.099924 0-462.208815-207.108892-462.208815-462.208816 0-105.348076 65.633834-14.812127 136.413758-82.422216 140.646726-134.339669 158.198217 109.313631 307.956586 109.31363z" fill="#D172F2" fill-opacity=".3" p-id="1807"></path><path d="M276.349554 696.522191h74.654166V562.215134h50.012942c80.302471 0 144.364433-38.76851 144.364434-125.078013 0-89.368459-63.559745-118.444841-146.386344-118.444841H276.349554v377.829911z m74.654166-193.986038V378.377783h42.434038c51.519592 0 78.802344 14.81865 78.802344 58.759338 0 43.425427-24.752102 65.399032-76.278217 65.399032h-44.958165zM602.118522 696.528713h62.705325V551.329427c13.755516-35.252994 36.544408-47.860586 55.459057-47.860586 9.887796 0 16.762293 1.304459 24.928204 3.913376l11.17921-55.165555c-7.304968-3.045911-15.04693-5.217834-28.371974-5.217834-24.934726 0-50.723873 17.375389-68.347108 49.086777h-1.715363l-4.298191-43.001478h-51.53916v243.444586z" fill="#D172F2" p-id="1808"></path><path d="M737.938752 298.86451m-15.920918 0a15.920917 15.920917 0 1 0 31.841835 0 15.920917 15.920917 0 1 0-31.841835 0Z" fill="#D172F2" p-id="1809"></path><path d="M722.017834 168.353427a31.026548 31.026548 0 0 0-31.00698 31.013503 31.026548 31.026548 0 0 0 31.00698 31.006981 31.026548 31.026548 0 0 0 31.006981-31.006981 31.026548 31.026548 0 0 0-31.006981-31.013503z m0 10.872662a20.153885 20.153885 0 0 1 20.140841 20.140841 20.140841 20.140841 0 1 1-20.140841-20.140841zM837.618955 301.838675a43.516739 43.516739 0 0 0-43.497172 43.497172 43.516739 43.516739 0 0 0 43.497172 43.497172 43.523261 43.523261 0 0 0 43.497172-43.497172 43.516739 43.516739 0 0 0-43.497172-43.497172z m0 10.86614a32.644076 32.644076 0 0 1 32.62451 32.631032 32.644076 32.644076 0 0 1-32.62451 32.62451 32.644076 32.644076 0 0 1-32.631031-32.62451 32.650599 32.650599 0 0 1 32.631031-32.631032zM804.003057 227.523669h-8.56377a3.685096 3.685096 0 0 0 0 7.357146h8.56377v8.563771a3.678573 3.678573 0 1 0 7.357147 0v-8.563771h8.563771a3.685096 3.685096 0 0 0 0-7.357146h-8.563771v-8.563771a3.685096 3.685096 0 0 0-7.357147 0v8.563771zM661.040917 263.350624h-8.563771a3.678573 3.678573 0 1 0 0 7.350624h8.563771v8.563771a3.678573 3.678573 0 1 0 7.357147 0v-8.563771h8.56377a3.678573 3.678573 0 1 0 0-7.350624h-8.56377v-8.56377a3.678573 3.678573 0 1 0-7.357147 0v8.56377z" fill="#D172F2" p-id="1810"></path></svg>