<?xml version="1.0" standalone="no"?><!DOCTYPE svg PUBLIC "-//W3C//DTD SVG 1.1//EN" "http://www.w3.org/Graphics/SVG/1.1/DTD/svg11.dtd"><svg t="1647744304124" class="icon" viewBox="0 0 1030 1024" version="1.1" xmlns="http://www.w3.org/2000/svg" p-id="1353" xmlns:xlink="http://www.w3.org/1999/xlink" width="201.171875" height="200"><defs><style type="text/css">@font-face { font-family: feedback-iconfont; src: url("//at.alicdn.com/t/font_1031158_u69w8yhxdu.woff2?t=1630033759944") format("woff2"), url("//at.alicdn.com/t/font_1031158_u69w8yhxdu.woff?t=1630033759944") format("woff"), url("//at.alicdn.com/t/font_1031158_u69w8yhxdu.ttf?t=1630033759944") format("truetype"); }
</style></defs><path d="M513.90451 0.306548C231.945783 0.306548 3.026344 229.225987 3.026344 511.184713c0 281.958726 228.919439 510.871643 510.878166 510.871644 281.958726 0 510.871643-228.912917 510.871643-510.871644S795.863236 0.306548 513.90451 0.306548z m0 21.745325c269.957707 0 489.132841 219.168611 489.13284 489.13284 0 269.957707-219.175134 489.132841-489.13284 489.132841-269.964229 0-489.132841-219.175134-489.132841-489.132841 0-269.964229 219.168611-489.132841 489.132841-489.13284z" fill="#35A6F1" p-id="1354"></path><path d="M93.229656 354.082242c32.383185-87.098701 90.901197-161.524586 165.998879-213.735541a10.872662 10.872662 0 0 0-12.405401-17.851516c-78.711032 54.722038-140.033631 132.728662-173.969121 224.008153a10.872662 10.872662 0 0 0 20.375643 7.578904zM306.893452 110.083261a447.990217 447.990217 0 0 1 92.603516-35.592153 10.872662 10.872662 0 0 0-5.498293-21.027872 469.748586 469.748586 0 0 0-97.103898 37.314038 10.872662 10.872662 0 1 0 9.998675 19.305987z" fill="#35A6F1" p-id="1355"></path><path d="M496.059516 538.076127c190.783592 0 176.310624-96.725605 309.293656 0 48.956331 35.605197 170.760153-91.214268 170.760153-26.891414 0 255.099924-207.108892 462.208815-462.208815 462.208816-255.099924 0-462.208815-207.108892-462.208816-462.208816 0-105.348076 65.627312-14.812127 136.407236-82.422216 140.653248-134.339669 158.204739 109.313631 307.956586 109.31363z" fill="#35A6F1" fill-opacity=".3" p-id="1356"></path><path d="M254.43465 696.522191h74.654165V562.215134h50.006421c80.302471 0 144.370955-38.76851 144.370955-125.078013 0-89.368459-63.559745-118.444841-146.386344-118.444841H254.43465v377.829911z m74.654165-193.986038V378.377783h42.434039c51.519592 0 78.795822 14.81865 78.795821 58.759338 0 43.425427-24.752102 65.399032-76.271694 65.399032h-44.958166zM660.806115 703.670624c73.728 0 112.568255-40.294726 112.568254-90.333758 0-53.124076-41.364382-72.025682-78.704509-86.32907-29.819924-11.237911-57.611414-18.901605-57.611414-39.844688 0-16.351389 12.124943-27.589299 37.392306-27.589299 21.230064 0 40.914344 10.220433 61.087796 24.523822l33.296306-45.440816c-23.708535-17.851516-54.98293-35.194293-96.399491-35.194293-63.624968 0-104.982828 36.218293-104.982828 87.783542 0 47.508382 41.35786 69.475465 77.184815 83.270114 29.813401 11.74665 59.124586 21.451822 59.124586 42.910166 0 17.877605-12.633682 30.139516-40.933911 30.139516-26.271796 0-50.482548-11.237911-75.704254-31.163516l-33.811567 46.973554c27.758879 23.46721 69.625478 40.294726 107.493911 40.294726z" fill="#35A6F1" p-id="1357"></path><path d="M735.473325 298.86451m-15.920917 0a15.920917 15.920917 0 1 0 31.841834 0 15.920917 15.920917 0 1 0-31.841834 0Z" fill="#35A6F1" p-id="1358"></path><path d="M719.552408 168.353427a31.026548 31.026548 0 0 0-31.006981 31.013503 31.026548 31.026548 0 0 0 31.006981 31.006981 31.026548 31.026548 0 0 0 31.006981-31.006981 31.026548 31.026548 0 0 0-31.006981-31.013503z m0 10.872662a20.140841 20.140841 0 0 1 0 40.275159 20.147363 20.147363 0 0 1-20.140841-20.134318 20.153885 20.153885 0 0 1 20.140841-20.140841zM835.147006 301.838675a43.516739 43.516739 0 0 0-43.497172 43.497172 43.523261 43.523261 0 0 0 43.497172 43.497172 43.516739 43.516739 0 0 0 43.497172-43.497172 43.516739 43.516739 0 0 0-43.497172-43.497172z m0 10.86614a32.650599 32.650599 0 0 1 32.631032 32.631032 32.644076 32.644076 0 0 1-32.631032 32.62451 32.637554 32.637554 0 0 1-32.624509-32.62451 32.644076 32.644076 0 0 1 32.624509-32.631032zM801.531108 227.523669h-8.56377a3.685096 3.685096 0 0 0 0 7.357146h8.56377v8.563771a3.685096 3.685096 0 0 0 7.357147 0v-8.563771h8.56377a3.678573 3.678573 0 1 0 0-7.357146h-8.56377v-8.563771a3.678573 3.678573 0 1 0-7.357147 0v8.563771z" fill="#35A6F1" p-id="1359"></path><path d="M658.57549 263.350624H650.01172a3.672051 3.672051 0 1 0 0 7.350624h8.56377v8.563771a3.672051 3.672051 0 1 0 7.357147 0v-8.563771h8.563771a3.678573 3.678573 0 1 0 0-7.350624h-8.563771v-8.56377a3.678573 3.678573 0 1 0-7.357147 0v8.56377z" fill="#35A6F1" p-id="1360"></path></svg>