<?xml version="1.0" standalone="no"?><!DOCTYPE svg PUBLIC "-//W3C//DTD SVG 1.1//EN" "http://www.w3.org/Graphics/SVG/1.1/DTD/svg11.dtd"><svg t="1647744014689" class="icon" viewBox="0 0 1024 1024" version="1.1" xmlns="http://www.w3.org/2000/svg" p-id="1735" xmlns:xlink="http://www.w3.org/1999/xlink" width="200" height="200"><defs><style type="text/css">@font-face { font-family: feedback-iconfont; src: url("//at.alicdn.com/t/font_1031158_u69w8yhxdu.woff2?t=1630033759944") format("woff2"), url("//at.alicdn.com/t/font_1031158_u69w8yhxdu.woff?t=1630033759944") format("woff"), url("//at.alicdn.com/t/font_1031158_u69w8yhxdu.ttf?t=1630033759944") format("truetype"); }
</style></defs><path d="M725.49667 627.881486a23.088178 23.088178 0 0 1-32.628985 0l-127.752935-127.7447c-4.327747-4.331864-6.707801-10.121409-6.707801-16.310375s2.380055-11.986746 6.707801-16.310374l29.911275-29.911276a23.100531 23.100531 0 0 1 32.628985 0l127.7447 127.748818a23.088178 23.088178 0 0 1 0 32.628985l-29.90304 29.898922z m51.648834-8.149011c10.141998-10.13788 15.71742-23.652308 15.71742-38.060286 0-14.40386-5.575422-27.922406-15.71742-38.056168l-127.7447-127.748818c-20.992247-20.988129-55.140679-20.988129-76.120572 0l-29.90304 29.907158c-10.13788 10.133762-15.71742 23.656426-15.71742 38.064404s5.57954 27.918289 15.71742 38.056168l127.7447 127.7447a53.468876 53.468876 0 0 0 38.064404 15.71742c14.399743 0 27.918289-5.583658 38.056168-15.71742l29.90304-29.907158zM212.397233 157.330674L59.567251 4.504809a15.383883 15.383883 0 0 0-21.749911 21.749912l152.829982 152.829982a15.392118 15.392118 0 0 0 21.749911 0 15.388001 15.388001 0 0 0 0-21.754029z" fill="#6E6E96" p-id="1736"></path><path d="M362.781277 554.906868c-18.756313 17.483931-55.091266 43.800418-111.73492 54.271836 0 0-30.808943 6.699566-22.717581 34.955509l25.47235 89.013221c8.449606 29.532443 45.14692 24.0682 45.14692 24.068201 37.347917-5.369535 97.33106-21.815795 155.69593-70.713978L362.781277 554.906868z" fill="#B1B1C2" p-id="1737"></path><path d="M352.297507 543.65308c-19.019849 17.739231-52.505324 40.876822-104.042979 50.392923-0.160592 0.024706-0.317066 0.061766-0.47354 0.09059-2.13299 0.452952-21.124015 5.003056-30.808944 21.194017-3.973621 6.641917-7.790767 17.763938-3.421843 33.028406l25.47235 89.000868c9.619045 33.613125 44.89162 37.632041 62.198488 35.050217 41.15271-5.917195 102.968248-23.586424 163.305517-74.131703a15.379765 15.379765 0 0 0 2.734181-20.592826l-91.866817-131.598906a15.33447 15.33447 0 0 0-10.990253-6.485444 15.441531 15.441531 0 0 0-12.10616 4.051858z m92.472125 131.055365c-54.786553 45.904584-110.726074 61.926717-148.003989 67.283899-2.392408 0.321184-23.652308 2.73418-28.177707-13.077948L243.115586 639.897056c-1.601802-5.587775-0.238829-7.939006 0.214123-8.69667 2.235934-3.841853 8.466077-6.398971 11.134373-7.028985-0.259418 0.061766-0.354126 0.086473-0.621779 0.123532 58.826058-10.879074 97.413415-37.623806 119.426862-58.138394a15.359176 15.359176 0 0 1-12.10616 4.035386 15.33447 15.33447 0 0 1-10.986135-6.489561l91.862699 131.598907a15.379765 15.379765 0 0 1 2.730063-20.592826z" fill="#6E6E96" p-id="1738"></path><path d="M801.851954 719.040051l-24.220556-24.220556 13.440309-13.436191-278.985234-278.989352-13.444427 13.440309-49.400547-49.404665-52.303555 52.299437 49.404665 49.404665-39.670323 39.670323 278.989351 278.985234 39.674441-39.670323 24.208204 24.216439z" fill="#B1B1C2" p-id="1739"></path><path d="M468.269583 423.423259l301.801641 301.80164 10.129645-36.81261-292.433779-287.298955z" fill="#FFFFFF" opacity=".29" p-id="1740"></path><path d="M812.722792 708.165096l-24.216438-24.216439a15.367412 15.367412 0 0 1 0 21.741676l13.444426-13.444427a15.367412 15.367412 0 0 0 0-21.741676L522.961428 391.514879a15.383883 15.383883 0 0 0-21.749911 0l-13.440309 13.440308a15.388001 15.388001 0 0 1 21.754029 0L460.116455 355.554641a15.383883 15.383883 0 0 0-21.749912 0L386.067106 407.854078a15.400354 15.400354 0 0 0 0 21.754029l49.404665 49.404664a15.383883 15.383883 0 0 1 0-21.749911l-39.670323 39.670323a15.383883 15.383883 0 0 0 0 21.749912l278.989351 278.985234a15.367412 15.367412 0 0 0 21.741676 0l39.674442-39.666206a15.37153 15.37153 0 0 1-21.745794 0l24.212321 24.212321a15.375647 15.375647 0 0 0 21.745794 0.004118l52.303554-52.291202a15.412707 15.412707 0 0 0 4.508927-10.883191 15.437414 15.437414 0 0 0-4.508927-10.879073z m-52.303554 52.299437l-24.212321-24.212321a15.37153 15.37153 0 0 0-21.745794 0l-39.670324 39.670323a15.367412 15.367412 0 0 1 21.741676 0L417.551359 496.929065a15.383883 15.383883 0 0 1 0 21.749912l39.670323-39.670323a15.383883 15.383883 0 0 0 0-21.749912L407.8129 407.854078a15.379765 15.379765 0 0 1 0 21.754029L460.116455 377.30867a15.383883 15.383883 0 0 1-21.749912 0l49.404665 49.404664a15.388001 15.388001 0 0 0 21.754029 0l13.440309-13.444426a15.383883 15.383883 0 0 1-21.749911 0l278.993469 278.985234a15.367412 15.367412 0 0 1 0-21.741676l-13.444427 13.444426a15.367412 15.367412 0 0 0 0 21.741676l24.216439 24.220557c-2.882419-2.878301-4.504809-6.790156-4.504809-10.874956s1.62239-7.984301 4.504809-10.883191l-52.303554 52.291202a15.375647 15.375647 0 0 1 21.741676 0.012353z" fill="#6E6E96" p-id="1741"></path><path d="M659.192794 773.28718c7.687824-0.09059 16.545086 23.421715 26.472961 13.497958L406.676403 507.799903l-29.413028 29.417147s-5.369535 7.514879-16.582146 17.776291l91.829757 131.549493c0.391185-0.321184 0.774135-0.683545 1.165321-1.012964l92.789191 92.785073 77.10883 29.297732c-0.016471 0.016471 12.567348-34.049606 35.618466-34.325495z m-140.85559-36.153772l-28.095351-28.091233c-15.980955-15.989191-12.686762-32.530159-0.54766-44.677498 12.134985-12.134985 28.692424-15.437414 44.67338 0.54766l28.091233 28.091234c15.989191 15.980955 11.447322 35.144925-0.69178 47.275792-12.134985 12.14322-27.452984 12.839119-43.429822-3.145955z" fill="#B1B1C2" p-id="1742"></path><path d="M659.373975 788.65871c-3.557729 0.053531-5.575422-1.49474-5.600129-1.511211 0.683545 0.535306 2.371819 2.433585 3.491845 3.689496 5.060705 5.678366 11.974393 13.452662 22.692874 13.769729 4.274216 0.12765 10.623774-0.971787 16.578028-6.942513a15.37153 15.37153 0 0 0 0.008236-21.758147l-278.99347-278.976999a15.383883 15.383883 0 0 0-21.749911 0l-29.413029 29.417147a15.317999 15.317999 0 0 0-1.634744 1.939456c-0.008235 0.012353-4.780698 6.518385-14.457391 15.375648a15.388001 15.388001 0 0 0-2.22358 20.152228l91.829757 131.549493a15.392118 15.392118 0 0 0 10.492006 6.431912 15.350941 15.350941 0 0 0 11.85086-3.327135c0.461187-0.38295 0.848255-0.724723 1.128262-0.971787l0.230593-0.201769a15.29741 15.29741 0 0 1-20.802831-0.872962l92.789191 92.785074c1.535918 1.540035 3.376548 2.725945 5.406595 3.504198l77.108831 29.297732a15.359176 15.359176 0 0 1-9.569632-11.154962 15.355059 15.355059 0 0 1 4.167154-14.09503 15.375647 15.375647 0 0 1 19.213383-2.050635 15.293293 15.293293 0 0 1 6.081905 18.274537c2.837124-7.568409 12.188515-24.208203 21.375197-24.3235z m-30.347757 4.587164l-77.112948-29.289496c2.034164 0.774135 3.870677 1.968281 5.406595 3.508316l-92.789191-92.785074a15.375647 15.375647 0 0 0-20.798713-0.872961c-0.312948 0.259418-0.576484 0.498247-0.786489 0.687663l-0.234711 0.201769c3.298311-2.812418 7.535467-4.023034 11.838507-3.471256s8.070774 2.981245 10.553772 6.534856L373.273283 546.210198a15.392118 15.392118 0 0 1-2.223581 20.156345c12.056748-11.043783 18.064533-19.287502 18.711019-20.176934-0.494129 0.683545-1.037671 1.330031-1.634744 1.931221l29.413029-29.417147a15.375647 15.375647 0 0 1-21.749912 0l278.989352 278.985234a15.37153 15.37153 0 0 1-4.517162-10.883191c0-4.072447 1.630626-7.980183 4.52128-10.879073 2.363584-2.371819 7.49429-2.623001 9.738459-1.087084-0.89355-0.609426-3.018305-3.001834-4.294805-4.434808-4.72305-5.316005-11.212611-12.608525-21.22284-12.484993-35.087277 0.428245-50.21586 45.40222-50.347628 45.863407a15.379765 15.379765 0 1 0 29.935982 0.63825 15.342705 15.342705 0 0 0-9.565514-11.175551z" fill="#6E6E96" p-id="1743"></path><path d="M529.21216 726.258453l-28.095351-28.095352c-4.208332-4.204214-6.341322-8.173717-6.341322-11.784977 0-4.414219 3.150072-8.494901 5.789544-11.130255 7.844298-7.84018 14.700338-7.67547 22.923468 0.543542l28.087116 28.087116c3.845971 3.854206 5.789545 7.852533 5.789545 11.929097-0.008235 4.533634-2.363584 9.483159-6.47309 13.600901-2.985363 2.981245-5.818369 4.484221-8.437253 4.484221-3.615377 0-8.321956-2.713592-13.242657-7.634293z m43.421586 24.904101c9.989641-9.985524 15.490944-22.544636 15.503298-35.350812 0-12.357343-5.118353-24.002316-14.803282-33.687245l-28.082998-28.087116c-20.337526-20.337526-46.411066-20.555766-66.423291-0.547659-9.680811 9.676693-14.799164 21.037542-14.799164 32.867814 0 8.305485 2.660061 20.848126 15.350941 33.543123l28.091234 28.091234c11.047901 11.052019 22.820524 16.639794 35.000804 16.639794 10.907898 0.016471 21.342255-4.653048 30.162458-13.469133z" fill="#6E6E96" p-id="1744"></path><path d="M855.197298 1008.620235l-100.032299-170.787454 44.298665-44.294547 135.407817 135.403699z" fill="#B1B1C2" p-id="1745"></path><path d="M868.456426 1000.854174l-100.024063-170.795689a15.37153 15.37153 0 0 1-2.396526 18.636899l44.302783-44.29043a15.37153 15.37153 0 0 1-21.745794 0l135.407817 135.4037a15.375647 15.375647 0 0 1 0-21.75403l-79.678301 79.68242a15.350941 15.350941 0 0 1 24.134084 3.11713z m77.285893-82.787196l-135.407817-135.407818a15.37153 15.37153 0 0 0-21.745794 0l-44.298665 44.298665a15.363294 15.363294 0 0 0-2.396525 18.641017l100.028181 170.791571c2.404761 4.113624 6.584269 6.876629 11.307318 7.477819s9.466688-1.012964 12.830883-4.377159l79.682419-79.690655a15.363294 15.363294 0 0 0 0-21.73344z" fill="#6E6E96" p-id="1746"></path><path d="M181.402992 182.860672L344.148496 345.602059a22.602284 22.602284 0 1 0 31.966029-31.966029L213.36902 150.890526c-8.828438-8.828438-20.234583-5.921313-29.06302 2.911243-8.82432 8.820203-11.731446 20.234583-2.903008 29.058903z" fill="#B1B8C2" p-id="1747"></path><path d="M170.528036 193.735628L333.269423 356.472897a37.74322 37.74322 0 0 0 26.860029 11.126138 37.706161 37.706161 0 0 0 26.855911-11.126138c14.803281-14.807399 14.803281-38.900306 0-53.707705L224.235741 140.019688c-14.103265-14.099147-34.996687-12.905002-50.812933 2.911243-6.942512 6.942512-11.233199 14.967991-12.419108 23.219946-1.453563 10.183175 1.927103 19.987518 9.524336 27.584751z m21.749912-21.749911c-1.820042-1.815924 0.572366-4.982467 2.903007-7.304874 2.330642-2.330642 5.48895-4.727167 7.308992-2.911244l162.745504 162.741387a7.230754 7.230754 0 0 1-5.105999 12.332636 7.206048 7.206048 0 0 1-5.110118-2.116519L192.277948 171.985717z" fill="#6E6E96" p-id="1748"></path><path d="M433.989384 439.807753c-14.955638 14.95152-39.419141 14.95152-54.374779 0L232.010037 292.207303c-14.955638-14.95152-14.955638-39.419141 0-54.378897l36.330835-36.330835c14.95152-14.95152 39.419141-14.95152 54.374779 0l147.60045 147.600451c14.955638 14.955638 14.955638 39.419141 0 54.374778l-36.326717 36.334953z" fill="#B1B1C2" p-id="1749"></path><path d="M468.393116 354.866978L320.792665 207.266527c-14.955638-14.95152-39.423259-14.95152-54.374779 0l-22.511693 22.511694c14.95152-14.930931 39.406788-14.926814 54.358308 0.016471l147.596332 147.60045c14.955638 14.95152 14.955638 39.419141 0 54.374779l-13.852083 13.860319 0.057649-0.053531 36.326717-36.334953c14.955638-14.955638 14.955638-39.419141 0-54.374778z" fill="#FFFFFF" opacity=".29" p-id="1750"></path><path d="M423.118546 428.932797a23.100531 23.100531 0 0 1-32.628985 0L242.889111 281.332347a22.894644 22.894644 0 0 1-6.711919-16.310375c0-6.193083 2.384172-11.990864 6.711919-16.31861l36.330834-36.3226a23.092295 23.092295 0 0 1 32.624868 0l147.596332 147.600451c4.327747 4.327747 6.711919 10.121409 6.711919 16.310375s-2.384172 11.982628-6.707801 16.310374l-36.326717 36.330835z m58.072511-14.585041c10.13788-10.13788 15.721538-23.652308 15.721537-38.060286s-5.583658-27.922406-15.721537-38.060286L333.594724 190.626733c-20.992247-20.988129-55.140679-20.988129-76.12469 0l-36.330835 36.330835c-10.13788 10.141998-15.71742 23.656426-15.71742 38.064404s5.583658 27.922406 15.721538 38.060286L368.743767 450.686826c20.988129 20.984012 55.136561 20.984012 76.12469 0-0.004118-0.008235 36.322599-36.33907 36.3226-36.33907z" fill="#6E6E96" p-id="1751"></path><path d="M799.966029 713.147563l175.33344 175.333441-60.473154 60.473154-175.333441-175.333441z" fill="#B1B1C2" p-id="1752"></path><path d="M925.713624 938.087438l-175.333441-175.329323a15.367412 15.367412 0 0 1 0 21.741676l60.477272-60.473154a15.408589 15.408589 0 0 1-10.879073 4.504809 15.420943 15.420943 0 0 1-10.879074-4.504809l175.337559 175.341676a15.383883 15.383883 0 0 1 0-21.758147l-60.473155 60.464918a15.388001 15.388001 0 0 1 21.749912 0.012354z m60.473154-60.456684l-175.337558-175.341676a15.392118 15.392118 0 0 0-21.758147 0l-60.473154 60.477272a15.37153 15.37153 0 0 0 0 21.745794l175.33344 175.333441a15.37153 15.37153 0 0 0 21.745794 0l60.473154-60.469037c2.878301-2.886537 4.508927-6.790156 4.508927-10.879073s-1.610037-7.984301-4.492456-10.866721z" fill="#6E6E96" p-id="1753"></path><path d="M624.443172 804.804375l-25.760592 116.540325c-5.550716 25.101753-30.150105 17.072157-30.150105 17.072157l-35.499051-13.374425s-17.525109-4.21245-12.344989-27.634164l26.8765-121.555735c-0.008235 0.004118 16.149783-24.121731 76.878237 28.951842z" fill="#B1B1C2" p-id="1754"></path><path d="M609.425768 801.489593l-25.760592 116.536207c-0.370597 1.642979-1.214734 4.550105-2.791829 5.484832-1.992987 1.181792-6.061316 0.737076-7.790767 0.230594 0.658839 0.193534 1.054142 0.354126 1.684156 0.621779-0.263535-0.111179-0.555895-0.234711-0.827666-0.337655l-35.494933-13.36619a16.405083 16.405083 0 0 0-1.811806-0.56413c0.47354 0.111179 0.667074 0.185298 0.675309 0.185298-3.001834-1.103555-2.2977-6.444266-1.614154-9.540807l26.872382-121.559852a15.359176 15.359176 0 0 0-0.152357-7.292521c2.054753 7.704295-2.557118 13.679138-3.660672 14.317388 0.119415-0.074119 14.523275-5.682484 55.548335 30.178929a15.388001 15.388001 0 0 1-4.875406-14.893872z m-76.878237-28.955959l-26.872382 121.559852c-6.188966 27.98829 10.817307 42.791571 23.763487 45.900466a13.366189 13.366189 0 0 1-1.811806-0.564131l35.494933 13.374425c0.21824 0.086473 0.428245 0.152356 0.642368 0.230594 1.799453 0.588837 17.891588 5.456008 32.336625-2.795947 6.246614-3.561847 14.366801-10.895544 17.611581-25.587646l25.756474-116.53209a15.37153 15.37153 0 0 0-4.891877-14.897989c-50.21586-43.899244-77.936497-42.145086-92.336239-32.954287-8.153129 5.213061-11.587325 12.460286-9.425511 19.888692a15.375647 15.375647 0 0 0 2.775358 5.320123 15.309764 15.309764 0 0 1-3.043011-12.942062zM440.034229 373.174457l-37.314975 37.314975-21.749912-21.749911 37.314975-37.314975zM322.394467 255.542931l-37.314975 37.310857-21.749912-21.749912 37.314975-37.310857zM400.252726 333.434132l-37.314975 37.314975-21.749911-21.749911 37.314975-37.314975zM361.80949 294.986778L324.490397 332.301753l-21.749911-21.749911 37.319093-37.314975zM383.477047 587.404086l0.016471-0.016471c-0.646485 0.60119-65.669744 59.122535-148.979894 59.122535v30.75953c95.560431 0 166.793244-64.475599 169.778607-67.226251l-20.815184-22.639343zM407.458774 636.434036l0.016471-0.016471c-0.687663 0.60119-69.552775 59.402541-153.130577 59.402541v30.767766c95.321602 0 170.17391-64.224417 173.311629-66.958597l-20.197523-23.195239z" fill="#6E6E96" p-id="1755"></path><path d="M444.86434 450.678591l301.789287 301.793405h-26.67473l-34.31726 34.317259-274.54219-274.538073z" fill="#6E6E96" opacity=".2" p-id="1756"></path><path d="M786.340421 748.539553l153.587647 153.591764 20.003989-13.633842-156.082998-149.712852z" fill="#FFFFFF" opacity=".29" p-id="1757"></path><path d="M772.879524 762.00045l155.317098 155.312981-15.070934 11.628502-151.870549-155.308862 7.78665-7.790768M558.765192 786.208654s40.045038-3.479492 16.977449 78.541804c-15.338588 54.490076-12.674409 55.169503-12.674409 55.169503l22.923468 14.025029 38.447354-129.144733c0.004118 0.004118-55.153032-76.355284-65.673862-18.591603zM395.381438 540.848898l238.672543 238.676661 19.863986-10.895545-249.263375-249.267492zM293.792633 604.587422s112.616117-10.94084 75.614091 57.668972c-26.139424 48.469937-115.062056 33.551359-115.062056 33.551359s-17.055686 74.329355 62.519672 60.646099c79.575358-13.687373 135.642529-69.911018 135.642528-69.911018l-81.444812-120.200997-77.269423 38.245585zM412.988901 400.668618L265.384333 253.068168c-14.955638-14.95152-14.955638-39.419141 0-54.378897l-27.918288 27.914171c-14.955638 14.959756-14.955638 39.423259 0 54.378897l147.60045 147.604568c14.955638 14.95152 39.419141 14.95152 54.374779 0l27.86064-27.868876c-14.959756 14.897989-39.377964 14.881518-54.313013-0.049413z" fill="#6E6E96" opacity=".2" p-id="1758"></path><path d="M537.060576 715.371144a16.470967 16.470967 0 0 1-11.644974-28.115941l15.873895-15.873894a16.470967 16.470967 0 1 1 23.289946 23.289947l-15.873894 15.873894a16.417436 16.417436 0 0 1-11.644973 4.825994zM457.752871 457.110503l109.120155 109.120155-23.294065 23.294065-109.120155-109.120155z" fill="#6E6E96" p-id="1759"></path></svg>