<?xml version="1.0" standalone="no"?><!DOCTYPE svg PUBLIC "-//W3C//DTD SVG 1.1//EN" "http://www.w3.org/Graphics/SVG/1.1/DTD/svg11.dtd"><svg t="1647743959807" class="icon" viewBox="0 0 1024 1024" version="1.1" xmlns="http://www.w3.org/2000/svg" p-id="2757" xmlns:xlink="http://www.w3.org/1999/xlink" width="200" height="200"><defs><style type="text/css">@font-face { font-family: feedback-iconfont; src: url("//at.alicdn.com/t/font_1031158_u69w8yhxdu.woff2?t=1630033759944") format("woff2"), url("//at.alicdn.com/t/font_1031158_u69w8yhxdu.woff?t=1630033759944") format("woff"), url("//at.alicdn.com/t/font_1031158_u69w8yhxdu.ttf?t=1630033759944") format("truetype"); }
</style></defs><path d="M463.558 888h-2V132h2V76H3.558v56h132v108H3.558v540h132v108H3.558v60h460v-60z m-123 0h-128v-108h128v108z m0-648h-128V132h128v108z" fill="#6E6E96" p-id="2758"></path><path d="M469.558 358.668h100v312h-100z" fill="#FFFFFF" p-id="2759"></path><path d="M431.558 0h60v1024h-60z" fill="#FF7878" p-id="2760"></path><path d="M3.558 318h338.436v372H3.558z" fill="#BABAD1" p-id="2761"></path><path d="M3.558 318h338.436v72H3.558z" fill="#6E6E96" opacity=".15" p-id="2762"></path><path d="M830.002 672.28V395.064c0-28.952 22.944-58.556 50.976-65.78l110.532-27.748V142.248a8897.548 8897.548 0 0 1-79.268 19.564l-83.46 20.056c-28.156 6.768-57.6 19.616-65.428 28.556-7.836 8.936-14.228 39.94-14.228 68.896v357.86l-52.616-1.592s-56-1.696-101.308 45.748c-54.912 57.472-63.172 138.688-18.476 181.38 44.704 42.72 132.784 23.412 187.696-34.068-0.024-0.024 65.58-62.32 65.58-156.368z" fill="#FF9191" p-id="2763"></path><path d="M609.65 695.128s-93.284 113.752 30.716 113.752c181 0 169.636-227 169.636-227s57.952 267.488-162.344 303.752c0-0.004-165.876-14.768-38.008-190.504zM810.002 395.064V311.156s5.272-45.36 63.312-63.316c58.052-17.956 98.196-17.956 98.196-17.956l15.124 52.256s-176.632 66.112-176.632 112.924z" fill="#733F3F" opacity=".15" p-id="2764"></path><path d="M850.002 672.28V395.064c0-19.78 16.804-41.472 35.968-46.416l110.412-27.712a20 20 0 0 0 15.128-19.404V142.248a20.08 20.08 0 0 0-24.884-19.4l-79.072 19.512-83.46 20.056c-19.844 4.768-61.228 18.188-75.796 34.812-15.172 17.312-19.18 61.26-19.18 82.084v357.86c0-5.416 2.188-10.584 6.076-14.356a20.04 20.04 0 0 1 14.532-5.636l-52.608-1.592c-2.656-0.084-65.5-1.352-116.384 51.916-34.548 36.152-53.776 82.216-52.764 126.36 0.752 32.916 13.16 62.5 34.936 83.296 20.384 19.476 48.336 29.388 80.844 28.644 47.744-1.084 98.248-24.772 135.116-63.36-0.224 0.236-0.452 0.452-0.692 0.688 2.936-2.788 71.828-69.38 71.828-170.852z m-100.056 142.528c-29.252 30.62-70.296 50.164-107.108 51-15.104 0.348-36.44-2.424-52.3-17.584-14.252-13.608-22.068-32.736-22.584-55.288-0.76-33.612 14.42-69.264 41.696-97.808 38.716-40.528 85.772-39.584 86.248-39.576l52.596 1.596a20.056 20.056 0 0 0 14.552-5.636 19.972 19.972 0 0 0 6.084-14.356V279.308c0-27.892 6.188-51.288 9.5-56.004 0 0-0.08 0.108-0.244 0.292a10.32 10.32 0 0 0-0.084 0.096c4.116-4.176 26.696-15.548 55.156-22.392l83.46-20.052 79.476-19.616a20.08 20.08 0 0 1-24.888-19.396v159.292a20.016 20.016 0 0 1 15.132-19.4l-110.532 27.744c-37.124 9.576-66.108 46.972-66.108 85.18v277.22c0 84.476-58.768 141.268-59.368 141.836l-0.684 0.7z" fill="#6E6E96" p-id="2765"></path><path d="M711.2613 695.202616a29.62 51.472 60.915 1 0-89.962711 50.041759 29.62 51.472 60.915 1 0 89.962711-50.041759Z" fill="#FFFFFF" opacity=".55" p-id="2766"></path></svg>