<?xml version="1.0" standalone="no"?><!DOCTYPE svg PUBLIC "-//W3C//DTD SVG 1.1//EN" "http://www.w3.org/Graphics/SVG/1.1/DTD/svg11.dtd"><svg t="1647744068093" class="icon" viewBox="0 0 1024 1024" version="1.1" xmlns="http://www.w3.org/2000/svg" p-id="2045" xmlns:xlink="http://www.w3.org/1999/xlink" width="200" height="200"><defs><style type="text/css">@font-face { font-family: feedback-iconfont; src: url("//at.alicdn.com/t/font_1031158_u69w8yhxdu.woff2?t=1630033759944") format("woff2"), url("//at.alicdn.com/t/font_1031158_u69w8yhxdu.woff?t=1630033759944") format("woff"), url("//at.alicdn.com/t/font_1031158_u69w8yhxdu.ttf?t=1630033759944") format("truetype"); }
</style></defs><path d="M586.016243 225.388994l131.804866-99.531825c8.883083-6.708873 16.15474-21.308872 16.15474-32.443091V44.536878c0-11.13422-9.109816-20.244036-20.244035-20.244035h-403.463628c-11.13422 0-20.244036 9.109816-20.244035 20.244035v43.111698c0 11.13422 7.308097 25.685632 16.239765 32.333774L447.854749 225.393043" fill="#D9A093" p-id="2046"></path><path d="M477.593237 210.363871L406.731015 103.167654V40.488071h-115.391002v56.080027L440.234894 210.214065z" fill="#F0C9C0" p-id="2047"></path><path d="M522.138213 210.546067l107.374364-107.378413V40.488071h104.463272v70.680026L595.117961 218.518168z" fill="#C99488" p-id="2048"></path><path d="M595.777917 238.312786l131.804866-99.531825c12.883304-9.721186 22.592344-29.228338 22.592344-45.366883V44.536878c0-20.090181-16.345034-36.439264-36.439264-36.439264h-403.463628c-20.090181 0-36.439264 16.349083-36.439264 36.439264v43.111698c0 16.183082 9.785967 35.669991 22.766442 45.326396l141.586785 105.410693a16.199277 16.199277 0 0 0 19.3452-25.981195L315.944614 106.989728c-4.814032-3.583194-9.713088-13.340819-9.713089-19.341152V44.536878c0-2.194453 1.854354-4.048807 4.048807-4.048807H713.739912c2.194453 0 4.048807 1.854354 4.048807 4.048807v48.8772c0 6.032723-4.907154 15.88347-9.717137 19.519299L576.258618 212.465202a16.19118 16.19118 0 1 0 19.519299 25.847584z" fill="#6E6E96" p-id="2049"></path><path d="M278.493148 365.485817v403.597239c0 126.841029 103.783073 230.624101 230.624101 230.624101h5.765502c126.845078 0 230.624101-103.783073 230.624101-230.624101V365.485817" fill="#D9A093" p-id="2050"></path><path d="M343.379331 751.661039V370.882877H277.140846v380.778162c0 119.67464 77.174312 217.582894 171.491274 217.582894h4.291736c10.571435 0 20.920186-1.287521 30.973374-3.643927-109.556671-10.255628-140.517899-107.678025-140.517899-213.938967z" fill="#F0C9C0" p-id="2051"></path><path d="M285.582609 371.3161v26.989348h339.111888v361.611109c0 113.637869-56.756178 206.622773-160.770033 206.622773h-4.724957c-49.986573 0-95.568043-21.507263-129.476803-56.432274 42.026618 57.707648 110.046577 95.422286 186.484007 95.422286h5.765501c126.845078 0 230.624101-103.783073 230.624101-230.624101V371.3161H285.582609z" fill="#C28F83" p-id="2052"></path><path d="M262.297919 365.485817v403.597239c0 136.092553 110.722728 246.81933 246.81933 246.81933h5.765502c136.096602 0 246.81933-110.726777 246.81933-246.81933V365.485817a16.195228 16.195228 0 0 0-32.390457 0v403.597239c0 118.237314-96.191559 214.428873-214.428873 214.428873h-5.765502C390.879935 983.511929 294.688376 887.32037 294.688376 769.083056V365.485817a16.195228 16.195228 0 0 0-32.390457 0z" fill="#6E6E96" p-id="2053"></path><path d="M578.327558 226.968029c69.704263 44.403268 167.175245 118.808196 167.175245 143.356113 0 35.823845-104.544248 64.865939-233.510901 64.865938C383.033347 435.19008 278.493148 406.147987 278.493148 370.324142 278.493148 345.675004 369.963798 270.743731 440.166064 226.409293l138.161494 0.558736z" fill="#D9A093" p-id="2054"></path><path d="M352.549879 400.925026s47.411531-91.296551 116.937646-160.826716h-20.66916S308.166855 299.498359 294.696474 370.320093c-0.008098 0.004049-8.474153 30.604933 57.853405 30.604933z" fill="#F0C9C0" p-id="2055"></path><path d="M526.170825 240.628704s94.167156 110.495995 94.167155 198.019058l120.419621-48.111975s-46.561282-121.464213-155.879073-155.879074l-58.707703 5.971991z" fill="#C28F83" p-id="2056"></path><path d="M343.379331 544.390457s-13.57565-89.073756 170.645073-70.854124c183.325937 18.130558 215.28722-60.477032 215.28722-60.477032s-180.038306 64.639205-385.932293 19.033442v112.297714zM406.731015 40.488071h222.777514v20.069937H406.731015z" fill="#F0C9C0" p-id="2057"></path><path d="M638.679077 381.899681s-118.662439 31.851965-275.509177 0l-10.62407 19.029394s181.799537 46.674648 295.477893 5.615695l-9.344646-24.645089z" fill="#C28F83" p-id="2058"></path><path d="M569.626672 240.628704c85.041144 54.173039 155.717121 114.743193 159.774025 130.703591 0-0.004049-0.089074-0.364393-0.089073-1.008153 0 14.555462-73.939315 48.67071-217.315673 48.67071S294.688376 384.879603 294.688376 370.324142c0 0.485857-0.060732 0.757127-0.060732 0.761176 3.70061-17.150747 77.036653-82.259614 154.186672-130.982959a16.187131 16.187131 0 0 1-8.708984 2.502163l138.161494 0.558735a16.203326 16.203326 0 0 1-8.640154-2.534553z m-138.104811-27.912476C395.774943 235.288327 262.297919 328.192255 262.297919 370.324142c0 55.695391 129.436314 81.061167 249.698032 81.061167 120.265766 0 249.706129-25.365777 249.70613-81.061167 0-12.166665-7.526732-30.799276-63.347636-76.737041-31.568549-25.973098-73.17814-55.982856-111.313854-80.275699a16.174984 16.174984 0 0 0-8.636106-2.534553l-138.169591-0.562784a16.183082 16.183082 0 0 0-8.713033 2.502163z" fill="#6E6E96" p-id="2059"></path><path d="M400.669951 388.430407s24.280696-82.915521 68.817574-147.696434c0 0-95.227943 108.23676-106.317625 141.169757l37.500051 6.526677z" fill="#C28F83" p-id="2060"></path><path d="M477.58514 208.339467l-34.414861-105.171813h186.342298V60.558008H406.731015v42.609646z" fill="#C99488" p-id="2061"></path><path d="M464.843544 690.459271l-68.886404-2.465724c2.162063 39.119574 23.365666 82.644251 59.825173 103.726389l34.431056-59.537708a49.966328 49.966328 0 0 1-25.369825-41.722957z m26.280807-45.848692a49.508813 49.508813 0 0 1 23.632887-5.923405c8.352689 0 16.207375 2.093233 23.122737 5.725014l32.402603-63.910421c-34.965498-17.689238-77.858561-17.968606-114.354508 3.052801l35.196281 61.056011z m52.176977 85.008754l38.313861 58.707703c32.803435-21.438434 54.492895-58.452628 54.529334-100.564271l-71.493835-0.052634c0.012146 0.332002 0.056683 0.647809 0.048585 0.967665-0.024293 16.964502-8.490348 31.908649-21.397945 40.941537z m1.651913-43.366773a28.904434 28.904434 0 1 0-28.932776 28.880141 28.908483 28.908483 0 0 0 28.932776-28.880141z" fill="#6E6E96" p-id="2062"></path><path d="M541.204046 40.488071h88.31258v20.069937H541.204046z" fill="#C99488" opacity=".55" p-id="2063"></path><path d="M465.714037 40.488071h75.490009v20.069937H465.714037z" fill="#C99488" opacity=".24" p-id="2064"></path></svg>