<?xml version="1.0" standalone="no"?><!DOCTYPE svg PUBLIC "-//W3C//DTD SVG 1.1//EN" "http://www.w3.org/Graphics/SVG/1.1/DTD/svg11.dtd"><svg t="1647743927267" class="icon" viewBox="0 0 1340 1024" version="1.1" xmlns="http://www.w3.org/2000/svg" p-id="2452" xmlns:xlink="http://www.w3.org/1999/xlink" width="261.71875" height="200"><defs><style type="text/css">@font-face { font-family: feedback-iconfont; src: url("//at.alicdn.com/t/font_1031158_u69w8yhxdu.woff2?t=1630033759944") format("woff2"), url("//at.alicdn.com/t/font_1031158_u69w8yhxdu.woff?t=1630033759944") format("woff"), url("//at.alicdn.com/t/font_1031158_u69w8yhxdu.ttf?t=1630033759944") format("truetype"); }
</style></defs><path d="M903.318917 112.593346c-226.817154 0-410.693432 183.876278-410.693432 410.698813 0 226.817154 183.876278 410.688051 410.693432 410.688051s410.698813-183.870897 410.698813-410.688051c0-226.822535-183.881659-410.698813-410.698813-410.698813z m-0.005381 542.08821c-72.563624 0-131.394778-58.836534-131.394777-131.394778 0-72.563624 58.831153-131.389397 131.394777-131.389397s131.394778 58.825772 131.394778 131.389397c0 72.558243-58.831153 131.394778-131.394778 131.394778z" fill="#F0F0FF" p-id="2453"></path><path d="M903.318917 960.885521c-241.292212 0-437.598743-196.30115-437.598743-437.593362 0-241.297593 196.306531-437.604124 437.598743-437.604124 241.297593 0 437.604124 196.306531 437.604124 437.604124 0 241.292212-196.306531 437.593362-437.604124 437.593362z m0-821.386864c-211.621034 0-383.788121 172.172467-383.78812 383.793502s172.167086 383.78274 383.78812 383.78274c211.626416 0 383.793502-172.161705 383.793502-383.78274 0-211.626416-172.167086-383.793502-383.793502-383.793502z m-0.005381 542.08821c-87.286211 0-158.300089-71.013878-158.300089-158.300089s71.013878-158.294708 158.300089-158.294708 158.300089 71.008497 158.300089 158.294708-71.013878 158.300089-158.300089 158.300089z m0-262.784174c-57.615033 0-104.489466 46.869052-104.489466 104.484085s46.874433 104.489466 104.489466 104.489467 104.489466-46.874433 104.489467-104.489467c0-57.609652-46.874433-104.484085-104.489467-104.484085z" fill="#6E6E96" p-id="2454"></path><path d="M953.793281 112.679443h28.987782v820.746517h-28.987782z" opacity=".06" p-id="2455"></path><path d="M33.190392 110.193392c0-41.444941 33.911454-75.351014 75.351014-75.351014h740.305018c41.43956 0 75.351014 33.906073 75.351015 75.351014v805.265202c0 41.444941-33.911454 75.351014-75.351015 75.351014H108.541406c-41.43956 0-75.351014-33.906073-75.351014-75.351014V110.193392z" fill="#FF9C9C" p-id="2456"></path><path d="M175.078241 43.850276h53.810622v920.054021h-53.810622z" fill="#6E6E96" p-id="2457"></path><path d="M837.002706 873.421735H298.842672V54.612401h-69.953809v818.814716H126.982307c-39.755288 0-72.278428-32.517759-72.278428-72.278428V918.547323c0 39.749907 32.517759 72.267666 72.278428 72.267666h710.009637c39.749907 0 72.273047-32.517759 72.273047-72.267666v-117.393253c0 39.749907-32.52314 72.267666-72.262285 72.267665z" fill="#6E6E96" opacity=".15" p-id="2458"></path><path d="M298.842672 124.56621h527.344099s71.105356 13.065219 71.105357 71.105356V52.616027L298.842672 34.842378v89.723832z" fill="#FFFFFF" opacity=".3" p-id="2459"></path><path d="M298.842672 350.570824l226.004614-226.004614h-226.004614z" fill="#FFFFFF" opacity=".3" p-id="2460"></path><path d="M60.095703 110.193392c0-12.860739 5.06358-25.000415 14.254434-34.191269s21.335912-14.249053 34.191269-14.249053h740.305018c12.860739 0 25.000415 5.058199 34.19127 14.249053a48.069029 48.069029 0 0 1 14.249053 34.191269v805.265202c0 26.711593-21.73411 48.445703-48.445704 48.445703H108.541406c-26.711593 0-48.445703-21.73411-48.445703-48.445703V110.193392z m-53.810622 805.265202c0 56.388151 45.873556 102.256326 102.256325 102.256325h740.305018c56.388151 0 102.256326-45.862793 102.256326-102.256325V110.193392c0-56.388151-45.862793-102.256326-102.256326-102.256325H108.541406C52.158636 7.937067 6.285081 53.810622 6.285081 110.193392v805.265202z" fill="#6E6E96" p-id="2461"></path><path d="M277.264613 416.531884h178.839603v53.810623H277.264613z" fill="#FFFFFF" p-id="2462"></path><path d="M339.776413 443.437196h53.810622v174.943714h-53.810622zM505.66918 470.342507h117.113439l-26.905311-26.905311v155.028403l26.905311-26.905312H505.66918l26.905311 26.905312v-155.028403l-26.905311 26.905311z m0 155.028403h144.01875v-208.839026H478.763869v208.839026h26.905311zM675.355597 443.437196h53.810622v174.943714h-53.810622z" fill="#FFFFFF" p-id="2463"></path><path d="M702.260908 470.342507h117.129582l-26.905312-26.905311v77.756349l26.905312-26.905311h-117.129582l26.905311 26.905311v-77.756349l-26.905311 26.905311z m0 77.756349h144.034893v-131.566972h-170.940204v131.566972h26.905311z" fill="#FFFFFF" p-id="2464"></path><path d="M952.641734 130.845909h89.852977V909.776192h-89.852977z" fill="#6E6E96" opacity=".15" p-id="2465"></path><path d="M602.872688 347.880292l223.314083-223.314082h-129.145493l-223.314083 223.314082z" fill="#FFFFFF" opacity=".3" p-id="2466"></path></svg>