<?xml version="1.0" standalone="no"?><!DOCTYPE svg PUBLIC "-//W3C//DTD SVG 1.1//EN" "http://www.w3.org/Graphics/SVG/1.1/DTD/svg11.dtd"><svg t="1647744002325" class="icon" viewBox="0 0 1643 1024" version="1.1" xmlns="http://www.w3.org/2000/svg" p-id="1574" xmlns:xlink="http://www.w3.org/1999/xlink" width="320.8984375" height="200"><defs><style type="text/css">@font-face { font-family: feedback-iconfont; src: url("//at.alicdn.com/t/font_1031158_u69w8yhxdu.woff2?t=1630033759944") format("woff2"), url("//at.alicdn.com/t/font_1031158_u69w8yhxdu.woff?t=1630033759944") format("woff"), url("//at.alicdn.com/t/font_1031158_u69w8yhxdu.ttf?t=1630033759944") format("truetype"); }
</style></defs><path d="M1517.149131 884.104144a25.991793 25.991793 0 0 1-22.549602-13.034865l-59.484965-103.447595a25.985298 25.985298 0 0 1 45.047245-25.900867l59.484966 103.447595a25.985298 25.985298 0 0 1-22.497644 38.935732z" fill="#6E6E96" p-id="1575"></path><path d="M1526.17027 880.109903m-42.676679 0a42.676679 42.676679 0 1 0 85.353359 0 42.676679 42.676679 0 1 0-85.353359 0Z" fill="#BDBDD6" p-id="1576"></path><path d="M1526.17027 948.765385c-37.851117 0-68.648988-30.804366-68.648988-68.661977 0-37.851117 30.797871-68.648988 68.648988-68.648988 37.857611 0 68.655483 30.797871 68.655483 68.648988 0 37.857611-30.797871 68.661977-68.655483 68.661977z m0-85.353358a16.710865 16.710865 0 0 0-16.691381 16.691381 16.71736 16.71736 0 0 0 16.691381 16.70437 16.71736 16.71736 0 0 0 16.697876-16.70437 16.710865 16.710865 0 0 0-16.697876-16.691381z" fill="#6E6E96" p-id="1577"></path><path d="M1551.343731 588.569276l-140.928514 87.678461-619.594462-110.422904-34.188105-95.09541c-15.359968-42.722142-65.083397-77.670128-110.461872-77.670127H426.662878c-45.26157 0-82.300849 36.928869-82.521669 82.138482h-82.93733L194.295471 589.933163 41.942778 665.628901l22.010541 60.770916 86.204165 58.692612h1312.09194l143.065271-152.664438-53.970964-43.858715z" fill="#A5C2BA" p-id="1578"></path><path d="M1456.68996 714.144317H144.572041l-86.204164-52.626561-1.792538-4.961952-20.218004 8.761352 22.010542 60.764421 86.204164 58.692612h1312.117919l143.058776-152.657944-34.350473-27.90773z" fill="#96B0A9" p-id="1579"></path><path d="M1539.477912 569.500834l-140.947998 87.671967a22.497644 22.497644 0 0 1 13.684335-3.318792l-619.574978-110.422904a22.406718 22.406718 0 0 1 19.295757 14.788434l-34.181611-95.114894c-18.659276-51.886165-76.462113-92.530003-131.595629-92.530004H426.662878c-57.588512 0-104.681588 46.872256-104.980345 104.486748a22.47816 22.47816 0 0 1 22.458676-22.348266h-82.93733c-7.988482 0-15.379452 4.24104-19.399671 11.144907l-66.914903 114.761364a22.471665 22.471665 0 0 1 10.482447-9.300412L33.019059 645.021216a22.458676 22.458676 0 0 0-12.190553 28.258443l22.010541 60.777411a22.458676 22.458676 0 0 0 10.436984 12.112617l86.191175 58.686117a22.57558 22.57558 0 0 0 10.690278 2.701795h1312.098435c6.215429 0 12.132101-2.571902 16.38613-7.105202l143.039292-152.677428a22.614548 22.614548 0 0 0 6.046567-16.886222 22.432697 22.432697 0 0 0-8.254765-15.912018l-53.983954-43.865209a22.46517 22.46517 0 0 0-26.011277-1.610686z m49.470137 47.567189l-143.039292 152.677428a22.406718 22.406718 0 0 1 16.373141-7.105203H150.163979c3.701979 0 7.39097 0.922248 10.677288 2.688806l-86.191175-58.692611a22.536612 22.536612 0 0 1 10.423995 12.112617l-22.010542-60.764421a22.47816 22.47816 0 0 1-12.190553 28.271432L203.21919 610.547343a22.35476 22.35476 0 0 0 10.456468-9.32639L280.603551 486.518041a22.445686 22.445686 0 0 1-19.399672 11.138412h82.93733a22.452181 22.452181 0 0 0 22.458676-22.341771c0.155873-32.967102 27.121871-59.790216 60.062993-59.790216H646.157788c36.156 0 77.06612 28.758535 89.328116 62.803757l34.18161 95.09541a22.432697 22.432697 0 0 0 19.295757 14.775445l619.594461 110.429398a22.35476 22.35476 0 0 0 13.69083-3.312297l140.935008-87.678462a22.47816 22.47816 0 0 1-26.030761-1.643159l53.996943 43.871704a22.504138 22.504138 0 0 1-8.254764-15.905522 22.601559 22.601559 0 0 1 6.053061-16.892717z" fill="#6E6E96" p-id="1580"></path><path d="M514.412781 303.055731h51.957607V393.059296h-51.957607z" fill="#6E6E96" p-id="1581"></path><path d="M1242.761009 326.326245H540.391585c-2.006863 0-4.000736-0.233809-5.955641-0.688439L41.605054 209.590491a25.978803 25.978803 0 0 1 11.911281-50.58073l489.895286 115.358877h699.349388a25.978803 25.978803 0 0 1 0 51.957607z" fill="#6E6E96" opacity=".25" p-id="1582"></path><path d="M103.733362 692.419542l88.672151-41.234855 69.032175 69.02568 295.145186-94.822632v-39.461802l-271.621379 83.4634L193.918778 599.590783l-117.722948 74.065569z" fill="#B5D4CE" p-id="1583"></path><path d="M70.194727 382.485923a25.978803 25.978803 0 0 1-3.05251-51.775755l466.761162-55.744018 482.075665-193.366728a25.991793 25.991793 0 0 1 33.785434 14.43772 25.991793 25.991793 0 0 1-14.444214 33.785433l-485.25807 194.646185c-2.117272 0.844311-4.331965 1.415845-6.592121 1.682128l-470.170879 56.153183c-1.039152 0.116905-2.078304 0.181852-3.104467 0.181852z" fill="#6E6E96" opacity=".41" p-id="1584"></path><path d="M325.507912 889.981848a25.991793 25.991793 0 0 1-22.549601-13.034865l-75.500898-131.296872a25.985298 25.985298 0 0 1 45.047246-25.900867l75.500897 131.296872a25.985298 25.985298 0 0 1-22.497644 38.935732z" fill="#6E6E96" p-id="1585"></path><path d="M336.971059 891.904279m-54.165805 0a54.165805 54.165805 0 1 0 108.33161 0 54.165805 54.165805 0 1 0-108.33161 0Z" fill="#BDBDD6" p-id="1586"></path><path d="M336.971059 972.042393c-44.189945 0-80.144609-35.948169-80.144608-80.144608s35.954664-80.144609 80.144608-80.144609 80.144609 35.948169 80.144609 80.144609-35.954664 80.144609-80.144609 80.144608z m0-108.325115c-15.541819 0-28.187002 12.645183-28.187001 28.187001s12.645183 28.187002 28.187001 28.187002 28.187002-12.645183 28.187002-28.187002-12.645183-28.187002-28.187002-28.187001z" fill="#6E6E96" p-id="1587"></path><path d="M371.438437 452.024685h261.885822s62.42057 7.449422 62.42057 97.271135c0 0 8.170334-133.771354-78.611859-133.771354h-190.489576s-40.345082-5.384107-55.204957 36.500219z" fill="#B5D4CE" p-id="1588"></path><path d="M981.881865 557.622026l-61.764605 20.581707H631.88893V477.139693h288.22833l61.764605 16.847254z" fill="#A5C2BA" p-id="1589"></path><path d="M654.347606 529.532445h305.075583v28.089581h-305.075583z" fill="#96B0A9" p-id="1590"></path><path d="M728.374206 604.182537a25.978803 25.978803 0 0 1-25.978803-25.978804V477.139693a25.978803 25.978803 0 0 1 51.957607 0v101.06404a25.978803 25.978803 0 0 1-25.978804 25.978804z" fill="#6E6E96" p-id="1591"></path><path d="M974.776662 536.319407l-61.764605 20.588202a22.614548 22.614548 0 0 1 7.105203-1.156057H631.88893a22.458676 22.458676 0 0 1 22.458676 22.452181V477.139693a22.46517 22.46517 0 0 1-22.458676 22.46517h288.22833c-2.019852 0-3.987746-0.272777-5.916673-0.798848l61.7711 16.847254a22.445686 22.445686 0 0 1-16.548498-21.666322v63.635079c0-9.65762 6.176461-18.250109 15.353473-21.302619z m13.015381-64.005277l-61.764605-16.840759a22.536612 22.536612 0 0 0-5.910178-0.792353H631.88893a22.458676 22.458676 0 0 0-22.458675 22.458675v101.06404a22.46517 22.46517 0 0 0 22.458675 22.458676h288.22833c2.416029 0 4.806079-0.389682 7.098708-1.149562l61.764605-20.581707a22.471665 22.471665 0 0 0 15.359968-21.309114V493.986947a22.452181 22.452181 0 0 0-16.548498-21.672817z" fill="#6E6E96" p-id="1592"></path><path d="M662.329593 600.662409l729.699126 119.547958h64.661241l92.919686-104.10356-143.552373 72.604261-570.910185-88.048659z" fill="#AECCC5" p-id="1593"></path><path d="M201.465621 589.010915l74.35783 74.351336 256.475737-77.436318V475.087368H261.203879z" fill="#9BC8E8" p-id="1594"></path><path d="M184.300126 606.169915l74.351336 74.344841a24.270697 24.270697 0 0 0 24.186266 6.07904L539.319959 609.163972a24.296676 24.296676 0 0 0 17.262915-23.238039V475.087368a24.290181 24.290181 0 0 0-24.277192-24.277192H261.203879c-9.027634 0-17.308378 5.007414-21.503954 13.008886l-59.738259 113.930042a24.238224 24.238224 0 0 0 4.33846 28.420811z m76.903753-106.798861h271.095309a24.277192 24.277192 0 0 1-24.277192-24.283686v110.838565a24.277192 24.277192 0 0 1 17.262915-23.23804L268.796184 640.124211a24.296676 24.296676 0 0 1 24.186266 6.072545L218.631115 571.845421a24.296676 24.296676 0 0 1 4.331965 28.440295l59.718775-113.930042a24.212245 24.212245 0 0 1-21.477976 13.01538z" fill="#6E6E96" p-id="1595"></path><path d="M416.803922 620.276405l-49.567557-152.683922a24.270697 24.270697 0 1 0-46.177323 14.983275l49.561062 152.690417a24.277192 24.277192 0 1 0 46.183818-14.98977z" fill="#6E6E96" p-id="1596"></path><path d="M253.533637 606.741449l46.605974-73.909696h207.882385v-33.460699H276.784666l-45.527853 85.113055z" fill="#6E6E96" opacity=".15" p-id="1597"></path></svg>