<?xml version="1.0" standalone="no"?><!DOCTYPE svg PUBLIC "-//W3C//DTD SVG 1.1//EN" "http://www.w3.org/Graphics/SVG/1.1/DTD/svg11.dtd"><svg t="1647742624600" class="icon" viewBox="0 0 1024 1024" version="1.1" xmlns="http://www.w3.org/2000/svg" p-id="8237" xmlns:xlink="http://www.w3.org/1999/xlink" width="200" height="200"><defs><style type="text/css">@font-face { font-family: feedback-iconfont; src: url("//at.alicdn.com/t/font_1031158_u69w8yhxdu.woff2?t=1630033759944") format("woff2"), url("//at.alicdn.com/t/font_1031158_u69w8yhxdu.woff?t=1630033759944") format("woff"), url("//at.alicdn.com/t/font_1031158_u69w8yhxdu.ttf?t=1630033759944") format("truetype"); }
</style></defs><path d="M544.965258 677.785677c-7.991578-7.492104-20.977891-6.493157-27.970522 1.498421l-36.961047 36.461573c-7.492104 7.991578-7.492104 20.478418 0.499474 28.469995 7.492104 7.492104 19.978944 7.492104 27.471048 0l37.46052-37.46052c7.991578-7.991578 7.492104-20.478418 0-28.469995 0 0-0.499474 0-0.499473-0.499474zM304.718455 680.283045l-14.484734 10.488946c-4.994736 3.496315-6.493157 10.988419-2.996842 15.983155 1.498421 1.997894 3.496315 3.496315 5.993683 4.495263l16.982103 5.494209c3.496315 0.998947 6.493157 3.995789 7.492104 7.492104l4.994736 16.982103c1.997894 5.993683 8.491051 9.489998 14.484734 7.492104 2.497368-0.998947 4.495262-2.497368 5.993684-4.495263l10.488945-14.484734c1.997894-2.996842 5.49421-4.994736 9.489999-4.994736h17.981049c6.493157 0 11.487893-4.994736 11.487893-11.487893 0-2.497368-0.998947-4.994736-2.497368-6.99263l-10.488945-13.985261c-2.497368-2.996842-2.996842-6.99263-1.498421-10.488946l5.993683-16.982102c1.997894-5.993683-0.998947-12.48684-6.99263-14.484735-2.497368-0.998947-4.994736-0.998947-7.492104 0l-16.982103 5.49421c-3.496315 0.998947-7.492104 0.499474-10.488946-1.498421l-13.98526-10.488945c-4.994736-3.995789-12.48684-2.497368-15.983156 2.497368-1.498421 1.997894-2.497368 4.495262-2.497368 6.99263v17.98105c0 2.996842-1.997894 6.493157-4.994736 8.990524z" fill="#495FA9" p-id="8238"></path><path d="M1016.967811 767.191452l-264.721009-265.220482c-2.996842-2.996842-6.493157-4.994736-10.488945-5.49421-2.497368-2.497368-5.993683-3.496315-9.489999-3.496315h-56.440517l46.451045-46.451045c7.991578-7.991578 7.991578-20.478418 0-27.970522l-113.380507-112.881034c-7.991578-7.991578-20.478418-7.991578-28.469996 0l-45.452097 45.452098V294.689425c0-4.495262-1.997894-8.990525-5.993684-11.487893-0.499474-4.495262-2.497368-8.491051-5.494209-11.487893l-264.721009-265.220482c-7.991578-7.991578-20.478418-7.991578-28.469995 0L153.877428 83.911565c-7.991578 7.991578-7.991578 20.478418 0 28.469995l264.721008 265.220483c3.496315 3.496315 8.990525 5.993683 13.985261 5.993683h0.499474c2.497368 1.997894 5.993683 2.996842 8.990525 2.996842h57.938938L490.522635 395.583093c-2.497368 0.998947-4.495262 2.497368-5.993683 3.995788-1.997894 1.498421-2.996842 3.995789-3.995789 5.993684l-31.96631 31.96631c-0.998947 0-1.997894 0.499474-2.996842 0.499474l-107.386824 34.463678c-2.996842 0.998947-5.993683 2.497368-7.991578 4.994736L142.389535 664.29989c-2.497368 1.997894-3.995789 4.994736-4.994736 7.991578L103.430594 779.178819c-0.499474 0.998947-0.499474 1.997894-0.499474 2.996841l-30.467889 30.46789c-7.492104 7.991578-7.492104 20.478418 0 27.970522L185.843738 953.495106c7.991578 7.991578 20.478418 7.991578 28.469995 0l30.967364-30.46789c0.499474 0 1.498421 0 1.997894-0.499474l108.885245-30.467889c3.995789-0.998947 7.492104-2.497368 9.989472-5.49421l80.914724-80.41525c7.991578-7.991578 7.991578-20.478418 0-27.970522-7.991578-7.991578-20.478418-7.991578-28.469996 0L350.670027 845.608808l-110.383666-110.383666c-7.991578-7.492104-20.478418-7.492104-28.469996 0.499473-7.492104 7.492104-7.492104 19.978944 0 27.471048L310.712139 862.59091l-64.432095 17.98105-7.991578-7.991578L144.886903 779.178819l29.468942-90.404722 158.333132-157.833658 111.382613 111.882086c7.991578 7.492104 20.478418 7.492104 28.469995-0.499473 7.492104-7.492104 7.492104-19.978944 0-27.471048l-108.385771-108.385772L445.570011 480.493605l101.393141 100.893667-10.988419 38.459468c-2.996842 10.488946 3.496315 21.477365 13.985261 24.474206 10.488946 2.996842 21.477365-3.496315 24.474206-13.985261l13.985261-49.94736c0-0.499474 0.499474-1.498421 0.499474-1.997894l51.445781-51.445781v58.438411c0 1.498421 0 2.497368 0.499473 3.995789-0.998947 6.493157 0.998947 12.986314 5.49421 17.481576l264.221535 265.220482c7.991578 7.991578 20.478418 7.991578 27.970522 0l77.418408-77.917881c8.990525-6.99263 8.990525-19.47947 0.998947-26.971575zM114.419013 826.628811l10.488946-10.488946 13.485787 13.485787 71.424725 71.424725-10.488946 10.488946-84.910512-84.910512z m749.210403-58.438412l-42.455257-42.954729 1.498421-1.498421 47.949466-47.949466 42.455256 42.455256-47.949466 47.949466c-0.998947 0.998947-1.498421 1.498421-1.49842 1.997894z m-14.484735-112.881034l-47.949466 47.949466c-0.499474 0.499474-0.998947 0.998947-0.998947 1.498421l-42.455256-42.95473c0.499474-0.499474 0.998947-0.499474 1.498421-0.998947l47.949466-47.949466 41.955782 42.455256z m-177.313128-132.859978h31.96631l-31.96631 32.465784v-32.465784z m-76.419462-174.81576l84.910513 84.411038-67.92841 67.428937-84.411039-84.910513L595.412091 347.633627z m-28.469995 197.292072l-84.910512-84.411038 16.982102-16.982103 84.910513 84.910513-16.982103 16.482628zM468.046323 355.625204l37.46052-37.46052v37.46052h-37.46052zM366.653182 269.216271l-42.455256-42.455256 0.499473-0.499473 48.948413-48.948413 42.455256 42.455256-48.948412 48.948413-0.499474 0.499473z m-13.985261-113.380507L303.719508 204.784177l-0.499473 0.499473-42.455257-42.455256 0.499474-0.499473 48.948413-48.948413 42.455256 42.455256zM245.281097 48.448939l43.454203 43.953677-48.948413 48.948413-0.499474 0.499474-43.454203-43.953677 49.447887-49.447887z m142.349976 241.745224l0.499474-0.499474 48.948413-48.948413 44.45315 44.952624-49.447886 49.447887-44.453151-44.952624z m351.129942 253.732589l46.950519 47.449992-47.949466 48.44894c-0.499474 0.499474-0.998947 0.998947-0.998947 1.498421l-46.950519-47.449993 48.948413-49.94736z m186.803127 286.697848l-41.456309-41.456309 1.498421-1.498421 47.949466-47.949466 40.956835 41.456309-48.948413 49.447887zM525.485787 198.790493c8.491051 2.497368 15.983155 6.493157 22.975786 11.987367 4.495262 5.993683 8.491051 12.48684 10.488946 19.47947 1.498421 3.995789 5.993683 5.49421 9.989472 3.995789 1.997894-0.998947 2.996842-1.997894 3.995788-3.995789 2.497368-7.492104 6.493157-14.484734 11.487893-20.977891 6.493157-4.495262 13.485787-8.491051 20.977892-10.488946 3.496315-0.998947 5.49421-4.994736 4.495262-8.990524-0.499474-1.997894-2.497368-3.496315-4.495262-4.495263-7.991578-2.497368-14.984208-5.993683-21.976839-10.988419-4.994736-5.993683-8.990525-12.986314-11.487893-20.478418-1.498421-3.995789-5.993683-5.49421-9.989472-3.995789-1.997894 0.998947-2.996842 1.997894-3.995789 3.995789-2.497368 7.492104-5.993683 13.985261-10.988419 19.978944-6.99263 4.994736-14.484734 8.990525-22.476312 11.487893-3.496315 0.998947-5.49421 4.994736-4.495262 8.491051 1.498421 2.996842 3.496315 4.495262 5.494209 4.994736z" fill="#495FA9" p-id="8239"></path><path d="M67.967968 693.269359c3.496315-9.989472 8.491051-18.979997 14.984208-26.971574 7.991578-5.993683 17.481576-10.488946 26.971575-13.485788 4.495262-1.498421 6.99263-6.99263 5.494209-11.487892-0.998947-2.497368-2.996842-4.495262-5.494209-5.49421-9.989472-2.996842-19.47947-7.991578-27.471048-13.985261-6.493157-7.991578-11.487893-16.982102-14.484735-26.472101-1.997894-4.994736-7.492104-6.99263-12.48684-4.994736-2.497368 0.998947-3.995789 2.996842-4.994736 4.994736-2.996842 9.489998-7.991578 18.480523-13.985261 25.972627-5.49421 4.994736-17.481576 10.488946-28.969469 14.484735-4.495262 1.498421-6.99263 6.493157-5.494209 11.487893 0.998947 2.497368 2.996842 4.495262 5.494209 5.494209 11.487893 4.495262 23.974733 9.989472 29.468943 15.483682 5.993683 7.492104 10.488946 15.983155 13.485787 24.97368 1.997894 4.994736 7.492104 6.99263 12.48684 4.994736 1.997894-0.998947 3.995789-2.996842 4.994736-4.994736zM919.570459 577.890957c7.492104 2.497368 14.484734 5.993683 20.478418 10.488946 3.995789 4.994736 7.492104 10.988419 9.489998 16.982102 1.498421 3.496315 5.49421 4.994736 8.990525 3.496315 1.498421-0.499474 2.497368-1.997894 3.496315-3.496315 2.497368-6.493157 5.993683-12.986314 10.488946-18.480523 5.49421-3.995789 11.987366-7.492104 18.979997-9.489998 2.996842-0.998947 4.994736-4.495262 3.995788-7.492105-0.499474-1.997894-1.997894-3.496315-3.995788-3.995788-6.99263-1.997894-13.485787-5.49421-18.979997-9.489999-4.495262-5.49421-7.991578-11.487893-9.989472-17.981049-1.498421-3.496315-5.49421-4.994736-8.990525-3.496316-1.498421 0.499474-2.497368 1.997894-3.496315 3.496316-1.997894 6.493157-5.49421 12.48684-9.989472 17.981049-5.993683 4.495262-12.986314 7.991578-19.978944 9.989472-2.996842 0.998947-4.994736 4.495262-3.995789 7.492104-0.499474 1.498421 1.498421 3.496315 3.496315 3.995789zM671.332079 815.640391c-6.99263-1.997894-13.485787-5.49421-18.979997-9.489998-4.495262-5.49421-7.991578-11.487893-9.989472-17.98105-1.498421-3.496315-5.49421-4.994736-8.990525-3.496315-1.498421 0.499474-2.497368 1.997894-3.496315 3.496315-1.997894 6.493157-5.49421 12.48684-9.989472 17.98105-5.993683 4.495262-12.986314 7.991578-19.978944 9.989472-2.996842 0.998947-4.994736 4.495262-3.995789 7.492104 0.499474 1.997894 1.997894 3.496315 3.995789 3.995789 7.492104 2.497368 14.484734 5.993683 20.478418 10.488946 3.995789 4.994736 7.492104 10.988419 9.489998 16.982102 1.498421 3.496315 5.49421 4.994736 8.990525 3.496315 1.498421-0.499474 2.996842-1.997894 3.496315-3.496315 2.497368-6.493157 5.993683-12.986314 10.488946-18.480523 5.49421-3.995789 11.987366-7.492104 18.979997-9.489999 2.996842-0.998947 4.495262-4.495262 3.496315-7.991577-0.998947-1.498421-2.497368-2.497368-3.995789-3.496316zM690.312076 289.694689c5.49421 0 9.989472-4.495262 9.989472-9.989472s-4.495262-9.989472-9.989472-9.989472-9.989472 4.495262-9.989472 9.989472 4.495262 9.989472 9.989472 9.989472z" fill="#495FA9" p-id="8240"></path><path d="M170.85953 514.45781m-19.978944 0a19.978944 19.978944 0 1 0 39.957888 0 19.978944 19.978944 0 1 0-39.957888 0Z" fill="#495FA9" p-id="8241"></path><path d="M260.764778 279.705217c0-8.491051-6.493157-14.984208-14.984208-14.984208s-14.984208 6.493157-14.984208 14.984208 6.493157 14.984208 14.984208 14.984208 14.984208-6.493157 14.984208-14.984208zM230.796362 382.097305c0-6.99263-5.49421-12.48684-12.48684-12.48684S205.822682 375.104675 205.822682 382.097305s5.49421 12.48684 12.48684 12.48684 12.48684-5.49421 12.48684-12.48684zM105.428488 263.222588c7.492104 2.497368 14.484734 5.993683 20.478418 10.488946 3.995789 4.994736 7.492104 10.988419 9.489998 16.982102 1.498421 3.496315 5.49421 4.994736 8.990525 3.496315 1.498421-0.499474 2.996842-1.997894 3.496315-3.496315 2.497368-6.493157 5.993683-12.986314 10.488946-18.480523 5.49421-3.995789 11.987366-7.492104 18.979997-9.489999 2.996842-0.998947 4.994736-4.495262 3.995789-7.492104-0.499474-1.997894-1.997894-3.496315-3.995789-3.995788-6.99263-1.997894-13.485787-5.49421-18.979997-9.489999-4.495262-5.49421-7.991578-11.487893-9.989472-17.981049-1.498421-3.496315-5.49421-4.994736-8.990525-3.496316-1.498421 0.499474-2.497368 1.997894-3.496315 3.496316a46.950519 46.950519 0 0 1-9.989472 17.481576c-5.993683 4.495262-12.986314 7.991578-19.978944 9.989472-3.496315 0.998947-4.994736 3.995789-4.495263 7.492104 0 1.997894 1.498421 3.496315 3.995789 4.495262zM825.169948 469.505186c8.491051 0 14.984208-6.493157 14.984208-14.984208s-6.493157-14.984208-14.984208-14.984209-14.984208 6.493157-14.984208 14.984209 6.493157 14.984208 14.984208 14.984208zM625.380508 639.32621c0-5.49421-4.495262-9.989472-9.989472-9.989472s-9.989472 4.495262-9.989472 9.989472 4.495262 9.989472 9.989472 9.989472 9.989472-4.495262 9.989472-9.989472zM40.996394 779.178819c-8.491051 0-14.984208 6.493157-14.984208 14.984208s6.493157 14.984208 14.984208 14.984208 14.984208-6.493157 14.984208-14.984208-6.493157-14.984208-14.984208-14.984208zM331.69003 980.46668c-6.99263-1.997894-13.485787-5.49421-18.979997-9.489998-4.495262-5.49421-7.991578-11.487893-9.989472-17.98105-1.498421-3.496315-5.49421-4.994736-8.990525-3.496315-1.498421 0.499474-2.497368 1.997894-3.496315 3.496315-1.997894 6.493157-5.49421 12.48684-9.989472 17.98105-5.993683 4.495262-12.986314 7.991578-19.978944 9.989472-2.996842 0.998947-4.994736 4.495262-3.995789 7.492104 0.499474 1.997894 1.997894 3.496315 3.995789 3.995788 7.492104 2.497368 14.484734 5.993683 20.478417 10.488946 3.995789 4.994736 7.492104 10.988419 9.489999 16.982103 1.498421 3.496315 5.49421 4.994736 8.990525 3.496315 1.498421-0.499474 2.996842-1.997894 3.496315-3.496315 2.497368-6.493157 5.993683-12.986314 10.488946-18.480524 5.49421-3.995789 11.987366-7.492104 18.979996-9.489998 2.996842-0.998947 4.994736-4.495262 3.496316-7.991578-0.998947-1.498421-2.497368-2.497368-3.995789-3.496315z" fill="#495FA9" p-id="8242"></path></svg>