<?xml version="1.0" standalone="no"?><!DOCTYPE svg PUBLIC "-//W3C//DTD SVG 1.1//EN" "http://www.w3.org/Graphics/SVG/1.1/DTD/svg11.dtd"><svg t="1647742612267" class="icon" viewBox="0 0 1025 1024" version="1.1" xmlns="http://www.w3.org/2000/svg" p-id="8095" xmlns:xlink="http://www.w3.org/1999/xlink" width="200.1953125" height="200"><defs><style type="text/css">@font-face { font-family: feedback-iconfont; src: url("//at.alicdn.com/t/font_1031158_u69w8yhxdu.woff2?t=1630033759944") format("woff2"), url("//at.alicdn.com/t/font_1031158_u69w8yhxdu.woff?t=1630033759944") format("woff"), url("//at.alicdn.com/t/font_1031158_u69w8yhxdu.ttf?t=1630033759944") format("truetype"); }
</style></defs><path d="M221.503683 642.355999c-5.205478-4.68493-11.9726-7.287669-18.739721-5.726026l-69.753407 14.575339c-11.452052 2.602739-18.219173 13.534243-16.136982 24.465747 1.041096 4.164382 2.602739 7.808217 5.726026 10.410957L333.421462 897.944975c3.643835 4.164382 9.369861 6.246574 14.575339 6.246574 2.082191 0 4.164382-0.520548 6.246574-1.041096 7.287669-2.082191 13.013695-8.328765 14.575338-15.616434l14.054791-70.273955c1.561643-6.767122-0.520548-14.054791-5.726026-18.739721l-155.643795-156.164344z m113.99997 198.849264l-156.684891-157.205439 21.34246-4.164382 139.506814 140.027361-4.164383 21.34246zM557.257021 647.04093c-3.123287-3.123287-7.287669-5.205478-11.9726-5.726026L390.161174 485.671108l19.780816-19.780817c18.219173-19.260269 43.726016-29.150677 70.273955-27.589034 27.589034 2.082191 53.616425 14.054791 72.356146 34.356156 13.534243 13.534243 23.945199 30.191773 29.671225 48.410946 2.602739 11.452052 13.534243 18.219173 24.986295 15.616435 11.452052-2.602739 18.219173-13.534243 15.616434-24.986295 0-1.041096-0.520548-2.082191-1.041095-3.123287-0.520548-2.082191-1.561643-3.643835-2.082191-5.726026l20.301364-20.301365 17.698626 17.698626c8.328765 8.328765 21.34246 8.328765 29.150677 0l95.780798-96.301345c3.123287-3.123287 5.205478-7.287669 5.726025-11.9726l6.767122-48.410946c1.041096-6.246574-1.041096-13.013695-5.726026-17.698626L698.325478 234.246515c-4.68493-4.68493-10.931504-6.767122-17.178078-5.726026l-48.410946 6.246574c-4.68493 0.520548-8.849313 2.602739-11.9726 5.726026l-95.780797 96.301345c-8.328765 8.328765-8.328765 21.34246 0 29.671225l14.575339 14.575339-21.863009 21.863008c-11.452052-3.643835-23.424652-5.726026-35.397251-6.767121-37.99999-2.082191-75.479433 12.493147-102.027371 40.082181l-157.725987 158.246535c-8.328765 8.328765-8.328765 21.34246 0 29.671225L401.092678 803.725821c8.328765 8.328765 21.34246 8.328765 29.150677 0L557.257021 676.712155c8.328765-8.328765 8.328765-21.34246 0-29.671225z m87.97258-371.671138l31.232869-4.164382 77.041076 77.041076-4.164382 31.232869-76.520529 76.520528-18.739721-18.739721L583.284412 366.465659l-14.575339-14.575338 76.520528-76.520529z m-85.890389 144.712292l9.369861-9.890409 42.164373 42.164373-9.369861 9.890409-19.260269-19.260269-22.904104-22.904104z m-143.150648 339.397173l-149.397222-149.91777 9.369861-9.36986 42.164373 42.164372c8.849313 7.287669 21.863008 6.246574 29.150677-3.123286 6.246574-7.808217 6.246574-18.739721 0-26.547939l-42.68492-42.68492 9.890408-9.890409 42.164373 42.684921c8.849313 7.287669 21.863008 6.246574 29.150677-3.123287 6.246574-7.808217 6.246574-18.739721 0-26.547939l-42.68492-42.68492 16.136982-16.136982 150.958865 150.438317-94.219154 94.739702z" fill="#495FA9" p-id="8096"></path><path d="M609.311802 553.862871c-11.452052-2.602739-22.383556 4.68493-24.986295 16.136983-3.123287 13.534243-8.849313 26.547938-17.698625 37.479442-7.287669 8.849313-5.726026 21.863008 3.123287 29.150677 3.643835 3.123287 8.328765 4.68493 13.013695 4.684931 6.246574 0 12.493147-3.123287 16.136982-7.808217 12.493147-16.136982 21.863008-34.356156 26.027391-54.657521 2.602739-11.452052-4.164382-22.904104-15.616435-24.986295zM383.9146 649.123121c-8.849313-7.808217-21.863008-6.767122-29.150678 2.082191-6.767122 7.808217-6.767122 19.780817 0 27.589034l16.136983 16.136982c8.849313 7.287669 21.863008 6.246574 29.150677-2.602739 6.246574-7.808217 6.246574-19.260269 0-26.547938l-16.136982-16.65753zM417.750208 229.041037l84.849293 84.849293c3.123287 3.123287 6.767122 4.68493 10.931504 4.684931s8.328765-1.561643 10.931504-4.684931L609.311802 229.041037c6.246574-6.246574 6.246574-16.136982 0-21.863008l-84.849293-84.849293c-6.246574-6.246574-16.136982-6.246574-21.863008 0L417.750208 206.657481c-6.246574 6.246574-6.246574 16.136982 0 22.383556z m95.780797-73.917789l62.465737 62.986285-62.465737 62.465737-62.986285-62.465737 62.986285-62.986285zM384.955696 196.246525c3.123287 3.123287 6.767122 4.68493 10.931504 4.68493s8.328765-1.561643 10.931504-4.68493l84.849293-84.849293c6.246574-6.246574 6.246574-16.136982 0-21.863008L407.339251 4.68493C401.092678-1.561643 391.202269-1.561643 385.476243 4.68493L300.106402 89.534224c-6.246574 6.246574-6.246574 16.136982 0 21.863008l84.849294 84.849293z m11.452051-158.767083l62.465738 62.465738-62.465738 62.465737-62.465737-62.465737 62.465737-62.465738zM1021.065121 618.4108l-84.849293-84.849293c-6.246574-6.246574-16.136982-6.246574-21.863008 0l-84.849293 84.849293c-6.246574 6.246574-6.246574 16.136982 0 21.863008l84.849293 84.849293c6.246574 6.246574 16.136982 6.246574 21.863008 0l84.849293-84.849293c6.246574-5.726026 6.246574-15.616434 0-21.863008zM925.284324 692.328589l-62.465738-62.986285 62.465738-62.465737 62.986285 62.465737-62.986285 62.986285zM903.941864 501.287542L819.09257 416.438249c-6.246574-6.246574-16.136982-6.246574-21.863008 0l-84.849293 84.849293c-6.246574 6.246574-6.246574 16.136982 0 21.863009l84.849293 84.849293c6.246574 6.246574 16.136982 6.246574 21.863008 0l84.849294-84.849293c5.726026-6.246574 5.726026-16.136982 0-21.863009z m-96.301346 73.397242l-62.465737-62.465737 62.465737-62.465738 62.986286 62.465738-62.986286 62.465737zM545.804969 904.712096c6.246574 6.246574 16.136982 6.246574 21.863008 0l84.849294-84.849293c6.246574-6.246574 6.246574-16.136982 0-21.863008L567.667977 713.150502c-6.246574-6.246574-16.136982-6.246574-21.863008 0l-84.849293 84.849293c-6.246574 6.246574-6.246574 16.136982 0 21.863008l84.849293 84.849293z m10.931504-158.246534l62.465738 62.465737-62.465738 62.465737-62.465737-62.465737 62.465737-62.465737zM121.037955 479.945082l84.849293 84.849293c6.246574 6.246574 16.136982 6.246574 21.863008 0L312.59955 479.945082c6.246574-6.246574 6.246574-16.136982 0-21.863008L227.750256 373.232781c-6.246574-6.246574-16.136982-6.246574-21.863008 0L121.037955 458.082074c-6.246574 6.246574-6.246574 16.136982 0 21.863008z m95.780797-73.397241l62.465738 62.465737-62.465738 62.465738-62.465737-62.465738 62.465737-62.465737zM682.188496 827.67102c-6.246574-6.246574-16.136982-6.246574-21.863008 0l-84.849293 84.849294c-6.246574 6.246574-6.246574 16.136982 0 21.863008l84.849293 84.849293c6.246574 6.246574 16.136982 6.246574 21.863008 0l84.849293-84.849293c6.246574-6.246574 6.246574-16.136982 0-21.863008L682.188496 827.67102z m-10.931504 158.767083l-62.465738-62.465738 62.465738-62.465737 62.465737 62.465737-62.465737 62.465738zM198.079031 343.561556L113.229738 258.712262c-6.246574-6.246574-16.136982-6.246574-21.863008 0L6.517437 343.561556c-6.246574 6.246574-6.246574 16.136982 0 21.863008l84.849293 84.849293c6.246574 6.246574 16.136982 6.246574 21.863008 0L198.079031 365.424564c6.246574-5.726026 6.246574-15.616434 0-21.863008zM102.298234 417.479345l-62.465737-62.465738 62.465737-62.465737 62.465737 62.465737-62.465737 62.465738zM655.640558 411.753319c3.643835 4.164382 10.410956 4.164382 14.05479 0.520548l0.520548-0.520548 38.520538-39.041086c4.164382-4.164382 4.164382-10.410956 0-14.575339l-38.520538-39.041086c-4.164382-3.643835-10.410956-3.643835-14.575338 0l-38.520539 39.041086c-4.164382 4.164382-4.164382 10.410956 0 14.575339l38.520539 39.041086z m7.287669-70.794502l23.945199 24.465747-23.945199 24.465747-23.945199-24.465747 23.945199-24.465747zM234.517378 247.26021c7.808217 2.602739 15.616434 6.246574 21.863008 10.931505 5.205478 6.246574 9.369861 14.054791 11.9726 21.863008 1.561643 4.164382 6.246574 5.726026 10.410956 4.164382 2.082191-1.041096 3.123287-2.082191 4.164382-4.164382 2.602739-7.287669 6.246574-14.054791 10.931505-20.301365 7.287669-5.205478 15.095887-9.890408 23.945199-12.493148 3.643835-1.041096 5.726026-5.205478 4.68493-8.849312-0.520548-2.082191-2.602739-4.164382-4.68493-4.684931-8.328765-2.602739-16.136982-6.767122-23.424652-11.972599-5.205478-6.246574-8.849313-13.013695-11.452052-20.821913-1.561643-4.164382-6.246574-5.726026-10.410956-4.164382-2.082191 1.041096-3.123287 2.082191-4.164382 4.164382-2.602739 7.808217-6.767122 15.095887-11.9726 21.342461-6.767122 4.68493-14.054791 8.849313-21.863008 10.931504-3.643835 1.041096-5.726026 5.205478-4.68493 9.36986 1.041096 2.602739 2.602739 4.164382 4.68493 4.68493zM785.256963 681.917633c-11.9726-4.164382-24.465747-9.890408-30.191773-15.095886-6.767122-8.328765-11.452052-17.178078-14.575339-27.068487-2.082191-5.205478-7.808217-7.287669-13.013695-5.205478-2.602739 1.041096-4.164382 3.123287-5.205479 5.205478-3.123287 9.890408-8.328765 19.260269-15.095886 27.589034-8.849313 6.246574-18.219173 11.452052-28.63013 14.575339-4.68493 1.561643-7.287669 7.287669-5.726026 11.9726 1.041096 2.602739 3.123287 4.68493 5.726026 5.726026 10.410956 3.123287 19.780817 7.808217 28.109582 14.054791 6.767122 8.328765 11.9726 17.698626 15.616434 28.109581 2.082191 5.205478 7.808217 7.287669 13.013696 5.205479 2.602739-1.041096 4.164382-3.123287 5.205478-5.205479 3.123287-9.369861 7.808217-18.219173 14.054791-26.02739 5.726026-5.726026 18.739721-11.452052 30.712321-16.136982 4.68493-1.561643 7.808217-6.767122 6.246573-11.452052-1.041096-3.123287-3.123287-5.205478-6.246573-6.246574zM78.873582 588.739575c-7.287669-2.082191-14.575339-5.726026-20.821912-10.410956-4.68493-5.205478-8.328765-11.9726-10.410956-18.739722-1.561643-3.643835-5.726026-5.205478-9.369861-3.643834-1.561643 0.520548-2.602739 2.082191-3.643835 3.643834-2.082191 6.767122-5.726026 13.013695-10.410956 18.739722-6.246574 4.164382-13.013695 7.808217-19.780817 9.890408-3.123287 1.041096-5.205478 4.68493-4.164382 7.808217 0.520548 2.082191 2.082191 3.643835 4.164382 4.164383 7.287669 2.082191 13.534243 5.205478 19.780817 9.890408 4.68493 5.726026 8.328765 11.9726 10.931504 19.260269 1.561643 3.643835 5.726026 5.205478 9.369861 3.643835 1.561643-0.520548 2.602739-2.082191 3.643834-3.643835 2.082191-6.246574 5.205478-12.493147 9.890409-17.698625 6.767122-4.68493 13.534243-8.328765 21.34246-10.931505 3.123287-1.041096 5.205478-4.68493 4.164383-7.808217-1.041096-2.082191-2.602739-3.643835-4.684931-4.164382zM313.640645 968.739477c-7.287669-2.082191-14.575339-5.726026-20.821912-10.410956-4.68493-5.205478-8.328765-11.9726-10.410956-18.739721-1.561643-3.643835-5.726026-5.205478-9.369861-3.643835-1.561643 0.520548-3.123287 2.082191-3.643835 3.643835-2.082191 6.767122-5.726026 13.013695-10.410956 18.739721-6.246574 4.68493-13.013695 7.808217-19.780817 9.890408-3.123287 1.041096-5.205478 4.68493-4.164382 7.808218 0.520548 2.082191 2.082191 3.643835 4.164382 4.164382 7.287669 2.082191 13.534243 5.205478 19.780817 9.890408 4.68493 5.726026 8.328765 11.9726 10.931504 19.26027 1.561643 3.643835 5.726026 5.205478 9.369861 3.643834 1.561643-0.520548 2.602739-2.082191 3.643834-3.643834 2.082191-6.767122 5.205478-12.493147 9.890409-17.698626 6.767122-4.68493 13.534243-8.328765 21.34246-10.931504 3.123287-1.041096 5.205478-4.68493 4.164383-7.808217-1.561643-2.082191-3.123287-3.643835-4.684931-4.164383zM323.010506 383.643737c0 5.726026 4.68493 10.410956 10.410956 10.410956s10.410956-4.68493 10.410956-10.410956-4.68493-10.410956-10.410956-10.410956-10.410956 4.68493-10.410956 10.410956zM984.106227 461.725909c11.452052 0 20.821912-9.369861 20.821912-20.821913s-9.369861-20.821912-20.821912-20.821912-20.821912 9.369861-20.821913 20.821912 9.369861 20.821912 20.821913 20.821913zM801.914493 253.506784c8.849313 0 15.616434-6.767122 15.616434-15.616434s-6.767122-15.616434-15.616434-15.616434-15.616434 6.767122-15.616435 15.616434 6.767122 15.616434 15.616435 15.616434zM861.777491 399.260171c7.287669 0 13.013695-5.726026 13.013695-13.013695s-5.726026-13.013695-13.013695-13.013695-13.013695 5.726026-13.013695 13.013695 5.726026 13.013695 13.013695 13.013695zM665.530966 173.342421c7.287669 2.082191 13.534243 5.205478 19.780817 9.890409 4.68493 5.726026 8.328765 11.9726 10.931504 19.260269 1.561643 3.643835 5.726026 5.205478 9.36986 3.643834 1.561643-0.520548 2.602739-2.082191 3.643835-3.643834 2.082191-6.246574 5.205478-12.493147 9.890409-17.698626 6.767122-4.68493 13.534243-8.328765 21.34246-10.931504 3.123287-1.041096 5.205478-4.68493 4.164382-7.808217-0.520548-2.082191-2.082191-3.643835-4.164382-4.164383-7.287669-2.082191-14.575339-5.726026-20.821913-10.410956-4.68493-5.205478-8.328765-11.9726-10.410956-18.219173-1.561643-3.643835-5.726026-5.205478-9.369861-3.643835-1.561643 0.520548-2.602739 2.082191-3.643834 3.643835-2.082191 6.767122-5.726026 13.013695-10.410956 18.739721-6.246574 4.164382-13.013695 7.808217-19.780817 9.890408-3.123287 1.041096-5.205478 4.68493-4.164383 7.808218 0 1.561643 2.082191 3.123287 3.643835 3.643834z" fill="#495FA9" p-id="8097"></path><path d="M229.3119 477.342343c8.849313 0 15.616434-6.767122 15.616434-15.616434s-6.767122-15.616434-15.616434-15.616435-15.616434 6.767122-15.616434 15.616435 6.767122 15.616434 15.616434 15.616434zM62.7366 737.616249c-5.726026 0-10.410956 4.68493-10.410956 10.410956s4.68493 10.410956 10.410956 10.410956 10.410956-4.68493 10.410956-10.410956-4.68493-10.410956-10.410956-10.410956zM848.763796 774.054596c-8.849313 0-15.616434 6.767122-15.616435 15.616434s6.767122 15.616434 15.616435 15.616434 15.616434-6.767122 15.616434-15.616434-6.767122-15.616434-15.616434-15.616434zM568.709073 979.150433c-7.287669-2.082191-14.575339-5.726026-20.821912-10.410956-4.68493-5.726026-8.328765-11.9726-10.410957-18.739721-1.561643-3.643835-5.726026-5.205478-9.36986-3.643835-1.561643 0.520548-2.602739 2.082191-3.643835 3.643835-2.082191 6.767122-5.726026 13.013695-10.410956 18.739721-6.246574 4.68493-13.013695 7.808217-19.780817 9.890409-3.123287 1.041096-5.205478 4.68493-4.164383 7.808217 0.520548 2.082191 2.082191 3.643835 4.164383 4.164382 7.287669 2.082191 13.534243 5.205478 19.780817 9.890409 4.68493 5.726026 8.328765 11.9726 10.931504 19.260269 1.561643 3.643835 5.726026 5.205478 9.36986 3.643834 1.561643-0.520548 2.602739-2.082191 3.643835-3.643834 2.082191-6.246574 5.726026-12.493147 9.890409-17.698626 6.246574-4.68493 13.534243-8.328765 21.34246-10.931504 2.602739-2.602739 1.561643-7.808217-1.041096-10.410956-1.041096 0-1.041096 0 0.520548-1.561644z" fill="#495FA9" p-id="8098"></path><path d="M473.969371 945.835374m-15.616434 0a15.616434 15.616434 0 1 0 31.232869 0 15.616434 15.616434 0 1 0-31.232869 0Z" fill="#495FA9" p-id="8099"></path></svg>