<?xml version="1.0" standalone="no"?><!DOCTYPE svg PUBLIC "-//W3C//DTD SVG 1.1//EN" "http://www.w3.org/Graphics/SVG/1.1/DTD/svg11.dtd"><svg t="1647744407840" class="icon" viewBox="0 0 1024 1024" version="1.1" xmlns="http://www.w3.org/2000/svg" p-id="47982" xmlns:xlink="http://www.w3.org/1999/xlink" width="200" height="200"><defs><style type="text/css">@font-face { font-family: feedback-iconfont; src: url("//at.alicdn.com/t/font_1031158_u69w8yhxdu.woff2?t=1630033759944") format("woff2"), url("//at.alicdn.com/t/font_1031158_u69w8yhxdu.woff?t=1630033759944") format("woff"), url("//at.alicdn.com/t/font_1031158_u69w8yhxdu.ttf?t=1630033759944") format("truetype"); }
</style></defs><path d="M0 0m136.533333 0l750.933334 0q136.533333 0 136.533333 136.533333l0 750.933334q0 136.533333-136.533333 136.533333l-750.933334 0q-136.533333 0-136.533333-136.533333l0-750.933334q0-136.533333 136.533333-136.533333Z" fill="#FFC738" p-id="47983"></path><path d="M218.453333 273.066667m40.96 0l382.293334 0q40.96 0 40.96 40.96l0 232.106666q0 40.96-40.96 40.96l-382.293334 0q-40.96 0-40.96-40.96l0-232.106666q0-40.96 40.96-40.96Z" fill="#EAB83A" p-id="47984"></path><path d="M791.893333 955.733333v-27.306666h109.226667v-13.653334h-13.653333v-13.653333h-13.653334v-13.653333h-13.653333v-13.653334h-13.653333v-13.653333h-13.653334v-13.653333h-13.653333v-13.653334h-13.653333v-13.653333h-13.653334v-13.653333h13.653334v-13.653334h13.653333v13.653334h13.653333v13.653333h13.653334v13.653333h13.653333v13.653334h13.653333v13.653333h13.653334v13.653333h13.653333v13.653334h13.653333v13.653333h13.653334v-109.226667h27.306666v163.84H791.893333z m70.314667-68.266666zM860.16 887.466667zM464.213333 696.32a13.653333 13.653333 0 0 1 0-27.306667h354.986667V259.413333h-27.306667a13.653333 13.653333 0 0 1 0-27.306666h54.613334v464.213333H464.213333z m218.453334-54.613333l40.96-40.96 40.96 40.96h-81.92z m107.465386-129.31072a19.114667 19.114667 0 0 1-11.10016 24.576L559.786667 628.053333c-76.581547 0-83.203413-11.769173-95.573334-13.653333l129.447254-48.141653-49.384107-52.14208c-16.67072-18.10432-21.845333-21.845333-10.922667-25.941334l35.10272-13.257386c8.192-3.11296 8.6016-2.102613 20.31616 3.181226L682.666667 532.48l82.957653-31.143253a19.019093 19.019093 0 0 1 24.507733 11.045546zM682.666667 259.413333H204.8v409.6h68.266667a13.653333 13.653333 0 0 1 0 27.306667h-95.573334V245.76a13.653333 13.653333 0 0 1 13.653334-13.653333h491.52a13.653333 13.653333 0 1 1 0 27.306666zM314.026667 682.666667a13.653333 13.653333 0 0 1 13.653333 13.653333v40.96l68.266667-40.96h40.96l-136.533334 95.573333v-95.573333a13.653333 13.653333 0 0 1 13.653334-13.653333z m218.453333-109.226667l-68.266667 27.306667-27.306666-27.306667 13.653333-13.653333a43.362987 43.362987 0 0 1 40.96 0z m-286.72-27.306667v-27.306666h109.226667v27.306666h-109.226667z m0-218.453333h109.226667v27.306667h-109.226667v-27.306667z m245.76 122.88H245.76v-27.306667h245.76v27.306667z" fill="#30384F" p-id="47985"></path></svg>