<?xml version="1.0" standalone="no"?><!DOCTYPE svg PUBLIC "-//W3C//DTD SVG 1.1//EN" "http://www.w3.org/Graphics/SVG/1.1/DTD/svg11.dtd"><svg t="1647744096663" class="icon" viewBox="0 0 1556 1024" version="1.1" xmlns="http://www.w3.org/2000/svg" p-id="2367" xmlns:xlink="http://www.w3.org/1999/xlink" width="303.90625" height="200"><defs><style type="text/css">@font-face { font-family: feedback-iconfont; src: url("//at.alicdn.com/t/font_1031158_u69w8yhxdu.woff2?t=1630033759944") format("woff2"), url("//at.alicdn.com/t/font_1031158_u69w8yhxdu.woff?t=1630033759944") format("woff"), url("//at.alicdn.com/t/font_1031158_u69w8yhxdu.ttf?t=1630033759944") format("truetype"); }
</style></defs><path d="M1116.573475 549.569738L1300.81226 195.886243l169.289245 38.144959-107.905336 348.186243z" fill="#C9D2E3" p-id="2368"></path><path d="M1138.643325 561.061731l184.238785-353.677276a24.893099 24.893099 0 0 1-27.536009 12.773026l169.289245 38.151178a24.911755 24.911755 0 0 1-16.068891-11.809142 24.787383 24.787383 0 0 1-2.220044-19.824931l-107.905336 348.167586a24.868225 24.868225 0 0 1 27.03852-17.281519l-245.622693-32.63527a24.886881 24.886881 0 0 1 18.798861 13.177236c3.731167 7.194933 3.731167 15.764179-0.012438 22.959112z m247.314156 28.506112l107.917773-348.167587a25.017472 25.017472 0 0 0-2.213825-19.824931 24.886881 24.886881 0 0 0-16.068891-11.809142l-169.295463-38.14496a24.893099 24.893099 0 0 0-27.542227 12.773027l-184.238785 353.683495a24.824695 24.824695 0 0 0-0.012438 22.952893 24.899318 24.899318 0 0 0 18.786424 13.177236l245.622693 32.63527a24.855788 24.855788 0 0 0 27.044739-17.275301z" fill="#6E6E96" p-id="2369"></path><path d="M1491.549494 584.804387c19.178196 19.178196-37.908652 36.142567-169.432273 79.934024-176.832419 58.884027-475.866761 134.321995-654.210303 148.382275-210.85444 16.678314-676.087376-16.199481-641.10769-122.599914 11.398714-34.662537 22.057413-22.704148 70.531485-84.716136 65.904838-84.311926 263.327078-82.894083 453.467325-82.894083 217.066832-0.006219 892.084607 13.20833 940.751456 61.893834z" fill="#C9D2E3" p-id="2370"></path><path d="M278.534816 606.669023s-2.394165 52.068429 32.846702 52.068429h150.751566v29.00982s-4.147813 38.642448 38.63001 38.642448h206.532505l95.349961-36.559214v-33.518312l-310.930544 29.370499-8.289409-78.777363-204.890791-0.236307z" fill="#6E6E96" opacity=".2" p-id="2371"></path><path d="M1450.643471 593.976838c-295.166366-50.246376-1226.465533 12.692185-1226.465533 12.692185s-10.217178-10.11768-45.470483-10.11768l-35.247087 1.07582s-4.004785-72.670687 622.769007-51.701531c626.767573 20.938063 684.414096 48.051206 684.414096 48.051206z" fill="#FFFFFF" opacity=".31" p-id="2372"></path><path d="M1473.963262 602.390619c-1.38675-1.38675-3.693855-5.124135-3.66898-10.490797 0.037312-5.379098 2.487444-8.992111 3.351831-9.837842-9.520693 9.327916-66.38989 28.182745-132.244979 50.04738l-27.156674 9.023205c-185.768563 61.844085-479.05069 133.830725-648.296404 147.200738-199.990526 15.795272-561.640061-14.047842-612.856541-79.218884-4.060753-5.161447-3.606794-7.953603-2.667784-10.820383 3.992348-12.13251 5.882806-13.836409 16.367384-23.1892 10.403736-9.26573 26.124384-23.294916 50.134441-54.002417 57.360467-73.37339 252.450728-73.348515 424.56944-73.336078h9.30926c354.454602 0 877.340281 20.987812 923.762211 55.15286a5.130354 5.130354 0 0 1-0.603205-0.528582zM550.798038 498.036109h-9.303042c-201.321309-0.024874-391.467774-0.049749-463.771563 92.439651-21.248993 27.169111-34.42623 38.928504-44.046421 47.503969-13.861284 12.362598-22.753897 21.13084-30.520943 44.76778-6.573072 19.992834-2.835687 39.749361 10.807946 57.117941 76.799845 97.737907 505.796936 109.938822 655.889328 98.073712 173.032848-13.662288 471.513734-86.793152 660.111765-149.601122l27.100707-8.99833c119.34758-39.593896 155.371993-51.558503 162.075655-79.896713 2.717533-11.411151-0.93901-23.176763-10.011963-32.249716-12.530501-12.524282-38.561606-38.549169-423.67396-56.45255-216.407659-10.043057-444.35706-12.704622-534.657509-12.704622zM1334.697471 333.093674h196.588946a24.874444 24.874444 0 0 0 0-49.748887h-196.588946a24.874444 24.874444 0 0 0 0 49.748887z" fill="#6E6E96" p-id="2373"></path><path d="M304.068432 529.856741l598.671889-137.313147h95.001719l-369.789697 216.109166-324.543084-1.840709" fill="#C9D2E3" p-id="2374"></path><path d="M309.62787 554.096886l598.671889-137.313147a25.558491 25.558491 0 0 1-5.571875 0.634299h95.001719a24.849569 24.849569 0 0 1-24.010057-18.375996 24.862006 24.862006 0 0 1 11.467118-27.97753L615.396968 587.179896a24.992597 24.992597 0 0 1 12.692185-3.40158l-324.536866-1.840709a24.880662 24.880662 0 0 0-0.286056 49.748888l324.543084 1.859364a24.992597 24.992597 0 0 0 12.692185-3.40158l369.783478-216.115384a24.880662 24.880662 0 0 0-12.542938-46.353526h-95.001719c-1.871802 0-3.731167 0.205214-5.565656 0.634298l-598.665671 137.313148a24.874444 24.874444 0 0 0-18.686926 29.805802 24.874444 24.874444 0 0 0 29.805802 18.668269z" fill="#6E6E96" p-id="2375"></path><path d="M780.022254 646.095016l-76.034956 29.326969H487.001309V567.846235h216.985989l76.034956 22.822302z" fill="#B1B1C2" p-id="2376"></path><path d="M771.067454 622.893379l-76.034955 29.333187c2.854342-1.106913 5.889025-1.679025 8.948581-1.679025H487.001309a24.874444 24.874444 0 0 1 24.874443 24.874444V567.846235a24.874444 24.874444 0 0 1-24.874443 24.874444h216.985989a25.24756 25.24756 0 0 1-7.145183-1.050946l76.041174 22.822302a24.862006 24.862006 0 0 1-17.72926-23.823498v55.426479a24.862006 24.862006 0 0 1 15.913425-23.201637z m16.106202-56.04834l-76.041174-22.822302a25.278653 25.278653 0 0 0-7.145184-1.050945H487.001309a24.874444 24.874444 0 0 0-24.874444 24.874443v107.57575a24.874444 24.874444 0 0 0 24.874444 24.874444h216.985989a24.874444 24.874444 0 0 0 8.948582-1.666588l76.034955-29.333188a24.905537 24.905537 0 0 0 15.932081-23.201637v-55.426479a24.905537 24.905537 0 0 0-17.72926-23.823498z" fill="#6E6E96" p-id="2377"></path><path d="M83.693299 647.37605h93.590094a24.874444 24.874444 0 0 0 0-49.748887h-93.590094a24.874444 24.874444 0 0 0 0 49.748887z" fill="#6E6E96" p-id="2378"></path><path d="M703.987298 567.846235v107.57575l76.034956-29.326969v-55.426479z" fill="#E4BC96" p-id="2379"></path><path d="M679.112855 567.846235v107.57575c0 8.196129 4.035878 15.888551 10.795508 20.515197a24.967723 24.967723 0 0 0 23.027517 2.717533l76.034955-29.339406a24.880662 24.880662 0 0 0 15.932081-23.195419v-55.42026a24.874444 24.874444 0 0 0-17.735478-23.829717l-76.041174-22.822302a24.93663 24.93663 0 0 0-22.001446 3.867976 24.824695 24.824695 0 0 0-10.011963 19.930648z m76.034955 22.822302v55.426479a24.874444 24.874444 0 0 1 15.925863-23.201637l-76.034956 29.333187a24.824695 24.824695 0 0 1 23.027517 2.711315 24.862006 24.862006 0 0 1 10.795508 20.515197V567.858672a24.874444 24.874444 0 0 1-32.019627 23.823499l76.041174 22.822302a24.886881 24.886881 0 0 1-17.735479-23.835936z" fill="#6E6E96" p-id="2380"></path><path d="M72.904009 669.010597s171.310293 75.375783 542.542708 37.883778c385.989178-38.99069 835.196755-112.898881 835.196754-112.898881s-486.314028 224.367481-851.141273 224.367481c-364.821027-0.012437-651.100998-88.2794-526.598189-149.352378z" fill="#6E6E96" opacity=".2" p-id="2381"></path><path d="M138.964313 695.122544s-55.606819-23.966526 4.508493-23.966526 89.13135-2.064579 89.13135-45.594855-89.143787-27.940219-89.143788-27.940219l-70.556359 71.383435c0 0.006219 32.63527 16.510412 66.060304 26.118165z" fill="#6E6E96" opacity=".2" p-id="2382"></path><path d="M303.552287 581.937607l604.747472-165.153868-604.386792 137.922571z" fill="#FFFFFF" opacity=".31" p-id="2383"></path><path d="M1178.336719 484.87131h154.967783l41.453261-120.485586h-39.388682s-25.029909-0.733796-25.029909-51.160512h109.198808L1352.551103 529.346815l-189.785786-14.626173 15.571402-29.849332z" fill="#6E6E96" opacity=".2" p-id="2384"></path><path d="M1206.855268 484.87131l122.295202-234.49138 105.194022 14.986853 4.017223-12.98446-124.334906-28.008623-135.69009 260.49761zM511.875752 592.720679h167.237103v14.856261H511.875752z" fill="#FFFFFF" opacity=".31" p-id="2385"></path><path d="M511.875752 632.874249h167.237103v17.68573H511.875752zM640.955458 542.971792l218.447364-115.031865 48.896937-11.156188-219.168722 131.106974z" fill="#6E6E96" opacity=".2" p-id="2386"></path><path d="M292.277946 165.831697h348.24221v49.748887H292.277946z" fill="#6E6E96" opacity=".15" p-id="2387"></path><path d="M922.434662 974.251113H1237.506801v49.748887h-315.072139z" fill="#6E6E96" opacity=".33" p-id="2388"></path><path d="M1283.114094 0h136.809439v49.748887h-136.809439z" fill="#6E6E96" opacity=".32" p-id="2389"></path></svg>