<?xml version="1.0" standalone="no"?><!DOCTYPE svg PUBLIC "-//W3C//DTD SVG 1.1//EN" "http://www.w3.org/Graphics/SVG/1.1/DTD/svg11.dtd"><svg t="1647742965217" class="icon" viewBox="0 0 1024 1024" version="1.1" xmlns="http://www.w3.org/2000/svg" p-id="10224" xmlns:xlink="http://www.w3.org/1999/xlink" width="200" height="200"><defs><style type="text/css">@font-face { font-family: feedback-iconfont; src: url("//at.alicdn.com/t/font_1031158_u69w8yhxdu.woff2?t=1630033759944") format("woff2"), url("//at.alicdn.com/t/font_1031158_u69w8yhxdu.woff?t=1630033759944") format("woff"), url("//at.alicdn.com/t/font_1031158_u69w8yhxdu.ttf?t=1630033759944") format("truetype"); }
</style></defs><path d="M288.944216 1010.18705c-18.048921 0-101.103424-50.831655-107.822043-139.949122-6.718619-89.117468 42.860662-107.483165 79.356317-193.093986 36.488288-85.618187 20.001151-131.521381 36.488288-183.141295 16.501871-51.627281 87.65882-88.616518 113.111482-128.007366 16.965986-26.263022 28.922475-62.67764 35.869467-109.251223h128.081036c6.946993 46.573583 18.903482 82.988201 35.876835 109.251223 25.445295 39.390849 96.609612 76.380086 113.104115 128.007366 16.494504 51.619914 0 97.523108 36.495654 183.141295 36.495655 85.61082 86.067568 103.976518 79.34895 193.093986-6.630216 88.019799-87.739856 138.689381-107.11482 139.927022l-0.699856 0.0221H288.944216z" fill="#95FFEE" p-id="10225"></path><path d="M581.314634 255.661122c6.799655 45.608518 18.439367 81.058072 34.771798 106.333928 3.16777 4.90636 7.293237 10.041094 12.435338 15.566274a277.364029 277.364029 0 0 0 16.133526 15.76518l5.134733 4.626417 24.517065 21.607137c32.009209 28.708835 48.010129 48.061698 55.715914 72.195683 2.092201 6.541813 3.742388 13.194129 5.053698 20.200058l0.744057 4.169669c1.281842 7.587914 2.114302 15.028489 2.998331 26.034647l1.134504 15.234763 0.692489 8.796086c3.676086 44.171971 9.098129 69.278388 25.636834 108.065151a335.665727 335.665727 0 0 0 21.120921 41.291511l2.556317 4.162302c8.250935 13.186763 25.202187 38.60259 29.681266 45.564317l2.637353 4.265438c19.559137 32.45859 27.014446 60.268662 23.927712 101.250763-3.116201 41.276777-21.953381 77.838734-50.89059 107.129554-21.990216 22.270158-49.210935 38.705727-63.340662 39.604489l-0.935597 0.029468H288.944216c-13.326734 0-40.96-16.317698-63.370129-38.713094C196.158029 949.432173 176.930403 912.531338 173.777367 870.790446c-3.094101-40.982101 4.361209-68.792173 23.920346-101.250763l2.637352-4.272805c5.009496-7.794187 25.673669-38.749928 32.24495-49.726619l2.961496-5.038964a331.392921 331.392921 0 0 0 18.159425-36.24518c17.59954-41.291511 22.616403-67.075683 26.321957-116.861237l0.957698-13.054159c0.987165-12.612144 1.871194-20.649439 3.307741-28.988777l0.611453-3.396143c1.311309-6.998561 2.961496-13.658245 5.053698-20.200058 8.162532-25.548432 25.614734-45.748489 61.528402-77.359885l21.349295-18.815079 4.847425-4.420144a260.088633 260.088633 0 0 0 13.776115-13.599309c5.149468-5.52518 9.267568-10.659914 12.435338-15.566274 15.76518-24.406561 27.161784-58.286964 34.049842-101.648575l1.657554-10.961957h140.781583l0.935597 6.276604z m-7.285871 1.090302H445.947727c-6.946993 46.558849-18.903482 82.980835-35.869467 109.243857-25.452662 39.390849-96.616978 76.380086-113.111482 128.007366-16.487137 51.619914 0 97.523108-36.488288 183.141295C223.982835 762.754763 174.403555 781.113094 181.122173 870.237928c6.718619 89.117468 89.773122 139.949122 107.822043 139.949122h442.088058l0.699856-0.0221c19.389698-1.23764 100.484604-51.907223 107.122187-139.927022 6.718619-89.117468-42.853295-107.483165-79.34895-193.093986-36.495655-85.618187-20.001151-131.521381-36.495654-183.141295-16.501871-51.627281-87.65882-88.616518-113.111482-128.007366-16.965986-26.263022-28.922475-62.67764-35.869468-109.251223z" fill="#3D3D3D" p-id="10226"></path><path d="M509.988245 331.834935c28.473094 0 56.946187 2.136403 85.419281 6.43131a180.975424 180.975424 0 0 0 14.490705 27.729036c2.696288 4.169669 5.900892 8.309871 9.503309 12.450072a19.26446 19.26446 0 0 0-2.048 0.0221c-46.38941 3.241439-82.177842 13.017324-107.365295 13.017324-25.585266 0-62.103022-9.297036-109.568-12.862619 3.661353-4.19177 6.924892-8.398273 9.658015-12.626877a181.270101 181.270101 0 0 0 14.490705-27.721669 571.863482 571.863482 0 0 1 85.41928-6.438677z" fill="#FF8484" p-id="10227"></path><path d="M509.988245 324.468029c28.841439 0 57.682878 2.165871 86.51695 6.512345l4.081266 0.61882 1.605986 3.793957a173.652719 173.652719 0 0 0 13.893985 26.594532c2.401612 3.720288 5.348374 7.57318 8.869756 11.617612l11.16823 12.833151-17.673209-0.640921-0.589352 0.022101c-13.245698 0.92823-25.821007 2.35741-40.753727 4.530647l-9.274935 1.392346-22.71954 3.580316-8.604547 1.259741-5.687251 0.751425c-8.177266 1.016633-14.822216 1.517583-20.833612 1.517582-6.261871 0-13.223597-0.508317-21.850244-1.532316l-5.996662-0.758791-37.836432-5.569382c-16.538705-2.364777-30.145381-3.948662-44.43718-5.02423l-14.674878-1.105036 9.680116-11.079827c3.587683-4.110734 6.586014-8.022561 9.017093-11.787051a173.947396 173.947396 0 0 0 13.901353-26.594532l1.605985-3.801324 4.0739-0.611453a579.230388 579.230388 0 0 1 86.516949-6.519712z m0 7.366906c-28.473094 0-56.946187 2.136403-85.41928 6.438677a181.270101 181.270101 0 0 1-14.490705 27.721669 111.181353 111.181353 0 0 1-9.650648 12.626877c47.450245 3.565583 83.975367 12.862619 109.560633 12.862619 25.19482 0 60.975885-9.775885 107.365295-13.017324 0.640921-0.044201 1.326043-0.051568 2.048-0.0221a110.540432 110.540432 0 0 1-9.503309-12.450072 180.975424 180.975424 0 0 1-14.490705-27.729036 572.592806 572.592806 0 0 0-85.419281-6.43131z" fill="#3D3D3D" p-id="10228"></path><path d="M617.35354 378.467453c0.640921-0.044201 1.326043-0.051568 2.055367-0.0221 30.395856 34.941237 88.844892 69.396259 103.600806 115.557294 16.494504 51.619914 0 97.523108 36.495654 183.141295 36.495655 85.61082 86.067568 103.976518 79.34895 193.093986-6.630216 88.019799-87.739856 138.689381-107.11482 139.927022l-0.699856 0.0221H288.944216c-18.048921 0-101.103424-50.831655-107.822043-139.949122-6.718619-89.117468 42.860662-107.483165 79.356317-193.093986 36.488288-85.618187 20.001151-131.521381 36.488288-183.141295 14.726446-46.08 73.006043-80.505554 103.453467-115.380489 47.464978 3.565583 83.982734 12.862619 109.568 12.862619 25.19482 0 60.975885-9.775885 107.365295-13.017324z" fill="#FFD7DF" p-id="10229"></path><path d="M619.703583 371.085813l3.175137 0.132604 3.808691 4.346475 1.819626 1.981698c3.926561 4.221237 8.398273 8.619281 13.776115 13.599309l4.854791 4.427511 2.652086 2.379511 14.844317 13.054158 9.680115 8.560345c32.001842 28.708835 48.002763 48.061698 55.708547 72.195684 2.092201 6.534446 3.742388 13.186763 5.053698 20.192691l0.744057 4.169669c1.281842 7.587914 2.114302 15.028489 2.998331 26.034647l1.134504 15.234763 0.692489 8.796086c3.676086 44.171971 9.098129 69.278388 25.636834 108.065151a335.665727 335.665727 0 0 0 21.120921 41.291511l2.556317 4.162302c8.250935 13.186763 25.202187 38.60259 29.681266 45.564317l2.637353 4.265438c19.559137 32.45859 27.014446 60.268662 23.927712 101.250763-3.116201 41.276777-21.953381 77.838734-50.89059 107.129554-21.990216 22.270158-49.210935 38.705727-63.340662 39.604489l-0.935597 0.029468H288.944216c-13.326734 0-40.96-16.317698-63.370129-38.713094C196.158029 949.432173 176.930403 912.531338 173.777367 870.790446c-3.094101-40.982101 4.361209-68.792173 23.920346-101.250763l2.637352-4.272805c5.009496-7.794187 25.673669-38.749928 32.24495-49.726619l2.961496-5.038964a331.392921 331.392921 0 0 0 18.159425-36.24518c17.59954-41.291511 22.616403-67.075683 26.321957-116.861237l0.957698-13.054159c0.987165-12.612144 1.871194-20.649439 3.307741-28.988777l0.611453-3.396143c1.311309-6.998561 2.961496-13.658245 5.053698-20.200058 8.162532-25.548432 25.614734-45.748489 61.528402-77.359885l21.349295-18.815079 4.847425-4.420144a260.088633 260.088633 0 0 0 13.776115-13.599309c1.193439-1.281842 2.335309-2.541583 3.418245-3.78659l2.423712-2.777324 3.676086 0.279943c14.660144 1.105036 28.561496 2.718388 45.380144 5.127366l28.023712 4.162303 12.612144 1.768057c9.466475 1.200806 16.737612 1.782791 22.999482 1.782792 5.348374 0 11.462906-0.464115 19.139223-1.421813l5.348374-0.699857 8.427741-1.245007 14.3139-2.254273 13.172028-2.048c17.326964-2.600518 31.43459-4.272806 46.448346-5.326274 0.920863-0.066302 1.878561-0.073669 2.873093-0.036834z m-0.294676 7.366906a19.794878 19.794878 0 0 0-2.062734 0.014734c-46.382043 3.241439-82.170475 13.017324-107.357928 13.017324-25.585266 0-62.103022-9.297036-109.568-12.862619-30.447424 34.874935-88.727022 69.300489-103.453467 115.380489-16.487137 51.619914 0 97.523108-36.488288 183.141295C223.982835 762.754763 174.403555 781.113094 181.122173 870.237928c6.718619 89.117468 89.773122 139.949122 107.822043 139.949122h442.088058l0.699856-0.0221c19.389698-1.23764 100.484604-51.907223 107.122187-139.927022 6.718619-89.117468-42.853295-107.483165-79.34895-193.093986-36.495655-85.618187-20.001151-131.521381-36.495654-183.141295-14.748547-46.161036-73.20495-80.616058-103.600806-115.557294z" fill="#3D3D3D" p-id="10230"></path><path d="M373.781511 754.017612a139.971223 81.035971 0 1 0 279.942446 0 139.971223 81.035971 0 1 0-279.942446 0Z" fill="#FFD7DF" p-id="10231"></path><path d="M513.752734 665.614734c80.837065 0 147.338129 38.499453 147.33813 88.402878s-66.501065 88.402878-147.33813 88.402877c-80.829698 0-147.338129-38.499453-147.338129-88.402877s66.508432-88.402878 147.338129-88.402878z m0 7.366906c-77.30095 0-139.971223 36.282014-139.971223 81.035972s62.670273 81.035971 139.971223 81.035971c77.308317 0 139.971223-36.282014 139.971223-81.035971s-62.662906-81.035971-139.971223-81.035972z" fill="#3D3D3D" p-id="10232"></path><path d="M395.882231 754.017612a117.870504 66.302158 0 1 0 235.741007 0 117.870504 66.302158 0 1 0-235.741007 0Z" fill="#FFFBB4" p-id="10233"></path><path d="M513.752734 680.348547c68.630101 0 125.23741 31.83977 125.23741 73.669065 0 41.821928-56.607309 73.669065-125.23741 73.669064-68.622734 0-125.23741-31.847137-125.23741-73.669064 0-41.829295 56.614676-73.669065 125.23741-73.669065z m0 7.366906c-65.093986 0-117.870504 29.688633-117.870503 66.302159s52.776518 66.302158 117.870503 66.302158c65.101353 0 117.870504-29.688633 117.870504-66.302158s-52.769151-66.302158-117.870504-66.302159z" fill="#3D3D3D" p-id="10234"></path><path d="M445.94036 494.083683a67.812374 41.438849 0 1 0 135.624748 0 67.812374 41.438849 0 1 0-135.624748 0Z" fill="#FFFBB4" p-id="10235"></path><path d="M513.752734 445.277928c40.996835 0 75.179281 20.88518 75.179281 48.805755s-34.182446 48.805755-75.179281 48.805756c-40.989468 0-75.171914-20.892547-75.171913-48.805756 0-27.920576 34.182446-48.805755 75.171913-48.805755z m0 7.366907c-37.445986 0-67.805007 18.549871-67.805007 41.438848 0 22.881612 30.351655 41.438849 67.805007 41.438849 37.453353 0 67.812374-18.557237 67.812374-41.438849 0-22.888978-30.359022-41.438849-67.812374-41.438848z" fill="#3D3D3D" p-id="10236"></path><path d="M452.37167 13.923453c17.430101-4.375942 36.731396-6.556547 57.903885-6.556547 21.128288 0 40.252777 2.173237 57.358733 6.52708a7.366906 7.366906 0 0 1 5.480979 8.177266L566.492418 68.401727H453.484073L446.868591 22.100719a7.366906 7.366906 0 0 1 5.503079-8.192z" fill="#00DDB9" p-id="10237"></path><path d="M510.275555 0c21.71764 0 41.446216 2.246906 59.178359 6.755453a14.733813 14.733813 0 0 1 10.95459 16.3619l-7.521611 52.643913H447.089598l-7.514245-52.614446A14.733813 14.733813 0 0 1 450.581511 6.777554C468.623065 2.254273 488.52108 0 510.275555 0z m0 7.366906c-21.172489 0-40.473784 2.180604-57.903885 6.556547A7.366906 7.366906 0 0 0 446.868591 22.100719l6.615482 46.293641H566.492418l6.622849-46.315741a7.366906 7.366906 0 0 0-5.480979-8.177266C550.528332 9.532777 531.403842 7.366906 510.282921 7.366906z" fill="#3D3D3D" p-id="10238"></path><path d="M460.453166 128.670388h99.077525a7.366906 7.366906 0 0 1 7.352173 6.95436l7.145899 128.663022H445.947727l7.145899-128.663022a7.366906 7.366906 0 0 1 7.35954-6.95436z" fill="#00DDB9" p-id="10239"></path><path d="M559.530691 121.303482a14.733813 14.733813 0 0 1 14.704346 13.916086l7.587913 136.435108H438.160907l7.580547-136.435108a14.733813 14.733813 0 0 1 14.711712-13.923453h99.077525z m0 7.366906h-99.084892a7.366906 7.366906 0 0 0-7.352173 6.95436l-7.145899 128.663022h128.081036l-7.145899-128.663022a7.366906 7.366906 0 0 0-7.352173-6.95436z" fill="#3D3D3D" p-id="10240"></path><path d="M573.262605 250.47482l0.766158 13.81295H445.947727L446.706519 250.47482h126.548719z" fill="#FFDA84" p-id="10241"></path><path d="M576.069396 953.675511c42.831194 0 93.191367 22.395396 135.88259 56.504172H308.952734c42.691223-34.108777 99.659511-56.504173 142.490705-56.504172H576.069396z" fill="#95FFEE" p-id="10242"></path><path d="M576.069396 946.308604c43.450014 0 95.180432 21.916547 140.486907 58.124892l16.413467 13.113094h-445.03482l16.420835-13.113094c43.744691-34.963338 102.289496-58.124892 147.087654-58.124892H576.069396z m0 7.366907H451.443439c-42.831194 0-99.799482 22.395396-142.490705 56.504172h402.999252c-42.683856-34.108777-93.044029-56.504173-135.88259-56.504172z" fill="#3D3D3D" p-id="10243"></path><path d="M411.765281 397.81295c-53.977324 57.03459-83.540719 94.657381-88.712288 112.861007-7.749986 27.316489-1.826993 90.863424-32.510158 151.66987-30.690532 60.813813-71.385324 125.701525-82.509352 164.304115-7.403741 25.739971-7.241669 47.767022 0.493582 66.088518l31.537727 14.394936c0.058935-31.162014 2.556317-57.984921 7.499511-80.483454 7.418475-33.740432 53.594245-105.729842 77.219913-154.33669 23.633036-48.621583 15.499971-116.728633 27.368058-154.064115 7.912058-24.88541 36.576691-63.001784 85.993899-114.334389L411.765281 397.81295z" fill="#FFFFFF" opacity=".6" p-id="10244"></path><path d="M515.697598 957.697842c71.849439 0 126.519252 9.768518 155.566964 34.572892-38.499453-16.605007-89.817324-17.290129-155.566964-17.29013s-117.074878 0.692489-155.574331 17.29013C389.170979 967.46636 443.848159 957.697842 515.697598 957.697842z" fill="#FFFFFF" opacity=".602" p-id="10245"></path><path d="M559.641195 20.531568l-4.434878 32.377554a2.946763 2.946763 0 0 0 5.83459 0.795626l4.434878-32.370187a2.946763 2.946763 0 0 0-5.841957-0.802993zM542.130058 17.680576l-3.270906 35.361151a2.946763 2.946763 0 0 0 5.871424 0.537784l3.270907-35.361151a2.946763 2.946763 0 0 0-5.871425-0.545151zM525.038835 15.816748l-2.099568 37.328115a2.946763 2.946763 0 0 0 5.893525 0.324144l2.084834-37.320748a2.946763 2.946763 0 0 0-5.878791-0.331511zM507.041483 15.986187v37.320748a2.946763 2.946763 0 1 0 5.893525 0V15.97882a2.946763 2.946763 0 1 0-5.893525 0zM489.810288 16.008288l0.331511 37.328115a2.946763 2.946763 0 0 0 5.893525-0.058935l-0.33151-37.320749a2.946763 2.946763 0 0 0-5.893526 0.051569zM469.49236 18.233094l3.425612 35.361151a2.946763 2.946763 0 0 0 5.871424-0.574619l-3.432978-35.361151a2.946763 2.946763 0 1 0-5.864058 0.574619zM452.946288 23.227856l4.869526 30.543194a2.946763 2.946763 0 1 0 5.819856-0.92823l-4.869526-30.543194a2.946763 2.946763 0 0 0-5.819856 0.92823z" fill="#95FFEE" p-id="10246"></path><path d="M479.607123 515.683453h-6.902791l15.138992-21.666072-14.188662-20.605237h7.168l10.785152 16.17036 10.711482-16.17036h6.814388l-14.181295 20.605237L509.83354 515.683453h-7.116432l-11.396604-17.385899zM514.585195 510.976h4.508547V515.683453h-4.508547zM542.137425 472.25554c7.462676 0 12.987856 2.401612 16.57554 7.197467 2.799424 3.742388 4.199137 8.530878 4.199136 14.365468 0 6.306072-1.598619 11.551309-4.803223 15.735712-3.757122 4.913727-9.127597 7.366906-16.089323 7.366907-6.504978 0-11.617612-2.151137-15.3379-6.446044-3.315108-4.147568-4.980029-9.378072-4.980029-15.713611 0-5.716719 1.421813-10.608345 4.258072-14.674878 3.646619-5.21577 9.039194-7.831022 16.177727-7.831021z m0.346245 5.097899c-4.375942 0-7.941525 1.502849-10.704115 4.50118-2.76259 3.005698-4.147568 7.433209-4.147569 13.282532 0 4.677986 1.178705 8.626647 3.550849 11.838619 2.372144 3.219338 6.217669 4.825324 11.529209 4.825324 5.046331 0 8.69295-1.812259 10.947223-5.429411 2.254273-3.609784 3.388777-7.772086 3.388777-12.472172 0-4.972662-1.303942-8.965525-3.904461-12.000691-2.600518-3.027799-6.151367-4.545381-10.659913-4.545381z" fill="#3D3D3D" p-id="10247"></path><path d="M445.365742 764.434417V766.158273h14.159194v-1.723856h-0.692489c-2.14377 0.103137-3.293007-0.751424-3.440346-2.563683l-0.014734-18.328863c-0.09577-1.944863 0.751424-2.983597 2.563684-3.108835h1.583885v-1.731223h-14.159194v1.731223h0.346244c2.534216-0.117871 3.742388 0.979799 3.624518 3.278273v6.910159h-14.674878v-7.079597c-0.103137-1.944863 0.795626-2.983597 2.696288-3.108835h1.443914v-1.731223h-14.151827v1.731223h0.685122c2.187971 0 3.28564 1.031367 3.28564 3.108835v17.606906c0 2.187971-1.097669 3.28564-3.28564 3.28564h-0.685122V766.158273h14.151827v-1.723856h-0.685122c-2.305842 0-3.462446-1.097669-3.462446-3.28564v-7.941525h14.682244v7.772086c0 2.298475-1.090302 3.455079-3.278273 3.455079h-0.692489z m33.320518-4.317007c-2.062734 2.298475-3.852892 3.388777-5.348375 3.278273-2.990964-0.346245-4.781122-2.534216-5.355741-6.556546h12.258533v-1.21554c-0.456748-0.221007-0.802993-0.861928-1.031367-1.893295-0.346245-1.731223-0.979799-3.057266-1.900662-3.978129-1.384978-1.377612-3.226705-2.062734-5.52518-2.062734-5.871424 0.456748-9.039194 3.735022-9.503309 9.83482 0.235741 5.64305 2.946763 8.575079 8.118331 8.803453 3.683453-0.110504 6.792288-1.893295 9.326503-5.348374l-1.031367-0.861928z m-10.873554-4.840057c-0.117871-3.219338 0.920863-5.061065 3.108834-5.52518 1.95223 0.117871 2.990964 1.959597 3.108835 5.52518h-6.217669z m35.567424 7.551079v-7.551079c0.117871-5.178935-1.436547-7.705784-4.663252-7.587914-2.187971 0-4.950561 1.141871-8.28777 3.447712v-3.978129h-0.692489l-7.587913 2.593151v1.038733l0.854561 0.169439c1.252374 0.390446 1.937496 0.92823 2.062734 1.635454l0.014733 9.076028c0.103137 1.944863-0.52305 2.97623-1.878561 3.094101l-0.884029 0.007367V766.158273h11.219799v-1.384978h-0.346245c-1.841727 0-2.76259-0.972432-2.76259-2.932029v-8.980259c1.841727-1.267108 3.455079-1.893295 4.832691-1.893295 1.731223-0.117871 2.593151 1.54705 2.593151 5.009497v3.793956c0.117871 3.337209-0.692489 5.009496-2.416345 5.009497V766.158273h10.35787v-1.384978c-1.510216 0.103137-2.313209-0.545151-2.416345-1.944863z m25.209554 0v-7.551079c0.117871-5.178935-1.436547-7.705784-4.663252-7.587914-2.187971 0-4.950561 1.141871-8.28777 3.447712v-3.978129h-0.692489l-7.587913 2.593151v1.038733l0.854561 0.169439c1.252374 0.390446 1.937496 0.92823 2.062734 1.635454l0.014733 9.076028c0.09577 1.944863-0.52305 2.97623-1.878561 3.094101l-0.884029 0.007367V766.158273h11.219799v-1.384978h-0.346245c-1.841727 0-2.76259-0.972432-2.76259-2.932029v-8.980259c1.841727-1.267108 3.455079-1.893295 4.832691-1.893295 1.731223-0.117871 2.593151 1.54705 2.593151 5.009497v3.793956c0.117871 3.337209-0.692489 5.009496-2.416345 5.009497V766.158273h10.35787v-1.384978c-1.510216 0.103137-2.313209-0.545151-2.416345-1.944863z m21.585036-2.711022c-2.077468 2.298475-3.860259 3.388777-5.355741 3.278273-2.990964-0.346245-4.773755-2.534216-5.355741-6.556546h12.265899v-1.21554c-0.368345-0.184173-0.663022-0.626187-0.884029-1.326043l-0.154705-0.574619c-0.346245-1.723856-0.979799-3.049899-1.900661-3.970762-1.377612-1.377612-3.219338-2.062734-5.52518-2.062734-5.871424 0.456748-9.031827 3.735022-9.495943 9.83482 0.228374 5.64305 2.932029 8.575079 8.118331 8.803453 3.683453-0.110504 6.784921-1.893295 9.319137-5.348374l-1.031367-0.861928z m-10.880921-4.840057c-0.117871-3.219338 0.920863-5.061065 3.108835-5.52518 1.959597 0.117871 2.990964 1.959597 3.108834 5.52518h-6.217669z m16.059856 10.88092h1.208173a2.843626 2.843626 0 0 1 0.861928-0.169438l0.456748 0.073669 0.40518 0.095769c1.267108 0.117871 2.534216 0.169439 3.801324 0.169439 3.683453-0.110504 5.635683-1.893295 5.871424-5.348374 0-2.305842-1.731223-4.375942-5.178935-6.217669-2.423712-1.377612-3.631885-2.585784-3.631885-3.624518 0.117871-0.920863 0.81036-1.436547 2.077468-1.554417 1.95223 0 3.337209 1.267108 4.140201 3.801324h1.384979v-4.840058a14.778014 14.778014 0 0 0-5.009497-0.861928c-4.375942 0.228374-6.674417 2.070101-6.910158 5.52518 0 2.070101 1.672288 4.088633 5.009496 6.040863 2.187971 1.384978 3.278273 2.534216 3.278274 3.462446-0.221007 1.259741-0.972432 1.95223-2.23954 2.062734-2.305842-0.221007-3.860259-1.495482-4.663252-3.793957h-1.384978l0.515683 5.178935z m16.57554 0h1.208172a2.843626 2.843626 0 0 1 0.861929-0.169438l0.456748 0.073669 0.40518 0.095769c1.267108 0.117871 2.534216 0.169439 3.801323 0.169439 3.683453-0.110504 5.635683-1.893295 5.871425-5.348374 0-2.305842-1.731223-4.375942-5.178935-6.217669-2.423712-1.377612-3.631885-2.585784-3.631885-3.624518 0.117871-0.920863 0.81036-1.436547 2.077467-1.554417 1.95223 0 3.337209 1.267108 4.140202 3.801324h1.384978v-4.840058a14.778014 14.778014 0 0 0-5.009496-0.861928c-4.375942 0.228374-6.674417 2.070101-6.910159 5.52518 0 2.070101 1.672288 4.088633 5.009497 6.040863 2.187971 1.384978 3.278273 2.534216 3.278273 3.462446-0.221007 1.259741-0.972432 1.95223-2.239539 2.062734-2.305842-0.221007-3.860259-1.495482-4.663252-3.793957h-1.384979l0.515684 5.178935z m24.340259-0.515683l-5.864058-12.081727c-1.267108-2.887827-2.711022-4.206504-4.317007-3.978129v-1.384979h11.389237v1.384979c-0.920863 0-1.54705 0.147338-1.878561 0.442014l-0.191539 0.250475c-0.346245 0.346245-0.287309 0.979799 0.176806 1.900662l3.624517 7.587914 3.45508-6.725986c0.920863-2.187971 0.110504-3.337209-2.423713-3.455079v-1.384979h8.28777v1.384979c-1.377612 0.09577-2.504748 0.957698-3.38141 2.578417l-10.254734 20.730475c-1.149237 2.187971-2.534216 3.278273-4.147568 3.278273-1.723856-0.110504-2.644719-0.972432-2.76259-2.585784a5.377842 5.377842 0 0 1 0.692489-1.900662c0.464115-0.464115 1.267108-0.751424 2.416346-0.861928 1.841727-0.228374 3.28564-1.384978 4.317007-3.455079l0.861928-1.723856z" fill="#222630" p-id="10248"></path><path d="M460.003785 68.39436h99.968921a7.366906 7.366906 0 0 1 7.315338 6.468144l5.562014 45.542215a7.366906 7.366906 0 0 1-7.307971 8.265669H454.434403a7.366906 7.366906 0 0 1-7.307971-8.265669l5.562015-45.542215a7.366906 7.366906 0 0 1 7.315338-6.468144z" fill="#00DDB9" p-id="10249"></path><path d="M559.972706 61.027453a14.733813 14.733813 0 0 1 14.630676 12.943655l5.562014 45.542216a14.733813 14.733813 0 0 1-14.623309 16.523971H454.434403a14.733813 14.733813 0 0 1-14.623309-16.523971l5.569381-45.542216a14.733813 14.733813 0 0 1 14.62331-12.943655h99.968921z m0 7.366907h-99.968921a7.366906 7.366906 0 0 0-7.315338 6.468144l-5.562015 45.542215a7.366906 7.366906 0 0 0 7.307971 8.265669h111.107684a7.366906 7.366906 0 0 0 7.307971-8.265669l-5.562014-45.542215a7.366906 7.366906 0 0 0-7.315338-6.468144z" fill="#3D3D3D" p-id="10250"></path><path d="M483.916763 9.238101v50.419108c0 28.288921-3.948662 121.966504-13.083626 199.937841-7.241669 61.771511-19.161324 112.684201-24.88541 120.441554-17.268029-2.983597-22.21859-5.849324-14.851683-8.589813 11.772317-50.861122 19.227626-86.583252 22.388029-107.159021 11.580777-75.636029 12.066993-121.35505 12.066992-135.624748V59.664576c-6.468144-24.959079-6.468144-40.827396 0-47.612317 2.563683-0.950331 8.69295-1.885928 18.365698-2.806791z" fill="#FFFFFF" opacity=".601" p-id="10251"></path><path d="M642.754634 480.484374a26.535597 26.535597 0 0 1 27.110215 17.474302l6.409209 17.81318a26.668201 26.668201 0 0 1-8.575079 29.953842 14.321266 14.321266 0 0 1-22.174388-5.93036l-15.485238-38.823597a14.991655 14.991655 0 0 1 12.715281-20.487367z" fill="#FFFFFF" opacity=".602" p-id="10252"></path></svg>