<?xml version="1.0" standalone="no"?><!DOCTYPE svg PUBLIC "-//W3C//DTD SVG 1.1//EN" "http://www.w3.org/Graphics/SVG/1.1/DTD/svg11.dtd"><svg t="1647743244037" class="icon" viewBox="0 0 1024 1024" version="1.1" xmlns="http://www.w3.org/2000/svg" p-id="27676" xmlns:xlink="http://www.w3.org/1999/xlink" width="200" height="200"><defs><style type="text/css">@font-face { font-family: feedback-iconfont; src: url("//at.alicdn.com/t/font_1031158_u69w8yhxdu.woff2?t=1630033759944") format("woff2"), url("//at.alicdn.com/t/font_1031158_u69w8yhxdu.woff?t=1630033759944") format("woff"), url("//at.alicdn.com/t/font_1031158_u69w8yhxdu.ttf?t=1630033759944") format("truetype"); }
</style></defs><path d="M448.66944 412.4544l48.20736-61.28128-152.49792-0.78848-124.13952 146.6688c-7.87712 9.61024-6.6176 18.432 0.7872 26.78144l176.9152 0.15744-0.15744-92.9472h-23.15776l14.17856-19.22048 59.8656 0.63104z m-94.36544-38.912h86.96064L430.39488 390.4l-56.0832 1.2608-44.2688 62.69952 39.3856-0.15744-0.63104 44.89856-112.32512-0.4736 97.83168-125.08416z" fill="#1E9346" p-id="27677"></path><path d="M419.3664 431.51744h34.0288l68.37248-80.3456 100.50944-0.15616-65.37856 80.18688-59.54944 0.31488v91.05792H419.3664zM651.264 350.2272h45.5296l100.6656-0.15744-65.37856 80.18688-42.21952 0.78848-76.72192 92.00256-103.02976-0.4736z" fill="#1E9346" p-id="27678"></path><path d="M205.11488 674.91456h90.74176v-9.61024H258.5216v-3.78112h35.91936v-8.03456h-35.91936v-4.56832h25.20704c6.144 0 9.13664-2.99264 9.13664-9.13664v-26.78144H258.52032v-3.93856h37.3376v-9.29536h-37.3376v-4.25344h26.30912c2.36288 0 4.25344-0.94464 5.6704-2.5216 1.41952-1.5744 2.048-3.30752 2.048-5.1968v-3.46624h-14.6496v0.31488c0 0.7872-0.15744 1.41824-0.63104 1.89056-0.31488 0.62976-1.10208 0.7872-2.048 0.7872h-68.68608l1.41824 8.192h34.97344v4.25344h-37.49504v9.29536h37.49504v3.93856H207.63648v35.76064h35.13088v4.5696h-36.23424v8.03328h36.23424v3.78112h-37.49504v9.7664h-0.15744z m37.49376-35.6032h-19.69152v-3.78112h19.69152v3.78112z m15.91168-3.78112h18.74688v1.5744c0 1.57568-0.62976 2.36416-2.20544 2.36416H258.5216v-3.93856z m-15.9104-8.82304h-19.6928v-4.25344h19.69152v4.25344z m15.9104-4.096h18.74688v4.25344H258.5216v-4.25344z m71.20768-19.37664h70.57664v-12.44544h-32.2944v-6.144h-15.43936v6.144h-38.28224v70.1056c0 1.5744-0.7872 2.3616-2.36288 2.3616h-2.52032l2.048 12.44544h9.13792c6.144 0 9.13664-2.99264 9.13664-9.13664v-63.33056z m25.20576 25.99424l-13.70496 30.87744c-1.10336 1.5744-2.5216 2.36288-4.25344 2.52032h-5.51424l2.048 12.44544h11.0272c3.3088 0 6.77504-2.048 10.08256-6.144l10.86976-23.63136 11.65824 23.15904c2.99392 4.56832 7.4048 6.9312 13.23392 6.9312h9.29408v-12.44544h-4.25344c-1.73312 0-3.3088-0.62976-4.25344-2.048l-12.7616-24.41856h-8.82176l3.3088-7.08864H399.36v-12.44544h-25.3632v-10.08256H358.4v10.08256h-25.3632v12.44544h21.89696v-0.15744z m145.56544 31.66464v-69.00224H481.28l0.4736-7.24608h-14.0224l-0.47232 7.24608h-8.192v12.44544h7.4048l-2.99392 55.61216c-0.15744 2.048-1.25952 2.99264-3.46496 2.99264h-3.78112l2.36288 12.44544h7.87712c6.77376 0 10.55488-3.15008 11.18464-9.61024l2.99392-61.44h4.72576v62.22848c0 6.144 2.99264 9.13664 9.13664 9.13664h10.7136v-12.44544h-2.36288c-1.57568 0-2.36416-0.94464-2.36416-2.36288z m-73.41184-34.18624l6.77376-22.37056h22.37056v-12.44544h-18.58944l2.20544-6.77376h-12.60288l-2.048 6.77376h-9.13792v12.44544h5.19936l-6.144 20.79616v14.17856H432.75776v8.66432h-17.9584v12.60288h17.9584v15.1232h14.8096v-15.1232h10.39744v-12.60288h-10.39744v-8.6656h9.92384v-12.44544h-9.92384v-16.384h-14.8096v16.384h-5.6704v-0.15744z m138.94784-41.27488h-16.54144l2.99392 6.77504h-11.02848v11.0272h26.78144l-2.20544 4.41088H544.29568V659.9488h52.93312c5.98656 0 8.9792-2.99392 9.13664-9.13792v-43.16544h-23.47264l2.048-4.41088h24.1024v-11.0272h-11.49952l4.25344-6.77504H585.2544l-4.25344 6.77504h-12.288l-2.67904-6.77504z m24.89216 59.70688v2.5216c0 1.5744-0.78848 2.36288-2.36416 2.36288h-28.672v-4.72704h31.03616v-0.15744z m-30.87872-8.66432v-4.8832h30.87872v4.8832h-30.87872z m0-13.8624v-5.19936h30.87872v5.19808h-30.87872zM522.39744 587.008v12.60288h15.28192V587.008h-15.28192z m16.384 75.776v-55.7696H519.08864v12.60416h4.096v41.90464c0 1.57568-0.62976 2.36416-2.20544 2.36416h-2.52032l2.048 11.8144h9.13792c2.52032 0 4.56832-0.47232 6.144-1.5744 1.5744 0.62976 3.30752 1.10208 5.19808 1.41696h68.8448v-12.288h-68.68736c-0.94464 0-1.5744-0.15744-2.36288-0.47232z m84.59776-60.6528h91.05792v-12.44544h-37.65248v-5.04064h-15.43808v5.04064h-38.1248v12.44544h0.15744z m57.02912 47.73504l24.576-23.15904h8.98048v-12.44544h-8.98048c-1.5744 0-2.67776-0.7872-3.46496-2.20544l-3.46624-6.144h-17.80224l7.08992 13.07648c1.73184 3.46496 4.096 5.82784 7.08864 6.9312h-11.65824l-13.8624 13.23264L654.41536 625.92h-9.13792c1.5744-0.7872 2.99392-2.048 4.25344-3.6224l8.98048-16.384h-17.80224l-3.78112 7.08864c-0.7872 1.10208-2.20544 1.5744-4.25344 1.5744h-9.4528l2.20544 12.44672h6.93248l25.04832 23.15776-11.0272 10.86976c-1.73312 1.2608-4.096 2.048-6.93248 2.048h-16.22656l2.20544 12.44544h21.89824c3.46624 0 6.6176-1.41696 9.7664-4.096l11.5008-10.86976 9.76768 9.13664c3.78112 3.93856 8.34944 5.82912 13.39136 5.82912h22.37056v-12.44544h-15.5968c-2.8352 0-5.19808-0.94464-6.9312-2.67776l-11.18592-10.55488z m136.4288 0v-45.37088h-8.98048l8.6656-7.87712v-10.24h-62.38592v10.24h43.95392l-8.6656 7.87712h-8.50688l-3.78112-4.5696h-17.80096l3.78112 4.5696h-8.98048V659.16032h14.02112v-12.60288h8.6656v12.60288h15.59552v-12.60288h10.55488v1.5744c0 1.57696-0.62976 2.20672-2.36288 2.20672h-3.3088l2.048 8.82176h8.34944c6.144-0.15744 9.13792-3.15008 9.13792-9.29408zM802.816 630.64576v5.3568h-10.55488v-5.3568h10.55488z m-25.99424 0v5.3568h-8.66432v-5.3568h8.6656z m0-10.24h-8.66432v-5.6704h8.6656v5.6704z m15.43936-5.6704h10.55488v5.6704h-10.55488v-5.6704zM731.45088 587.008v12.60288h16.384V587.008h-16.384z m17.01376 75.3024v-56.71296h-20.16512v12.60288h4.5696v42.69312c0 1.5744-0.78848 2.36288-2.36288 2.36288h-2.99392l2.048 12.44544h9.61024c2.5216 0 4.72576-0.62976 6.144-1.73312 1.5744 1.10336 3.46624 1.57568 5.6704 1.73312h67.90016v-12.44544h-67.42656a9.504 9.504 0 0 1-2.99392-0.94464z" fill="#1E9346" p-id="27679"></path><path d="M767.05536 495.47776c10.08128 0 18.27328 8.192 18.27328 18.27456 0 10.08256-8.192 18.27456-18.27328 18.27456-10.08256 0-18.27456-8.03456-18.27456-18.27456 0.15744-10.08256 8.34944-18.27456 18.27456-18.27456z m0 3.46624c8.192 0 14.80832 6.6176 14.80832 14.8096s-6.6176 14.80704-14.8096 14.80704-14.80832-6.61632-14.80832-14.80832c0-8.192 6.6176-14.80832 14.8096-14.80832z" fill="#1E9346" p-id="27680"></path><path d="M758.2336 525.25312v-23.0016h10.24c2.048 0 3.6224 0.15872 4.72576 0.63104 1.10208 0.31488 1.88928 1.10208 2.52032 2.20544 0.62976 1.10336 0.94464 2.20544 0.94464 3.46624 0 1.5744-0.62976 2.99264-1.5744 4.096-1.10336 1.10208-2.67904 1.89056-4.88448 2.048 0.7872 0.47232 1.41824 0.7872 1.89056 1.10208 0.94464 0.78848 1.73312 1.89056 2.5216 2.99392l3.93728 6.30144h-3.78112l-2.99264-4.72704c-0.94592-1.41696-1.5744-2.52032-2.20544-3.15008-0.63104-0.62976-1.10336-1.2608-1.57568-1.5744-0.4736-0.31616-0.94464-0.63104-1.41824-0.63104-0.31488 0-0.94464-0.15744-1.73312-0.15744h-3.46496v10.24h-3.15136v0.15744z m2.99264-12.7616h6.61632c1.41824 0 2.5216-0.15616 3.3088-0.47232 0.7872-0.15744 1.41696-0.62976 1.88928-1.41696 0.31616-0.63104 0.63104-1.2608 0.63104-2.048 0-1.10336-0.31488-2.048-1.10336-2.83648-0.7872-0.62976-2.048-1.10208-3.78112-1.10208h-7.40352v7.87712h-0.15744z" fill="#1E9346" p-id="27681"></path></svg>