<?xml version="1.0" standalone="no"?><!DOCTYPE svg PUBLIC "-//W3C//DTD SVG 1.1//EN" "http://www.w3.org/Graphics/SVG/1.1/DTD/svg11.dtd"><svg t="1647743278685" class="icon" viewBox="0 0 1024 1024" version="1.1" xmlns="http://www.w3.org/2000/svg" p-id="27964" xmlns:xlink="http://www.w3.org/1999/xlink" width="200" height="200"><defs><style type="text/css">@font-face { font-family: feedback-iconfont; src: url("//at.alicdn.com/t/font_1031158_u69w8yhxdu.woff2?t=1630033759944") format("woff2"), url("//at.alicdn.com/t/font_1031158_u69w8yhxdu.woff?t=1630033759944") format("woff"), url("//at.alicdn.com/t/font_1031158_u69w8yhxdu.ttf?t=1630033759944") format("truetype"); }
</style></defs><path d="M102.89 520.25a400.12 283.92 0 1 0 800.24 0 400.12 283.92 0 1 0-800.24 0Z" fill="#FFE4CA" p-id="27965"></path><path d="M163.97 525.25a339.04 237.01 0 1 0 678.08 0 339.04 237.01 0 1 0-678.08 0Z" fill="#754C24" p-id="27966"></path><path d="M455.86 581.15a53.6 53.6 0 0 1-0.34 13.2c-0.08 0.56-0.12 1.12-0.24 1.66l-0.35 1.64c-0.26 1.09-0.46 2.2-0.77 3.28a59.33 59.33 0 0 1-18.08 28.54l-2.72 2.17-1.36 1.08-1.44 1-2.92 1.91-3.08 1.67-1.54 0.83-1.6 0.71-3.22 1.39-3.32 1.11-1.67 0.55c-0.56 0.17-1.13 0.3-1.69 0.46a62.71 62.71 0 0 1-13.92 1.95 61.83 61.83 0 0 1-14-1.29 64.68 64.68 0 0 1-13.36-4.44 62.79 62.79 0 0 1-12-7.36 60 60 0 0 1-17.35-21.63 59.18 59.18 0 0 1-5.72-26.65 55.37 55.37 0 0 1 1.95-13.31 56.35 56.35 0 0 1 2.13-6.31 53.92 53.92 0 0 1 2.9-5.91c-0.54 2.12-1.1 4.21-1.45 6.34a57.74 57.74 0 0 0-0.85 6.36 62.4 62.4 0 0 0 0.23 12.61 60.19 60.19 0 0 0 7.77 23.21 57.51 57.51 0 0 0 37.78 27.3 53.4 53.4 0 0 0 11.83 1.22 57.14 57.14 0 0 0 11.86-1.3c0.49-0.11 1-0.19 1.47-0.32l1.44-0.41 2.89-0.82 2.82-1 1.41-0.51 1.37-0.63 2.74-1.27 2.63-1.48 1.32-0.73 1.26-0.85 2.53-1.69c13.13-9.64 22.27-24.96 24.66-42.28z" fill="#FFD5B3" p-id="27967"></path><path d="M469.64 603.7a71.07 71.07 0 0 1-13.39 28.5 75 75 0 0 1-24.74 20.62 78.27 78.27 0 0 1-48 7.85A78.66 78.66 0 0 1 340 638.54a77.56 77.56 0 0 1-17.67-27.46 76.08 76.08 0 0 1-4.68-31.88 72.1 72.1 0 0 1 2.87-15.69 73.12 73.12 0 0 1 2.68-7.44c0.51-1.21 1.11-2.38 1.66-3.57s1.23-2.31 1.85-3.45l-1.12 3.73c-0.32 1.26-0.68 2.5-0.95 3.76a73.31 73.31 0 0 0-1.41 7.56 82.07 82.07 0 0 0-0.67 15.16 78.75 78.75 0 0 0 7 28.81 76.25 76.25 0 0 0 17 23.66 71.73 71.73 0 0 0 11.53 8.87 74.06 74.06 0 0 0 13 6.49 71.53 71.53 0 0 0 14 3.85 74 74 0 0 0 14.5 1.07 76.78 76.78 0 0 0 28.5-6.26c18.18-7.75 33.22-22.94 41.55-42.05z" fill="#FFD5B3" p-id="27968"></path><path d="M479.24 629.54a89.6 89.6 0 0 1-22.93 29.23 94 94 0 0 1-33.31 18 96.78 96.78 0 0 1-57-0.25 98.38 98.38 0 0 1-33.77-18.45 98.45 98.45 0 0 1-13.5-13.81 96.57 96.57 0 0 1-17.51-34 94.4 94.4 0 0 1-2.83-37.75 89.68 89.68 0 0 1 12.21-35.08 104.72 104.72 0 0 0-7.32 35.47 97.87 97.87 0 0 0 5.45 35 95.59 95.59 0 0 0 17.33 30.36A95.06 95.06 0 0 0 386 671a96.05 96.05 0 0 0 34.92-1.81 97.44 97.44 0 0 0 32.41-14.3 104 104 0 0 0 25.91-25.35z" fill="#FFD5B3" p-id="27969"></path><path d="M487.08 655.76a110.15 110.15 0 0 1-32.6 29.86 116 116 0 0 1-42.22 15.24 118 118 0 0 1-66.88-9.2 119.06 119.06 0 0 1-51.19-44.36 117.6 117.6 0 0 1-16.58-42.16 116.06 116.06 0 0 1-1.95-22.53 118.58 118.58 0 0 1 2.46-22.36 112 112 0 0 1 17.55-40.59 127.55 127.55 0 0 0-12.7 41.4 115.35 115.35 0 0 0-0.76 21.41 119.31 119.31 0 0 0 3 21.07c0.42 1.72 0.91 3.42 1.36 5.13s1.06 3.38 1.59 5.06 1.19 3.33 1.78 5 1.35 3.26 2 4.9a118.46 118.46 0 0 0 10.14 18.49 115.68 115.68 0 0 0 13.26 16.33 117.85 117.85 0 0 0 34.12 24.27 116.58 116.58 0 0 0 19.78 7.18 119.22 119.22 0 0 0 42 3.26c1.77-0.16 3.52-0.44 5.28-0.66s3.5-0.6 5.25-0.89 3.47-0.75 5.2-1.16 3.46-0.85 5.17-1.36a117.29 117.29 0 0 0 20-7.75 125.46 125.46 0 0 0 34.94-25.58z" fill="#FFD5B3" p-id="27970"></path><path d="M491.9 677.36a127.91 127.91 0 0 1-40.72 30.11c-1.92 1-3.91 1.73-5.88 2.59s-4 1.6-6 2.29-4.06 1.38-6.11 2-4.19 1.17-6.19 1.75a136 136 0 0 1-76.8-3.09 136.67 136.67 0 0 1-23.77-10.7 137.51 137.51 0 0 1-39.48-33.76 136.81 136.81 0 0 1-24-45.95 135 135 0 0 1-5-25.45 133.42 133.42 0 0 1 4.58-51.15A130.81 130.81 0 0 1 286 501.17a147.34 147.34 0 0 0-18.73 46.08 137.8 137.8 0 0 0-3 24.47c0 2-0.11 4.1-0.08 6.15l0.17 6.13c0.31 4.08 0.61 8.16 1.27 12.19l0.43 3 0.6 3c0.43 2 0.73 4 1.3 6l1.51 5.92 1.81 5.83a138.08 138.08 0 0 0 9.72 22.29 135.2 135.2 0 0 0 72.26 61.85 136 136 0 0 0 23.52 6.22 135.71 135.71 0 0 0 48.72-0.57c2-0.42 4-0.78 6-1.26s4-1 6-1.57 3.94-1.2 5.91-1.81 3.9-1.35 5.81-2.11a143.47 143.47 0 0 0 42.68-25.62z" fill="#FFD5B3" p-id="27971"></path><path d="M550.54 515.91l30.71 0 0 23.96-30.71 0 0-23.96Z" fill="#C1272D" p-id="27972"></path><path d="M548.16 512.64l30.71 0 0 23.96-30.71 0 0-23.96Z" fill="#ED1C24" p-id="27973"></path><path d="M302 511.11c-7.54-12.27-9.48-28.3-5-42.73a52.15 52.15 0 0 1 11-19.8 24.55 24.55 0 0 1 2-2.07l2.08-2c1.48-1.24 3-2.43 4.57-3.59l2.47-1.53a21.16 21.16 0 0 1 2.58-1.39 42.28 42.28 0 0 1 5.35-2.34 43.81 43.81 0 0 1 23-2 45.68 45.68 0 0 1 20.71 9.74 49.64 49.64 0 0 1 17.59 39.24 60.77 60.77 0 0 0-7.68-19.51 48.88 48.88 0 0 0-6.18-8.14c-1.18-1.21-2.43-2.34-3.63-3.52s-2.61-2.09-3.94-3.09a42.86 42.86 0 0 0-18.1-7.23 16.28 16.28 0 0 0-2.41-0.25l-2.41-0.2-2.43 0.08a15 15 0 0 0-2.41 0.17 34.66 34.66 0 0 0-4.77 0.8c-0.78 0.2-1.57 0.37-2.35 0.57l-2.29 0.82a42 42 0 0 0-16.21 10.6 50.46 50.46 0 0 0-10.68 16.69 58.13 58.13 0 0 0-2.9 9.71c-0.27 1.68-0.66 3.36-0.77 5.07-0.08 0.85-0.19 1.71-0.24 2.57s0 1.71-0.09 2.58a24.86 24.86 0 0 0 0 2.59c0 0.87 0 1.74 0.08 2.61l0.26 2.6 0.13 1.3 0.2 1.3 0.42 2.61 0.6 2.58 0.29 1.3 0.39 1.28q0.41 1.28 0.77 2.58z" fill="#FFD5B3" p-id="27974"></path><path d="M284.28 499.68a68 68 0 0 1 6.63-50.7 64 64 0 0 1 17.72-20 56.8 56.8 0 0 1 38.58-11 55.68 55.68 0 0 1 13.34 2.79 58.57 58.57 0 0 1 22.71 14.27A65.11 65.11 0 0 1 402 482.6a78.33 78.33 0 0 0-8-23.78 65.87 65.87 0 0 0-15-19.16 60.69 60.69 0 0 0-9.79-7 56 56 0 0 0-10.99-4.66 50.54 50.54 0 0 0-11.62-2.14 51.51 51.51 0 0 0-11.77 0.53 53.61 53.61 0 0 0-21.83 8.77 62.84 62.84 0 0 0-16.75 17.1 70.5 70.5 0 0 0-9.8 22.4 81.29 81.29 0 0 0-2.17 25.02z" fill="#FFD5B3" p-id="27975"></path><path d="M268.19 484.05a83.09 83.09 0 0 1 4.29-30.05 82.09 82.09 0 0 1 15.17-26.89 75.25 75.25 0 0 1 24.71-19.2 70.2 70.2 0 0 1 61.5 0.36 75.07 75.07 0 0 1 24.51 19.46 82.73 82.73 0 0 1 18.92 57.13 99.33 99.33 0 0 0-7.67-28.7 85.32 85.32 0 0 0-16-24.27 73.84 73.84 0 0 0-23.06-16.77 66.44 66.44 0 0 0-55-0.34 74.09 74.09 0 0 0-23.24 16.53 84.78 84.78 0 0 0-16.19 24.12 99.33 99.33 0 0 0-7.94 28.62z" fill="#FFD5B3" p-id="27976"></path><path d="M253.18 467.43a99.56 99.56 0 0 1 10.43-34.55 102.65 102.65 0 0 1 9.87-15.45A95 95 0 0 1 286.17 404c1.15-1 2.38-2 3.57-3s2.47-1.86 3.71-2.79 2.57-1.74 3.89-2.57 2.64-1.62 4-2.36a90.09 90.09 0 0 1 17.19-7.28 84.77 84.77 0 0 1 18.47-3.39 89 89 0 0 1 18.74 0.73 86.58 86.58 0 0 1 18.13 4.81 89.6 89.6 0 0 1 16.63 8.58 94.7 94.7 0 0 1 26.27 26 102.54 102.54 0 0 1 9 16.08 108.71 108.71 0 0 1 5.93 17.33 104 104 0 0 1 2.39 36 121.61 121.61 0 0 0-6.16-34.92 108.38 108.38 0 0 0-16.2-30.86 95.94 95.94 0 0 0-25.3-23.27 84.1 84.1 0 0 0-15.43-7.55 79.8 79.8 0 0 0-16.5-4.29 81.27 81.27 0 0 0-33.88 2.05 86.64 86.64 0 0 0-30.5 15.53 101.22 101.22 0 0 0-23.12 26 115.34 115.34 0 0 0-13.82 32.6z" fill="#FFD5B3" p-id="27977"></path><path d="M241.93 453.05a114.17 114.17 0 0 1 15.82-38.18 109.8 109.8 0 0 1 29.06-30.14 99.33 99.33 0 0 1 39-16.34 96.91 96.91 0 0 1 21.31-1.51 100.1 100.1 0 0 1 21.15 3.17 102.66 102.66 0 0 1 20 7.63 105.6 105.6 0 0 1 17.9 11.59 114.08 114.08 0 0 1 27.26 32.2 122.17 122.17 0 0 1 14 80.73 140.61 140.61 0 0 0-3.85-40.53 126.36 126.36 0 0 0-15.55-37 116.17 116.17 0 0 0-26.6-29.45 99 99 0 0 0-35.19-17.44 94.48 94.48 0 0 0-39.14-2A93.21 93.21 0 0 0 308 381a103.77 103.77 0 0 0-17.74 8.93 109.19 109.19 0 0 0-15.8 12.26c-2.5 2.24-4.82 4.67-7.1 7.15s-4.39 5.1-6.41 7.8a129.51 129.51 0 0 0-19.02 35.91z" fill="#FFD5B3" p-id="27978"></path><path d="M210.52 473.45c19.93 20.74 40.61 40.69 63.36 57.73 5.65 4.28 11.44 8.37 17.36 12.22s11.93 7.51 18.09 10.86a191.21 191.21 0 0 0 38.4 16.08 136.89 136.89 0 0 0 20.08 4.32l2.54 0.34c0.84 0.11 1.68 0.24 2.53 0.29l5.08 0.44c1.69 0.12 3.39 0.13 5.08 0.2 0.85 0 1.7 0.07 2.54 0.06h2.54l2.54-0.06c0.84 0 1.69 0 2.53-0.12l5.05-0.4c1.68-0.16 3.34-0.44 5-0.64s3.33-0.51 5-0.82a107.82 107.82 0 0 0 19.34-5.42 137.68 137.68 0 0 0 18.3-8.69 196.73 196.73 0 0 0 17.37-11.19c11.36-8.09 22.44-17.14 34.07-25.94s24-17.15 37.43-24a187 187 0 0 1 20.76-8.94 177.31 177.31 0 0 1 21.8-6 173 173 0 0 1 44.85-3.11c15 0.75 29.63 3.72 43.84 7.72l5.31 1.54c1.78 0.5 3.55 1 5.27 1.67l10.42 3.68 2.59 0.94 2.53 1.07 5 2.17 5 2.18c1.68 0.73 3.38 1.42 5 2.28a355 355 0 0 1 38.11 21.3 493.07 493.07 0 0 1 68.22 53.23c-23.48-16.64-47.32-32.61-72.44-46-6.18-3.55-12.63-6.53-19-9.66l-4.77-2.33-4.88-2.1-9.74-4.18c-1.6-0.74-3.27-1.3-4.93-1.91l-5-1.82-4.94-1.84-2.48-0.91-2.52-0.77-10.06-3.07c-1.66-0.55-3.37-0.93-5.06-1.35l-5.09-1.24-5.01-1.26c-1.7-0.37-3.42-0.63-5.13-1l-5.13-0.92c-1.71-0.3-3.41-0.65-5.14-0.8l-10.31-1.21-10.33-0.54a165.53 165.53 0 0 0-40.8 3.89 179 179 0 0 0-19.59 5.79 172.18 172.18 0 0 0-18.68 8.35c-12.16 6.31-23.62 14.16-34.9 22.67s-22.53 17.58-34.64 26-25.31 16.15-39.76 21.27a124.58 124.58 0 0 1-22.23 5.68c-1.88 0.31-3.77 0.63-5.67 0.79s-3.79 0.43-5.69 0.55l-5.7 0.26c-0.95 0.07-1.9 0.07-2.85 0h-5.7c-0.94 0-1.89-0.11-2.84-0.17-1.89-0.13-3.78-0.21-5.67-0.4l-5.63-0.67c-1.88-0.21-3.73-0.61-5.59-0.92a149.36 149.36 0 0 1-21.8-5.64 168.49 168.49 0 0 1-20.65-8.47 200.09 200.09 0 0 1-19.37-10.71c-6.23-3.91-12.32-8-18.13-12.44s-11.52-9-17-13.81a409.06 409.06 0 0 1-58.08-64.1z" fill="#F15A24" p-id="27979"></path><path d="M472.3 575.79l28.79 0 0 22.46-28.79 0 0-22.46Z" fill="#5F891B" p-id="27980"></path><path d="M467.15 568.46l28.79 0 0 22.46-28.79 0 0-22.46Z" fill="#8CC63F" p-id="27981"></path><path d="M411.77 615.32a66 66 0 0 1-2.23-13 71.89 71.89 0 0 1 0.46-13.42 73.55 73.55 0 0 1 3.07-13.25l1.15-3.23c0.43-1.06 0.9-2.11 1.34-3.17s1-2.08 1.48-3.11 1-2.08 1.61-3.05a75.4 75.4 0 0 1 17.77-21.18A74.19 74.19 0 0 1 448 534a80.88 80.88 0 0 1 12.84-5.6 75.91 75.91 0 0 1 54.51 2.54 71.57 71.57 0 0 1 22.36 15.54 64.87 64.87 0 0 1 14.42 22.25 88.74 88.74 0 0 0-18.29-17.8 77.87 77.87 0 0 0-21.9-11.19c-1.92-0.65-3.88-1.17-5.84-1.65l-3-0.66-3-0.53a78.14 78.14 0 0 0-12-0.91 73.39 73.39 0 0 0-11.94 1 69.65 69.65 0 0 0-11.6 2.84 75.7 75.7 0 0 0-38 28.27 79.35 79.35 0 0 0-6.27 10.52 83.36 83.36 0 0 0-4.61 11.54 89.55 89.55 0 0 0-2.86 12.31 109.08 109.08 0 0 0-1.05 12.85z" fill="#FFD5B3" p-id="27982"></path><path d="M389.46 616.05a83.45 83.45 0 0 1-1.46-9.22c-0.17-1.55-0.2-3.11-0.3-4.68s-0.1-3.13-0.1-4.7a90.17 90.17 0 0 1 2-18.83 95.17 95.17 0 0 1 15.45-35 98.53 98.53 0 0 1 28.18-26.57 98.16 98.16 0 0 1 36.5-13.69 105 105 0 0 1 19.55-1.22 101.26 101.26 0 0 1 19.39 2.6A98.43 98.43 0 0 1 543.9 521a96.87 96.87 0 0 1 25.75 28.29 91.69 91.69 0 0 1 7.93 17.21 90.69 90.69 0 0 1 2.57 9c0.37 1.52 0.6 3.07 0.9 4.59s0.45 3.08 0.65 4.62l-1.55-4.37c-0.58-1.44-1.09-2.88-1.72-4.28-1.2-2.83-2.46-5.61-3.91-8.28a107.33 107.33 0 0 0-9.75-15.22 101.73 101.73 0 0 0-26.18-23.79 98.07 98.07 0 0 0-32.33-12.93 98.12 98.12 0 0 0-34.57-0.65 96.51 96.51 0 0 0-59.13 34.12 99.43 99.43 0 0 0-17.27 30.85 108.9 108.9 0 0 0-5.83 35.89z" fill="#FFD5B3" p-id="27983"></path><path d="M364.27 613.5a115.59 115.59 0 0 1 3.88-49.43 121.12 121.12 0 0 1 24.38-44.18A122.78 122.78 0 0 1 433.14 489a124.92 124.92 0 0 1 24.31-8.5 125.72 125.72 0 0 1 51.25-1.36 125.51 125.51 0 0 1 24.72 7.2A122.62 122.62 0 0 1 575.63 515a121.08 121.08 0 0 1 26.7 42.83 115.27 115.27 0 0 1 6.46 49.17 130.85 130.85 0 0 0-11.91-46.92A124.2 124.2 0 0 0 569 521.73 120.91 120.91 0 0 0 529.25 497a121.21 121.21 0 0 0-69.14-4.9 119 119 0 0 0-22.25 7.3 120.89 120.89 0 0 0-38.39 26.86A124.15 124.15 0 0 0 373.68 566a131.25 131.25 0 0 0-9.41 47.5z" fill="#FFD5B3" p-id="27984"></path><path d="M336.51 603.56a142.48 142.48 0 0 1 10.68-61.1 152.34 152.34 0 0 1 15.08-27.73 149.78 149.78 0 0 1 75.07-56.84 151.76 151.76 0 0 1 31.23-7.14 153.38 153.38 0 0 1 63.53 5.76 151.61 151.61 0 0 1 76.9 54.85 148.28 148.28 0 0 1 16 27.41 151.1 151.1 0 0 1 9.74 30 147.83 147.83 0 0 1 3.05 31.2 136.24 136.24 0 0 1-3.65 30.84c0.52-5.14 0.86-10.27 0.9-15.4 0-2.56 0-5.12-0.08-7.68s-0.32-5.1-0.49-7.64a152.26 152.26 0 0 0-5.45-29.91 148.72 148.72 0 0 0-27.53-53.09A150.35 150.35 0 0 0 556 479.21a142.71 142.71 0 0 0-27.39-11.36 144.46 144.46 0 0 0-29.07-5.61 148.56 148.56 0 0 0-58.64 6.42 149.22 149.22 0 0 0-51.67 29 151.69 151.69 0 0 0-36.71 47.25 156.73 156.73 0 0 0-16.01 58.65z" fill="#FFD5B3" p-id="27985"></path><path d="M314.06 589.39a169 169 0 0 1 1.74-17.92c0.23-1.48 0.44-3 0.72-4.46l0.89-4.43 0.45-2.21 0.54-2.2 1.08-4.4c0.36-1.47 0.83-2.91 1.24-4.36s0.83-2.92 1.33-4.34l1.49-4.29 0.76-2.15 0.83-2.11 1.68-4.23c0.58-1.4 1.23-2.78 1.84-4.17s1.21-2.79 1.91-4.14l2-4.08a175.73 175.73 0 0 1 61.54-66.72c0.65-0.41 1.29-0.85 1.94-1.25l2-1.15 4-2.31c1.32-0.79 2.71-1.47 4.08-2.17l4.11-2.1A170.11 170.11 0 0 1 445 431.61a174.84 174.84 0 0 1 141.68 25.94 172.77 172.77 0 0 1 28 24.14l6.21 6.84 5.73 7.24c2 2.37 3.59 5 5.34 7.53l2.59 3.81 0.64 1 0.59 1 1.16 2a165.41 165.41 0 0 1 15.52 33.28l1.44 4.35c0.24 0.73 0.5 1.45 0.71 2.18l0.58 2.22 2.3 8.87 1.73 9 0.43 2.24 0.29 2.27 0.55 4.53 0.54 4.53 0.24 4.55 0.24 4.55 0.12 2.27v2.28l-0.11 9.08-0.72 9-0.19 2.26-0.34 2.24-0.66 4.48-0.67 4.46-1 4.42-1 4.4-0.49 2.2-0.63 2.16-2.55 8.63 1.63-8.83 0.42-2.19 0.27-2.23 0.54-4.44 0.57-4.42 0.3-4.45 0.28-4.45 0.15-2.22V607.23l-0.51-8.86-0.13-2.2-0.27-2.2-0.54-4.39-0.54-4.39-0.82-4.34-0.79-4.33-0.4-2.17-0.52-2.14-2.13-8.54-2.68-8.38-0.66-2.09c-0.25-0.69-0.53-1.36-0.8-2l-1.61-4.08A164.77 164.77 0 0 0 629 516a174.78 174.78 0 0 0-48.68-49A170.43 170.43 0 0 0 482 438.46a170.75 170.75 0 0 0-97.28 32.82 177.55 177.55 0 0 0-26 23.32 166.47 166.47 0 0 0-21 28.16 175.49 175.49 0 0 0-15.08 32l-1.42 4.24-0.71 2.11-0.62 2.14-1.24 4.29c-0.39 1.43-0.71 2.88-1.08 4.32-1.52 5.73-2.52 11.62-3.51 17.53z" fill="#FFD5B3" p-id="27986"></path><path d="M231.66 531c4.65 4.78 9.27 9.56 14 14.2s9.48 9.29 14.37 13.77c9.76 8.94 19.78 17.56 30.24 25.51a283.6 283.6 0 0 0 32.62 21.69 191.22 191.22 0 0 0 35.24 15.65 134.94 134.94 0 0 0 37.18 6.66c3.12 0.09 6.25 0.06 9.36-0.08s6.23-0.43 9.31-0.85 6.14-0.91 9.17-1.56 6-1.44 9-2.35a131.68 131.68 0 0 0 33.59-16.45c10.62-7.07 20.88-15.19 31.44-23.4a319.06 319.06 0 0 1 33.5-23.42 167.33 167.33 0 0 1 38.27-16.81c3.36-1 6.75-1.86 10.17-2.62s6.66-1.36 10-2c6.66-1.24 13.45-2.34 20.34-3a154.78 154.78 0 0 1 41.62 1.21 164.31 164.31 0 0 1 20.22 4.68 204.05 204.05 0 0 1 19.34 7 254.81 254.81 0 0 1 36 18.92A354.79 354.79 0 0 1 759.43 591c2.64 2.05 5.2 4.2 7.77 6.34l3.85 3.2 3.79 3.27q7.54 6.58 14.8 13.46-4.12-2.82-8.2-5.7c-2.7-1.94-5.51-3.74-8.25-5.62l-4.1-2.81-4.17-2.73c-2.77-1.82-5.53-3.65-8.36-5.38-11.19-7.08-22.57-13.8-34.24-19.82-2.92-1.5-5.82-3-8.79-4.39l-4.43-2.11-4.48-2c-3-1.38-6-2.54-9-3.79-1.5-0.63-3-1.15-4.55-1.73s-3-1.16-4.57-1.65c-6.1-2.16-12.29-4-18.52-5.48a168.75 168.75 0 0 0-18.82-3.38 150.2 150.2 0 0 0-18.95-1 152.83 152.83 0 0 0-19 1.44c-6.32 0.84-12.64 2-19 3.38-3.16 0.67-6.49 1.4-9.48 2.13s-6.1 1.57-9.1 2.52a144.88 144.88 0 0 0-17.61 6.75 180.64 180.64 0 0 0-16.77 8.88c-10.94 6.52-21.28 14.31-31.77 22.34s-21 16.49-32.73 23.94a173.55 173.55 0 0 1-18.27 10.25 126.76 126.76 0 0 1-19.88 7.5q-5.13 1.44-10.37 2.45c-3.49 0.66-7 1.16-10.53 1.53s-7.05 0.52-10.57 0.59-7.06 0-10.57-0.26a143.23 143.23 0 0 1-40.76-9 190.41 190.41 0 0 1-36.57-18.71 261 261 0 0 1-32.15-24.75 347.08 347.08 0 0 1-28.33-28.57q-6.65-7.51-13-15.29c-4.07-5.19-8.17-10.45-12.09-15.8z" fill="#F15A24" p-id="27987"></path><path d="M506.66 449.34a33.78 33.78 0 0 1 6.37-24.9 36.36 36.36 0 0 1 4.49-5 27 27 0 0 1 2.6-2.18l1.37-1a11.18 11.18 0 0 1 1.4-1 36.17 36.17 0 0 1 12.61-5.07 37 37 0 0 1 26.24 4.47 35.41 35.41 0 0 1 9.87 8.87 31 31 0 0 1 5.65 11.62 41.12 41.12 0 0 0-7.84-9.65 39.47 39.47 0 0 0-9.9-6.68 37 37 0 0 0-22.84-2.75 34.56 34.56 0 0 0-10.85 4.05 8.7 8.7 0 0 0-1.24 0.75l-1.23 0.8c-0.83 0.52-1.6 1.12-2.38 1.72a39.91 39.91 0 0 0-4.3 4 40.69 40.69 0 0 0-10.02 21.95z" fill="#FFD5B3" p-id="27988"></path><path d="M494.51 451.78a43.05 43.05 0 0 1 4.64-31.63 46.28 46.28 0 0 1 4.81-6.84 34.41 34.41 0 0 1 2.88-3l1.53-1.44a16 16 0 0 1 1.59-1.38 45.21 45.21 0 0 1 14.71-8.08 46.26 46.26 0 0 1 32.87 1.4 44.85 44.85 0 0 1 13.61 9.19 39.76 39.76 0 0 1 9 13.31 49.78 49.78 0 0 0-11-11.09 48.61 48.61 0 0 0-13.38-7.08 46.2 46.2 0 0 0-29.28-0.1l-1.75 0.6-0.88 0.3-0.84 0.39c-1.12 0.53-2.27 1-3.36 1.57l-3.22 1.84-3 2.14a12.49 12.49 0 0 0-1.45 1.16l-1.42 1.22a34.47 34.47 0 0 0-2.72 2.55 48.07 48.07 0 0 0-4.74 5.81 49.88 49.88 0 0 0-8.6 29.16z" fill="#FFD5B3" p-id="27989"></path><path d="M480.89 452.23a56.22 56.22 0 0 1 0.43-22.77 58.31 58.31 0 0 1 9.54-21.12 60.05 60.05 0 0 1 17.11-16 60.14 60.14 0 0 1 45.58-7.4 60.23 60.23 0 0 1 21.33 9.7 59.33 59.33 0 0 1 15.72 17 55.61 55.61 0 0 1 7.66 21.43 63.25 63.25 0 0 0-26-34.59 59.56 59.56 0 0 0-19.91-8c-0.88-0.16-1.75-0.39-2.64-0.51l-2.66-0.33a43.59 43.59 0 0 0-5.36-0.35A53.94 53.94 0 0 0 531 390a56.75 56.75 0 0 0-20.09 7.18 59.81 59.81 0 0 0-16.32 14 60.45 60.45 0 0 0-10.43 19.07 65.4 65.4 0 0 0-3.27 21.98z" fill="#FFD5B3" p-id="27990"></path><path d="M465.52 450.67a71.28 71.28 0 0 1 2.67-30.07 75.07 75.07 0 0 1 6.07-14.11 75.4 75.4 0 0 1 33.57-31.23 76.93 76.93 0 0 1 30.2-7.13 75.94 75.94 0 0 1 30.53 5.52 74.6 74.6 0 0 1 42 43.17 71.2 71.2 0 0 1 4.25 29.89 79.19 79.19 0 0 0-7-28.78 75.44 75.44 0 0 0-17-23.67 78.18 78.18 0 0 0-11.47-8.89 71.61 71.61 0 0 0-12.94-6.44A74 74 0 0 0 486.61 397 75.56 75.56 0 0 0 471 421.57a78.93 78.93 0 0 0-5.48 29.1z" fill="#FFD5B3" p-id="27991"></path><path d="M448.57 444.6a87.8 87.8 0 0 1 6.81-37.17 91.75 91.75 0 0 1 54.95-51.17 94.09 94.09 0 0 1 38.38-4.57 92.14 92.14 0 0 1 65.81 36.95 89.36 89.36 0 0 1 17.84 53.79 85.46 85.46 0 0 1-2 18.83 92.74 92.74 0 0 0 0.64-9.4 88.7 88.7 0 0 0-0.26-9.37 92.93 92.93 0 0 0-3.19-18.33 91.18 91.18 0 0 0-16.7-32.66c-15.26-19.2-38.33-31.85-62.64-33.84a90.67 90.67 0 0 0-67.77 21.87 92.85 92.85 0 0 0-22.35 29.11 94.86 94.86 0 0 0-9.52 35.96z" fill="#FFD5B3" p-id="27992"></path><path d="M434.86 436c0.25-3.64 0.56-7.3 1.16-10.92a105.38 105.38 0 0 1 79-84.79 109.09 109.09 0 0 1 44.69-1.33A105.88 105.88 0 0 1 618 370.61l3.79 4.14 3.49 4.39c1.2 1.43 2.19 3 3.26 4.55s2.14 3.07 3 4.71a100 100 0 0 1 9.5 20.19c1.29 3.49 2.17 7.11 3.12 10.7l1.08 5.46 0.26 1.36 0.18 1.38 0.36 2.76 0.34 2.75 0.16 2.77 0.17 2.77 0.08 1.38v6.92l-0.41 5.52-0.1 1.37-0.2 1.37-0.38 2.73-0.39 2.73-0.56 2.7-0.58 2.68-0.29 1.35-0.37 1.32-1.5 5.28 1-5.38 0.27-1.34 0.17-1.35 0.36-2.71 0.36-2.7 0.2-2.72 0.2-2.72 0.09-1.35V446.82l-0.27-5.41-0.07-1.36-0.16-1.34-0.31-2.69-0.31-2.69-0.49-2.66-0.47-2.66-0.23-1.32-0.32-1.32-1.28-5.24c-1.08-3.43-2.08-6.87-3.47-10.18a100.83 100.83 0 0 0-9.77-19.06 106.2 106.2 0 0 0-29.82-30.21 104.59 104.59 0 0 0-18.77-10 102.4 102.4 0 0 0-20.43-5.88 104.71 104.71 0 0 0-80.88 18.62 108.21 108.21 0 0 0-15.9 14.36A102.44 102.44 0 0 0 449 395.11a107.18 107.18 0 0 0-12.12 30.1c-0.88 3.53-1.47 7.12-2.02 10.79z" fill="#FFD5B3" p-id="27993"></path><path d="M640 510.7c-2-10.38 0.48-21.85 6.65-31.21a46.23 46.23 0 0 1 11.75-12.13c1.17-0.81 2.41-1.53 3.63-2.28a13.83 13.83 0 0 1 1.9-1l1.94-0.94a30.2 30.2 0 0 1 4-1.55c0.69-0.23 1.36-0.49 2.06-0.68l2.1-0.5a42.35 42.35 0 0 1 33 6 41.52 41.52 0 0 1 11.66 11.82c0.7 1.18 1.49 2.29 2.09 3.5s1.18 2.44 1.67 3.7a35.5 35.5 0 0 1 2.06 7.7 55.54 55.54 0 0 0-9.61-11.78 47.1 47.1 0 0 0-11.78-8.13 40.92 40.92 0 0 0-26.84-3l-1.67 0.35c-0.55 0.15-1.08 0.36-1.63 0.53a26.15 26.15 0 0 0-3.21 1.16l-1.58 0.67a10 10 0 0 0-1.55 0.73l-3 1.66-2.89 1.94c-0.5 0.3-0.93 0.7-1.4 1s-0.94 0.69-1.37 1.09l-1.33 1.14-1.28 1.22c-0.44 0.39-0.85 0.82-1.25 1.25s-0.83 0.84-1.21 1.3c-6.33 7.05-10.66 16.17-12.91 26.44z" fill="#FFD5B3" p-id="27994"></path><path d="M627.15 509.43a52.12 52.12 0 0 1-0.33-5.6c0-0.93 0-1.87 0.09-2.81s0.1-1.88 0.21-2.82a56.4 56.4 0 0 1 2.23-11.2 59.28 59.28 0 0 1 29.37-35.2 57.72 57.72 0 0 1 11.19-4.33 57 57 0 0 1 11.9-1.87A56 56 0 0 1 725 463a58.17 58.17 0 0 1 12.13 19.78 55.4 55.4 0 0 1 2.77 11.09 26.51 26.51 0 0 1 0.3 2.81l0.23 2.81c0 1.88 0 3.76-0.11 5.61-3.12-14.53-10.4-27.4-20.78-36.44A54.48 54.48 0 0 0 702 458.51c-0.8-0.26-1.58-0.58-2.38-0.81l-2.43-0.63a39.38 39.38 0 0 0-4.93-1 47.08 47.08 0 0 0-10-0.53c-13.36 0.58-26.35 6.61-36.14 16.31a63.81 63.81 0 0 0-12.25 16.92 75.5 75.5 0 0 0-6.72 20.66z" fill="#FFD5B3" p-id="27995"></path><path d="M612.87 505.94v-3.71c0-1.24 0.11-2.48 0.16-3.72 0.21-2.48 0.51-5 1-7.43a73.66 73.66 0 0 1 4.14-14.52A74.81 74.81 0 0 1 635 451.11a73 73 0 0 1 26.2-16.64 69.88 69.88 0 0 1 15.32-3.69 70.21 70.21 0 0 1 31.2 3.23 70.84 70.84 0 0 1 14.24 6.74 72.14 72.14 0 0 1 22.18 21.74 74.13 74.13 0 0 1 11.14 28.45 72.82 72.82 0 0 1 1 15.08l-0.26 3.75-0.42 3.71-0.65 3.67c-0.26 1.22-0.54 2.42-0.83 3.62q0-1.86 0.06-3.69l-0.18-3.68-0.21-3.65-0.37-3.62a86.11 86.11 0 0 0-3-14.08 77.13 77.13 0 0 0-12.77-25 70.1 70.1 0 0 0-20.63-18.15 65.77 65.77 0 0 0-25.82-8.32 63.93 63.93 0 0 0-13.62 0 65.26 65.26 0 0 0-13.37 2.84 71.42 71.42 0 0 0-24 13.47 78 78 0 0 0-17.76 21.77 86.76 86.76 0 0 0-5.9 13.13c-0.81 2.28-1.5 4.61-2.12 7-0.29 1.19-0.61 2.37-0.88 3.57s-0.42 2.37-0.68 3.58z" fill="#FFD5B3" p-id="27996"></path><path d="M597.71 497.75a89.75 89.75 0 0 1 10-36 91.56 91.56 0 0 1 24.16-29.39 86.73 86.73 0 0 1 34.71-16.82A85.66 85.66 0 0 1 686 413.4a87.11 87.11 0 0 1 19.43 2.32 84.75 84.75 0 0 1 18.39 6.71 87.38 87.38 0 0 1 16.33 10.7 90.25 90.25 0 0 1 23.69 30.39 93.31 93.31 0 0 1 9.1 36.93 95.41 95.41 0 0 1-1.25 18.83 85.58 85.58 0 0 1-5 18c0.6-3 1.14-6.07 1.49-9.12a90.51 90.51 0 0 0 0.73-9.14 100.39 100.39 0 0 0-0.89-18.12 96.72 96.72 0 0 0-11.19-33.74 88.53 88.53 0 0 0-22.66-26.62 81.75 81.75 0 0 0-14.75-9.23 76.72 76.72 0 0 0-16.34-5.84 80.27 80.27 0 0 0-34.53-0.62A83.48 83.48 0 0 0 651.9 430a87.05 87.05 0 0 0-15.34 8.62 94.6 94.6 0 0 0-24.65 25.58 104.2 104.2 0 0 0-14.2 33.55z" fill="#FFD5B3" p-id="27997"></path><path d="M586 487.38a104.6 104.6 0 0 1 46-71.86 97.82 97.82 0 0 1 64.25-15.77A100.19 100.19 0 0 1 770 446.07l1.51 2.36c0.52 0.77 0.92 1.62 1.39 2.43 0.88 1.64 1.82 3.25 2.66 4.91l2.33 5.07 0.58 1.27 0.5 1.3 1 2.6a103.31 103.31 0 0 1 5.61 21.45c0.13 0.91 0.32 1.81 0.42 2.73l0.27 2.75c0.16 1.84 0.44 3.66 0.45 5.5l0.18 5.51-0.17 5.49c0 1.83-0.28 3.66-0.43 5.47l-0.27 2.73c-0.1 0.91-0.28 1.8-0.41 2.71-0.31 1.79-0.53 3.6-0.91 5.38l-1.22 5.32c-0.42 1.76-1 3.48-1.51 5.22-0.27 0.87-0.49 1.74-0.8 2.59l-0.93 2.55c-1.2 3.41-2.74 6.68-4.24 9.93l1.5-5.17c0.55-1.69 0.86-3.47 1.29-5.19l0.62-2.6c0.2-0.87 0.32-1.75 0.48-2.62 0.29-1.76 0.66-3.49 0.87-5.25a118.43 118.43 0 0 0 1.05-21.09l-0.28-5.25L781 499c-0.15-1.74-0.54-3.45-0.81-5.17l-0.44-2.57c-0.16-0.86-0.39-1.7-0.58-2.55-0.42-1.68-0.76-3.39-1.24-5.05l-1.49-5c-0.51-1.65-1.18-3.25-1.76-4.88-0.31-0.81-0.58-1.63-0.91-2.42l-1-2.38-1-2.36-0.52-1.19-0.6-1.14-2.39-4.58c-0.85-1.5-1.76-3-2.64-4.43-0.46-0.73-0.85-1.49-1.36-2.19l-1.59-2.09a98.24 98.24 0 0 0-13.26-15.63 95.37 95.37 0 0 0-16.12-12.49 92.26 92.26 0 0 0-18.35-8.76 94 94 0 0 0-40.17-4.67 96.3 96.3 0 0 0-38.69 12.78 106.5 106.5 0 0 0-31 27.48A118.7 118.7 0 0 0 586 487.38z" fill="#FFD5B3" p-id="27998"></path><path d="M650.87 532.47c11.5 8.87 19.35 22.93 21.63 38.14a65.07 65.07 0 0 1-0.76 23.15 65 65 0 0 1-3.59 11.24 61.52 61.52 0 0 1-5.71 10.4 64.12 64.12 0 0 1-7.68 9.1 60.77 60.77 0 0 1-9.32 7.37 56.59 56.59 0 0 1-22 8.24 54.78 54.78 0 0 1-22.84-1.33c-0.91-0.24-1.81-0.53-2.69-0.83s-1.78-0.58-2.65-0.93a52.89 52.89 0 0 1-5.08-2.3 46.79 46.79 0 0 1-9.1-6.09A77.55 77.55 0 0 0 601.7 632a60.06 60.06 0 0 0 19.41-2.61 55.78 55.78 0 0 0 29.78-21.87c7.08-10.27 10.69-23 10.68-36a76 76 0 0 0-0.69-9.83 83.66 83.66 0 0 0-2-9.85 93.73 93.73 0 0 0-3.36-9.75c-1.41-3.22-2.95-6.41-4.65-9.62z" fill="#FFD5B3" p-id="27999"></path><path d="M665.09 521.89a73.65 73.65 0 0 1 5.42 5.47c0.86 0.95 1.65 2 2.47 3l1.22 1.52 1.13 1.58a80.29 80.29 0 0 1 7.88 13.54 83.22 83.22 0 0 1 2.46 62.93 77.1 77.1 0 0 1-30.29 38.3 77.24 77.24 0 0 1-14.76 7.48 72.7 72.7 0 0 1-16 4 75.78 75.78 0 0 1-16.34 0.45 77.18 77.18 0 0 1-30.56-9.23 73.6 73.6 0 0 1-23.44-20.23 98.65 98.65 0 0 0 26.25 13.95 81.91 81.91 0 0 0 28.13 4.51 72.42 72.42 0 0 0 27-5.8 69.22 69.22 0 0 0 12-6.64 71.62 71.62 0 0 0 19.11-19.48 74.09 74.09 0 0 0 6.53-12.17 82.76 82.76 0 0 0 6.3-27.23 90 90 0 0 0-2.87-28.54 106.71 106.71 0 0 0-11.64-27.41z" fill="#FFD5B3" p-id="28000"></path><path d="M682.72 512.33c18.66 19.73 29.1 48.07 27.42 76.45a102.26 102.26 0 0 1-11.09 41.13 98.26 98.26 0 0 1-12 18 94.79 94.79 0 0 1-97.91 30.45 100.07 100.07 0 0 1-37.33-19.22 98.88 98.88 0 0 1-25.68-31.95 122 122 0 0 0 29.7 26.36 103.84 103.84 0 0 0 35.8 14.09 92.75 92.75 0 0 0 37.56-0.47 87 87 0 0 0 17.69-6A89 89 0 0 0 676.59 639a91.29 91.29 0 0 0 10.79-15.32 97.16 97.16 0 0 0 7.6-17.27 106.18 106.18 0 0 0 4.24-18.59 109.38 109.38 0 0 0-1.73-38.54 125.38 125.38 0 0 0-14.77-36.95z" fill="#FFD5B3" p-id="28001"></path><path d="M705.51 506.82c1.28 1.7 2.54 3.41 3.8 5.13l3.54 5.34c1.09 1.84 2.15 3.7 3.23 5.55l3 5.72a125.28 125.28 0 0 1 8.92 24.32 128.94 128.94 0 0 1 2.35 52.19 121.48 121.48 0 0 1-19.43 49.26 116.7 116.7 0 0 1-39.34 36.11A113.5 113.5 0 0 1 620.16 705a121.2 121.2 0 0 1-52.16-9.54 126.76 126.76 0 0 1-58.54-50.54 117.76 117.76 0 0 1-11.1-23.08A149.27 149.27 0 0 0 530 660.57a130.66 130.66 0 0 0 42 24.63 118.15 118.15 0 0 0 47.4 6.53 106.69 106.69 0 0 0 45.3-13.5 107.93 107.93 0 0 0 19.35-13.81 109.55 109.55 0 0 0 16-17.69A113.57 113.57 0 0 0 712 626a124.39 124.39 0 0 0 7.56-23 133.26 133.26 0 0 0 1.71-48.76 141.24 141.24 0 0 0-5.78-24.24l-2.12-5.92-2.37-5.81-2.61-5.77c-0.99-1.87-1.94-3.77-2.88-5.68z" fill="#FFD5B3" p-id="28002"></path><path d="M726.81 506.69a147.28 147.28 0 0 1 23.25 85.61 143.14 143.14 0 0 1-1.44 15.16c-0.4 2.51-0.72 5-1.29 7.52s-1 5-1.69 7.46A138.68 138.68 0 0 1 717.93 677a133 133 0 0 1-22.49 21.28 135.65 135.65 0 0 1-26.82 15.58 132.43 132.43 0 0 1-29.72 8.88 136.2 136.2 0 0 1-61.26-3.48l-3.7-1.05c-1.25-0.32-2.43-0.83-3.64-1.24-2.41-0.88-4.84-1.69-7.22-2.64l-7-3.11-1.75-0.79-1.7-0.89-3.39-1.79A140.23 140.23 0 0 1 524 690.6c-1-0.83-2-1.58-2.9-2.46l-2.78-2.59c-1.82-1.75-3.75-3.4-5.42-5.3l-5.15-5.54-4.8-5.83-1.19-1.46-1.1-1.54-2.19-3.06-2.19-3.06c-0.7-1-1.34-2.12-2-3.17l-2-3.18c-0.65-1.06-1.35-2.1-1.92-3.21-1.21-2.19-2.38-4.4-3.55-6.59s-2.11-4.52-3.16-6.77c-0.5-1.14-1.07-2.24-1.51-3.4l-1.32-3.44c-1.85-4.6-3.23-9.37-4.62-14.09q1.6 3.35 3.15 6.68c1 2.25 2.25 4.36 3.39 6.53l1.72 3.23c0.57 1.08 1.26 2.1 1.88 3.15 1.29 2.07 2.49 4.19 3.85 6.2a166.19 166.19 0 0 0 18 22.73l5 5.16 5.32 4.84c1.73 1.66 3.66 3.09 5.5 4.61l2.78 2.26c0.92 0.76 1.94 1.4 2.9 2.1 1.95 1.37 3.85 2.8 5.84 4.11l6.05 3.78c1 0.66 2 1.19 3.09 1.76l3.13 1.69c1 0.55 2.08 1.14 3.13 1.68l3.22 1.49 3.22 1.49 1.61 0.75 1.65 0.64 6.6 2.55c2.23 0.76 4.5 1.43 6.74 2.15 1.13 0.33 2.22 0.76 3.38 1l3.43 0.82a131.62 131.62 0 0 0 27.8 3.89 127.17 127.17 0 0 0 27.83-2.09 119.65 119.65 0 0 0 26.66-8.11 127.39 127.39 0 0 0 44.8-32.63A132.68 132.68 0 0 0 724 645.4a138.37 138.37 0 0 0 11.09-25.94 150.68 150.68 0 0 0 5.84-27.85 152.57 152.57 0 0 0 0.47-28.68c-1.33-19.23-6.58-38.23-14.59-56.24z" fill="#FFD5B3" p-id="28003"></path><path d="M526.82 475.23l30.03 0 0 23.43-30.03 0 0-23.43Z" fill="#5F891B" p-id="28004"></path><path d="M521.45 467.59l30.03 0 0 23.43-30.03 0 0-23.43Z" fill="#8CC63F" p-id="28005"></path><path d="M449.15 483.68l34.97 0 0 27.29-34.97 0 0-27.29Z" fill="#5F891B" p-id="28006"></path><path d="M442.89 474.79l34.97 0 0 27.29-34.97 0 0-27.29Z" fill="#8CC63F" p-id="28007"></path><path d="M511.36 537.72l28.79 0 0 22.46-28.79 0 0-22.46Z" fill="#5F891B" p-id="28008"></path><path d="M506.21 530.4l28.79 0 0 22.46-28.79 0 0-22.46Z" fill="#8CC63F" p-id="28009"></path><path d="M386.77 583.11l28.79 0 0 22.46-28.79 0 0-22.46Z" fill="#5F891B" p-id="28010"></path><path d="M381.62 575.79l28.79 0 0 22.46-28.79 0 0-22.46Z" fill="#8CC63F" p-id="28011"></path><path d="M613.59 494.51l28.79 0 0 22.46-28.79 0 0-22.46Z" fill="#5F891B" p-id="28012"></path><path d="M608.44 487.18l28.79 0 0 22.46-28.79 0 0-22.46Z" fill="#8CC63F" p-id="28013"></path><path d="M552.89 579.45l28.79 0 0 22.46-28.79 0 0-22.46Z" fill="#5F891B" p-id="28014"></path><path d="M547.74 572.13l28.79 0 0 22.46-28.79 0 0-22.46Z" fill="#8CC63F" p-id="28015"></path><path d="M441.65 537.35l24.75 0 0 19.31-24.75 0 0-19.31Z" fill="#C1272D" p-id="28016"></path><path d="M437.55 533.58l24.75 0 0 19.31-24.75 0 0-19.31Z" fill="#ED1C24" p-id="28017"></path></svg>