<?xml version="1.0" standalone="no"?><!DOCTYPE svg PUBLIC "-//W3C//DTD SVG 1.1//EN" "http://www.w3.org/Graphics/SVG/1.1/DTD/svg11.dtd"><svg t="1647743949320" class="icon" viewBox="0 0 1323 1024" version="1.1" xmlns="http://www.w3.org/2000/svg" p-id="2606" xmlns:xlink="http://www.w3.org/1999/xlink" width="258.3984375" height="200"><defs><style type="text/css">@font-face { font-family: feedback-iconfont; src: url("//at.alicdn.com/t/font_1031158_u69w8yhxdu.woff2?t=1630033759944") format("woff2"), url("//at.alicdn.com/t/font_1031158_u69w8yhxdu.woff?t=1630033759944") format("woff"), url("//at.alicdn.com/t/font_1031158_u69w8yhxdu.ttf?t=1630033759944") format("truetype"); }
</style></defs><path d="M1284.132202 850.664727c0 67.594343-55.301172 122.900687-122.900687 122.900687H148.598949c-67.594343 0-122.895515-55.301172-122.895515-122.900687V177.219232c0-67.589172 55.301172-122.890343 122.895515-122.890343h1012.632566c67.594343 0 122.900687 55.301172 122.900687 122.890343v673.445495z" fill="#FFEABF" p-id="2607"></path><path d="M1156.323556 54.323717H143.680646c-67.584 0-122.890343 55.301172-122.890343 122.890344v71.276606c0-67.589172 55.306343-122.895515 122.890343-122.895515h1012.64291c67.584 0 122.890343 55.301172 122.890343 122.895515V177.219232c0-67.594343-55.306343-122.895515-122.890343-122.895515z" fill="#FFFFFF" opacity=".45" p-id="2608"></path><path d="M1259.55103 850.664727c0 54.204768-44.104404 98.319515-98.319515 98.319515H148.598949c-54.209939 0-98.314343-44.104404-98.314343-98.319515V177.219232c0-54.209939 44.104404-98.314343 98.314343-98.314343h1012.632566c54.209939 0 98.319515 44.104404 98.319515 98.314343v673.445495z m49.157172-673.445495c0-81.314909-66.156606-147.476687-147.476687-147.476687H148.598949C67.28404 29.742545 1.127434 95.899152 1.127434 177.219232v673.455839C1.127434 931.984808 67.28404 998.141414 148.598949 998.141414h1012.632566c81.320081 0 147.476687-66.156606 147.476687-147.476687V177.219232z" fill="#6E6E96" p-id="2609"></path><path d="M158.430384 418.086788h988.056565v553.027232H158.430384z" fill="#FFFFFF" p-id="2610"></path><path d="M305.901899 428.430222h125.755475v295.511919H305.901899z" fill="#9797BD" p-id="2611"></path><path d="M281.320727 428.430222v295.511919a24.581172 24.581172 0 0 0 24.576 24.576h125.755475a24.581172 24.581172 0 0 0 24.576-24.576v-295.511919a24.576 24.576 0 0 0-24.576-24.576H305.901899a24.576 24.576 0 0 0-24.581172 24.576z m125.755475 0v295.511919a24.576 24.576 0 0 1 24.581172-24.576H305.901899a24.570828 24.570828 0 0 1 24.576 24.576v-295.511919a24.581172 24.581172 0 0 1-24.576 24.581172h125.755475a24.586343 24.586343 0 0 1-24.581172-24.581172z" fill="#6E6E96" p-id="2612"></path><path d="M870.808566 428.430222h125.745131v295.511919h-125.745131z" fill="#9797BD" p-id="2613"></path><path d="M846.227394 428.430222v295.511919a24.581172 24.581172 0 0 0 24.581172 24.576h125.745131a24.581172 24.581172 0 0 0 24.576-24.576v-295.511919a24.576 24.576 0 0 0-24.576-24.576h-125.745131a24.576 24.576 0 0 0-24.581172 24.576z m125.750303 0v295.511919a24.570828 24.570828 0 0 1 24.576-24.576h-125.745131a24.570828 24.570828 0 0 1 24.576 24.576v-295.511919a24.576 24.576 0 0 1-24.576 24.581172h125.745131a24.581172 24.581172 0 0 1-24.576-24.581172z" fill="#6E6E96" p-id="2614"></path><path d="M588.355232 423.258505h125.750303v295.511919h-125.750303z" fill="#9797BD" p-id="2615"></path><path d="M563.774061 423.258505v295.511919a24.581172 24.581172 0 0 0 24.581171 24.576h125.750303a24.581172 24.581172 0 0 0 24.581172-24.576v-295.511919a24.581172 24.581172 0 0 0-24.581172-24.576h-125.750303a24.576 24.576 0 0 0-24.581171 24.576z m125.750303 0v295.511919a24.581172 24.581172 0 0 1 24.581171-24.576h-125.750303a24.576 24.576 0 0 1 24.581172 24.576v-295.511919a24.581172 24.581172 0 0 1-24.581172 24.581172h125.750303a24.586343 24.586343 0 0 1-24.581171-24.581172zM345.222465 709.373414h49.157171v257.515313h-49.157171z" fill="#6E6E96" p-id="2616"></path><path d="M635.252364 714.545131h49.157171v257.515313h-49.157171zM905.614222 709.373414h49.152v257.515313h-49.152z" fill="#6E6E96" p-id="2617"></path><path d="M1156.323556 875.240727H143.680646c-67.584 0-122.890343-55.296-122.890343-122.890343v108.140606c0 67.589172 55.306343 122.900687 122.890343 122.900687h1012.64291c67.584 0 122.890343-55.301172 122.890343-122.900687v-108.140606c0 67.594343-55.306343 122.890343-122.890343 122.890343z" fill="#6E6E96" opacity=".15" p-id="2618"></path><path d="M183.006384 442.66796h938.899394v66.363474H183.006384z" fill="#6E6E96" opacity=".25" p-id="2619"></path><path d="M394.379636 738.169535h39.325738v137.071192h-39.325738zM684.409535 738.169535h36.864v137.071192h-36.864zM954.766222 738.169535h36.874344v137.071192h-36.874344z" fill="#6E6E96" opacity=".15" p-id="2620"></path><path d="M330.477899 647.183515h76.598303v52.182626H330.477899zM612.936404 647.183515h76.593131v52.182626h-76.593131z" fill="#6E6E96" opacity=".49" p-id="2621"></path><path d="M895.384566 647.183515h76.598303v52.182626h-76.598303z" fill="#6E6E96" opacity=".49" p-id="2622"></path><path d="M468.040404 209.454545h356.848485v67.232324h-356.848485zM158.430384 442.66796h988.056565a24.576 24.576 0 0 1-24.576-24.581172v553.027232a24.581172 24.581172 0 0 1 24.576-24.586343H158.430384a24.581172 24.581172 0 0 1 24.576 24.586343V418.086788a24.581172 24.581172 0 0 1-24.576 24.581172z m0 553.016888h988.056565a24.591515 24.591515 0 0 0 24.586344-24.586343V418.086788a24.586343 24.586343 0 0 0-24.586344-24.576H158.430384a24.576 24.576 0 0 0-24.576 24.576v553.027232a24.576 24.576 0 0 0 24.576 24.570828z" fill="#6E6E96" p-id="2623"></path></svg>